0
SECTION
2
ENTITIES
0
3DFACE
8
0
10
194.19586
20
-80.64591
30
-570.79395
11
184.36507
21
-79.03594
31
-586.6147
12
212.32263
22
-63.23573
32
-586.5111
13
212.32274
23
-63.23563
33
-586.511
0
3DFACE
8
0
10
178.4332
20
-67.70014
30
-618.99054
11
212.32263
21
-63.23573
31
-586.5111
12
184.36507
22
-79.03594
32
-586.6147
13
184.36517
23
-79.03584
33
-586.61456
0
3DFACE
8
0
10
212.32263
20
-63.23573
30
-586.5111
11
178.4332
21
-67.70014
31
-618.99054
12
206.39078
22
-51.89994
32
-618.887
13
206.39088
23
-51.89984
33
-618.8869
0
3DFACE
8
0
10
182.43225
20
-58.165672
30
-634.9992
11
206.39078
21
-51.89994
31
-618.887
12
178.4332
22
-67.70014
32
-618.99054
13
178.4333
23
-67.70004
33
-618.9904
0
3DFACE
8
0
10
178.4332
20
-67.70014
30
-618.99054
11
159.99518
21
-85.40926
31
-603.0035
12
140.0357
22
-82.14052
32
-635.1243
13
140.03581
23
-82.14042
33
-635.1242
0
3DFACE
8
0
10
178.4332
20
-67.70014
30
-618.99054
11
140.0357
21
-82.14052
31
-635.1243
12
158.47374
22
-64.43141
32
-651.1114
13
158.47385
23
-64.43131
33
-651.11127
0
3DFACE
8
0
10
178.4332
20
-67.70014
30
-618.99054
11
158.47374
21
-64.43141
31
-651.1114
12
182.43225
22
-58.165672
32
-634.9992
13
182.43236
23
-58.165573
33
-634.9991
0
3DFACE
8
0
10
140.0357
20
-82.14052
30
-635.1243
11
159.99518
21
-85.40926
31
-603.0035
12
145.86746
22
-93.28497
32
-603.295
13
145.86757
23
-93.284874
33
-603.29486
0
3DFACE
8
0
10
194.19586
20
-80.64591
30
-570.79395
11
176.06906
21
-98.0561
31
-555.0768
12
145.86746
22
-93.28497
32
-603.295
13
145.86757
23
-93.284874
33
-603.29486
0
3DFACE
8
0
10
194.19586
20
-80.64591
30
-570.79395
11
145.86746
21
-93.28497
31
-603.295
12
159.99518
22
-85.40926
32
-603.0035
13
159.99529
23
-85.409164
33
-603.00336
0
3DFACE
8
0
10
194.19586
20
-80.64591
30
-570.79395
11
159.99518
21
-85.40926
31
-603.0035
12
184.36507
22
-79.03594
32
-586.6147
13
184.36517
23
-79.03584
33
-586.61456
0
3DFACE
8
0
10
145.86746
20
-93.28497
30
-603.295
11
176.06906
21
-98.0561
31
-555.0768
12
151.69919
22
-104.42942
32
-571.46564
13
151.6993
23
-104.42932
33
-571.4655
0
3DFACE
8
0
10
83.4125
20
-86.73171
30
-483.00082
11
72.62041
21
-82.40615
31
-474.7345
12
94.36639
22
-105.674904
32
-506.8764
13
94.366486
23
-105.674805
33
-506.8763
0
3DFACE
8
0
10
53.680298
20
-93.09989
30
-479.6839
11
94.36639
21
-105.674904
31
-506.8764
12
72.62041
22
-82.40615
32
-474.7345
13
72.62051
23
-82.40605
33
-474.7344
0
3DFACE
8
0
10
94.36639
20
-105.674904
30
-506.8764
11
53.680298
21
-93.09989
31
-479.6839
12
90.353195
22
-113.07246
32
-513.3856
13
90.353294
23
-113.07236
33
-513.3855
0
3DFACE
8
0
10
64.634186
20
-112.04305
30
-503.55948
11
90.353195
21
-113.07246
31
-513.3856
12
53.680298
22
-93.09989
32
-479.6839
13
53.680397
23
-93.09979
33
-479.6838
0
3DFACE
8
0
10
91.56052
20
-71.71241
30
-469.7851
11
72.62041
21
-82.40615
31
-474.7345
12
83.4125
22
-86.73171
32
-483.00082
13
83.4126
23
-86.73161
33
-483.00073
0
3DFACE
8
0
10
91.56052
20
-71.71241
30
-469.7851
11
83.4125
21
-86.73171
31
-483.00082
12
124.97135
22
-88.39506
32
-498.87875
13
124.97145
23
-88.39496
33
-498.87866
0
3DFACE
8
0
10
91.56052
20
-71.71241
30
-469.7851
11
124.97135
21
-88.39506
31
-498.87875
12
139.89827
22
-85.09889
32
-500.4386
13
139.89838
23
-85.09879
33
-500.4385
0
3DFACE
8
0
10
91.56052
20
-71.71241
30
-469.7851
11
139.89827
21
-85.09889
31
-500.4386
12
133.11937
22
-73.37577
32
-485.66302
13
133.11948
23
-73.37567
33
-485.66293
0
3DFACE
8
0
10
116.0722
20
-114.10183
30
-523.2118
11
146.67717
21
-96.82203
31
-515.2142
12
124.97135
22
-88.39506
32
-498.87875
13
124.97145
23
-88.39496
33
-498.87866
0
3DFACE
8
0
10
116.0722
20
-114.10183
30
-523.2118
11
124.97135
21
-88.39506
31
-498.87875
12
94.36639
22
-105.674904
32
-506.8764
13
94.366486
23
-105.674805
33
-506.8763
0
3DFACE
8
0
10
116.0722
20
-114.10183
30
-523.2118
11
94.36639
21
-105.674904
31
-506.8764
12
90.353195
22
-113.07246
32
-513.3856
13
90.353294
23
-113.07236
33
-513.3855
0
3DFACE
8
0
10
124.97135
20
-88.39506
30
-498.87875
11
146.67717
21
-96.82203
31
-515.2142
12
139.89827
22
-85.09889
32
-500.4386
13
139.89838
23
-85.09879
33
-500.4385
0
3DFACE
8
0
10
150.47389
20
-103.38793
30
-523.4897
11
172.38902
21
-101.59065
31
-551.8859
12
180.01968
22
-75.486916
32
-549.3406
13
180.01979
23
-75.48682
33
-549.34045
0
3DFACE
8
0
10
150.47389
20
-103.38793
30
-523.4897
11
180.01968
21
-75.486916
31
-549.3406
12
158.10457
22
-77.28419
32
-520.94434
13
158.10468
23
-77.28409
33
-520.9442
0
3DFACE
8
0
10
150.47389
20
-103.38793
30
-523.4897
11
158.10457
21
-77.28419
31
-520.94434
12
139.89825
22
-85.0989
32
-500.4386
13
139.89836
23
-85.0988
33
-500.4385
0
3DFACE
8
0
10
180.01968
20
-75.486916
30
-549.3406
11
172.38902
21
-101.59065
31
-551.8859
12
194.19586
22
-80.64591
32
-570.79395
13
194.19597
23
-80.64581
33
-570.7938
0
3DFACE
8
0
10
172.86252
20
-63.10965
30
-533.74054
11
176.46306
21
-49.97961
31
-532.1428
12
158.10457
22
-77.28419
32
-520.94434
13
158.10468
23
-77.28409
33
-520.9442
0
3DFACE
8
0
10
144.0806
20
-52.635326
30
-490.18365
11
158.10457
21
-77.28419
31
-520.94434
12
176.46306
22
-49.97961
32
-532.1428
13
176.46317
23
-49.97951
33
-532.1427
0
3DFACE
8
0
10
158.10457
20
-77.28419
30
-520.94434
11
144.0806
21
-52.635326
31
-490.18365
12
139.89825
22
-85.0989
32
-500.4386
13
139.89836
23
-85.0988
33
-500.4385
0
3DFACE
8
0
10
129.32263
20
-66.80986
30
-477.38748
11
139.89825
21
-85.0989
31
-500.4386
12
144.0806
22
-52.635326
32
-490.18365
13
144.0807
23
-52.635227
33
-490.18356
0
3DFACE
8
0
10
216.00269
20
-59.701164
30
-589.70197
11
208.84554
21
-47.3239
31
-574.1019
12
194.19586
22
-80.64591
32
-570.79395
13
194.19597
23
-80.64581
33
-570.7938
0
3DFACE
8
0
10
176.46306
20
-49.97961
30
-532.1428
11
194.19586
21
-80.64591
31
-570.79395
12
208.84554
22
-47.3239
32
-574.1019
13
208.84564
23
-47.3238
33
-574.1018
0
3DFACE
8
0
10
194.19586
20
-80.64591
30
-570.79395
11
176.46306
21
-49.97961
31
-532.1428
12
180.01968
22
-75.486916
32
-549.3406
13
180.01979
23
-75.48682
33
-549.34045
0
3DFACE
8
0
10
172.86252
20
-63.10965
30
-533.74054
11
180.01968
21
-75.486916
31
-549.3406
12
176.46306
22
-49.97961
32
-532.1428
13
176.46317
23
-49.97951
33
-532.1427
0
3DFACE
8
0
10
50.39909
20
-94.95249
30
-480.54135
11
72.62041
21
-82.40615
31
-474.7345
12
66.24984
22
-78.50625
32
-470.35364
13
66.24994
23
-78.50615
33
-470.35355
0
3DFACE
8
0
10
50.39909
20
-94.95249
30
-480.54135
11
66.24984
21
-78.50625
31
-470.35364
12
40.719215
22
-78.954124
32
-465.7619
13
40.719315
23
-78.954025
33
-465.7618
0
3DFACE
8
0
10
50.39909
20
-94.95249
30
-480.54135
11
40.719215
21
-78.954124
31
-465.7619
12
26.326744
22
-83.21826
32
-466.4085
13
26.326843
23
-83.21816
33
-466.40842
0
3DFACE
8
0
10
50.39909
20
-94.95249
30
-480.54135
11
26.326744
21
-83.21826
31
-466.4085
12
24.868473
22
-95.40037
32
-475.94962
13
24.868572
23
-95.40027
33
-475.94952
0
3DFACE
8
0
10
40.719215
20
-78.954124
30
-465.7619
11
68.04297
21
-63.526924
31
-458.62167
12
55.108765
22
-55.60895
32
-449.72717
13
55.108864
23
-55.608852
33
-449.72708
0
3DFACE
8
0
10
40.719215
20
-78.954124
30
-465.7619
11
55.108765
21
-55.60895
31
-449.72717
12
27.785023
22
-71.036156
32
-456.86737
13
27.785122
23
-71.03606
33
-456.86728
0
3DFACE
8
0
10
40.719215
20
-78.954124
30
-465.7619
11
27.785023
21
-71.036156
31
-456.86737
12
26.326744
22
-83.21826
32
-466.4085
13
26.326843
23
-83.21816
33
-466.40842
0
3DFACE
8
0
10
55.108765
20
-55.60895
30
-449.72717
11
68.04297
21
-63.526924
31
-458.62167
12
75.87181
22
-55.24472
32
-453.46143
13
75.87191
23
-55.24462
33
-453.46133
0
3DFACE
8
0
10
72.62041
20
-82.40615
30
-474.7345
11
94.84172
21
-69.85981
31
-468.92764
12
75.87181
22
-55.24472
32
-453.46143
13
75.87191
23
-55.24462
33
-453.46133
0
3DFACE
8
0
10
72.62041
20
-82.40615
30
-474.7345
11
75.87181
21
-55.24472
31
-453.46143
12
68.04297
22
-63.526924
32
-458.62167
13
68.04307
23
-63.526825
33
-458.62158
0
3DFACE
8
0
10
72.62041
20
-82.40615
30
-474.7345
11
68.04297
21
-63.526924
31
-458.62167
12
66.24984
22
-78.50625
32
-470.35364
13
66.24994
23
-78.50615
33
-470.35355
0
3DFACE
8
0
10
75.87181
20
-55.24472
30
-453.46143
11
94.84172
21
-69.85981
31
-468.92764
12
96.63485
22
-54.880478
32
-457.1957
13
96.63495
23
-54.88038
33
-457.19562
0
3DFACE
8
0
10
190.43573
20
23.597372
30
-581.28674
11
190.49979
21
28.04578
31
-590.3783
12
170.5408
22
76.73847
32
-608.6524
13
170.54091
23
76.73857
33
-608.6523
0
3DFACE
8
0
10
190.43573
20
23.597372
30
-581.28674
11
170.5408
21
76.73847
31
-608.6524
12
163.12932
22
82.536644
32
-591.02997
13
163.12943
23
82.53674
33
-591.02985
0
3DFACE
8
0
10
190.43573
20
23.597372
30
-581.28674
11
163.12932
21
82.536644
31
-591.02997
12
175.80688
22
48.673748
32
-573.59186
13
175.80699
23
48.673847
33
-573.59174
0
3DFACE
8
0
10
170.5408
20
76.73847
30
-608.6524
11
190.49979
21
28.04578
31
-590.3783
12
177.8222
22
61.908684
32
-607.8164
13
177.82231
23
61.908783
33
-607.8163
0
3DFACE
8
0
10
177.95227
20
70.9403
30
-626.2749
11
170.5408
21
76.73847
31
-608.6524
12
177.8222
22
61.908684
32
-607.8164
13
177.82231
23
61.908783
33
-607.8163
0
3DFACE
8
0
10
177.95227
20
70.9403
30
-626.2749
11
177.8222
21
61.908684
31
-607.8164
12
203.51831
22
17.861069
32
-621.3329
13
203.51842
23
17.861168
33
-621.33276
0
3DFACE
8
0
10
177.95227
20
70.9403
30
-626.2749
11
203.51831
21
17.861069
31
-621.3329
12
210.86574
22
7.614485
32
-629.86383
13
210.86584
23
7.614585
33
-629.8637
0
3DFACE
8
0
10
177.95227
20
70.9403
30
-626.2749
11
210.86574
21
7.614485
31
-629.86383
12
203.64838
22
26.892689
32
-639.7914
13
203.64848
23
26.892788
33
-639.79126
0
3DFACE
8
0
10
205.06454
20
-1.4790115
30
-588.9817
11
218.0831
21
-11.663719
31
-619.9363
12
203.51831
22
17.861069
32
-621.3329
13
203.51842
23
17.861168
33
-621.33276
0
3DFACE
8
0
10
205.06454
20
-1.4790115
30
-588.9817
11
203.51831
21
17.861069
31
-621.3329
12
190.49979
22
28.04578
32
-590.3783
13
190.4999
23
28.04588
33
-590.3782
0
3DFACE
8
0
10
205.06454
20
-1.4790115
30
-588.9817
11
190.49979
21
28.04578
31
-590.3783
12
190.43573
22
23.597372
32
-581.28674
13
190.43584
23
23.597471
33
-581.2866
0
3DFACE
8
0
10
203.51831
20
17.861069
30
-621.3329
11
218.0831
21
-11.663719
31
-619.9363
12
210.86574
22
7.614485
32
-629.86383
13
210.86584
23
7.614585
33
-629.8637
0
3DFACE
8
0
10
222.63179
20
-23.813652
30
-613.6795
11
211.01411
21
-50.69083
31
-615.77783
12
184.09868
22
-34.956398
32
-639.33777
13
184.09879
23
-34.9563
33
-639.33765
0
3DFACE
8
0
10
222.63179
20
-23.813652
30
-613.6795
11
184.09868
21
-34.956398
31
-639.33777
12
195.71634
22
-8.079233
32
-637.2395
13
195.71645
23
-8.079133
33
-637.2394
0
3DFACE
8
0
10
222.63179
20
-23.813652
30
-613.6795
11
195.71634
21
-8.079233
31
-637.2395
12
210.86574
22
7.6144886
32
-629.86383
13
210.86584
23
7.6145887
33
-629.8637
0
3DFACE
8
0
10
184.09868
20
-34.956398
30
-639.33777
11
211.01411
21
-50.69083
31
-615.77783
12
182.43225
22
-58.165672
32
-634.9992
13
182.43236
23
-58.165573
33
-634.9991
0
3DFACE
8
0
10
210.86574
20
7.6144886
30
-629.86383
11
195.71634
21
-8.079233
31
-637.2395
12
162.53732
22
-5.0245686
32
-662.36487
13
162.53743
23
-5.0244684
33
-662.36475
0
3DFACE
8
0
10
210.86574
20
7.6144886
30
-629.86383
11
162.53732
21
-5.0245686
31
-662.36487
12
179.35315
22
33.878426
32
-659.32776
13
179.35326
23
33.878525
33
-659.32764
0
3DFACE
8
0
10
210.86574
20
7.6144886
30
-629.86383
11
179.35315
21
33.878426
31
-659.32776
12
199.0997
22
39.042625
32
-646.0481
13
199.09981
23
39.042725
33
-646.048
0
3DFACE
8
0
10
162.53732
20
-5.0245686
30
-662.36487
11
195.71634
21
-8.079233
31
-637.2395
12
175.96979
22
-13.243433
32
-650.5191
13
175.9699
23
-13.243333
33
-650.519
0
3DFACE
8
0
10
145.72153
20
-43.927563
30
-665.402
11
162.53732
21
-5.0245686
31
-662.36487
12
175.96979
22
-13.243433
32
-650.5191
13
175.9699
23
-13.243333
33
-650.519
0
3DFACE
8
0
10
145.72153
20
-43.927563
30
-665.402
11
175.96979
21
-13.243433
31
-650.5191
12
184.09868
22
-34.956398
32
-639.33777
13
184.09879
23
-34.9563
33
-639.33765
0
3DFACE
8
0
10
145.72153
20
-43.927563
30
-665.402
11
184.09868
21
-34.956398
31
-639.33777
12
182.43225
22
-58.165672
32
-634.9992
13
182.43236
23
-58.165573
33
-634.9991
0
3DFACE
8
0
10
145.72153
20
-43.927563
30
-665.402
11
182.43225
21
-58.165672
31
-634.9992
12
153.8504
22
-65.640526
32
-654.2206
13
153.85051
23
-65.64043
33
-654.22046
0
3DFACE
8
0
10
93.17423
20
85.38798
30
-561.3656
11
101.924255
21
98.61917
31
-588.41956
12
72.99449
22
71.628654
32
-536.69604
13
72.99459
23
71.62875
33
-536.6959
0
3DFACE
8
0
10
74.54983
20
101.96967
30
-604.52167
11
72.99449
21
71.628654
31
-536.69604
12
101.924255
22
98.61917
32
-588.41956
13
101.924355
23
98.61927
33
-588.41943
0
3DFACE
8
0
10
72.99449
20
71.628654
30
-536.69604
11
74.54983
21
101.96967
31
-604.52167
12
55.201847
22
66.76205
32
-531.3019
13
55.201946
23
66.762146
33
-531.30176
0
3DFACE
8
0
10
54.370083
20
88.21034
30
-579.8521
11
55.201847
21
66.76205
31
-531.3019
12
74.54983
22
101.96967
32
-604.52167
13
74.54993
23
101.96977
33
-604.52155
0
3DFACE
8
0
10
93.806595
20
69.08134
30
-524.454
11
103.38838
21
60.86423
31
-502.9577
12
129.29868
22
95.26868
32
-572.31744
13
129.29878
23
95.268776
33
-572.3173
0
3DFACE
8
0
10
93.806595
20
69.08134
30
-524.454
11
129.29868
21
95.26868
31
-572.31744
12
101.924255
22
98.61917
32
-588.41956
13
101.924355
23
98.61927
33
-588.41943
0
3DFACE
8
0
10
93.806595
20
69.08134
30
-524.454
11
101.924255
21
98.61917
31
-588.41956
12
93.17423
22
85.38798
32
-561.3656
13
93.17433
23
85.38808
33
-561.3655
0
3DFACE
8
0
10
129.29868
20
95.26868
30
-572.31744
11
103.38838
21
60.86423
31
-502.9577
12
129.93105
22
78.96204
32
-535.4058
13
129.93115
23
78.96214
33
-535.4057
0
3DFACE
8
0
10
56.033607
20
45.31374
30
-482.7516
11
76.84573
21
42.766434
31
-470.50955
12
93.806595
22
69.08134
32
-524.454
13
93.806694
23
69.081436
33
-524.45386
0
3DFACE
8
0
10
56.033607
20
45.31374
30
-482.7516
11
93.806595
21
69.08134
31
-524.454
12
72.99449
22
71.628654
32
-536.69604
13
72.99459
23
71.62875
33
-536.6959
0
3DFACE
8
0
10
56.033607
20
45.31374
30
-482.7516
11
72.99449
21
71.628654
31
-536.69604
12
55.201847
22
66.76205
32
-531.3019
13
55.201946
23
66.762146
33
-531.30176
0
3DFACE
8
0
10
93.806595
20
69.08134
30
-524.454
11
76.84573
21
42.766434
31
-470.50955
12
103.38838
22
60.86423
32
-502.9577
13
103.38848
23
60.86433
33
-502.9576
0
3DFACE
8
0
10
144.19562
20
61.573296
30
-539.27075
11
130.33134
21
79.23498
31
-535.8952
12
136.13814
22
19.144379
32
-510.9314
13
136.13824
23
19.144478
33
-510.9313
0
3DFACE
8
0
10
103.388374
20
60.864235
30
-502.9577
11
136.13814
21
19.144379
31
-510.9314
12
130.33134
22
79.23498
32
-535.8952
13
130.33145
23
79.23508
33
-535.8951
0
3DFACE
8
0
10
136.13814
20
19.144379
30
-510.9314
11
103.388374
21
60.864235
31
-502.9577
12
120.8259
22
21.261818
32
-498.4987
13
120.826
23
21.261917
33
-498.4986
0
3DFACE
8
0
10
106.961624
20
38.923492
30
-495.1231
11
120.8259
21
21.261818
31
-498.4987
12
103.388374
22
60.864235
32
-502.9577
13
103.38847
23
60.864334
33
-502.9576
0
3DFACE
8
0
10
136.13814
20
19.144379
30
-510.9314
11
120.8259
21
21.261818
31
-498.4987
12
128.08066
22
-23.284527
32
-482.59204
13
128.08076
23
-23.284428
33
-482.59195
0
3DFACE
8
0
10
101.04644
20
7.775427
30
-474.31848
11
128.08066
21
-23.284527
31
-482.59204
12
120.8259
22
21.261818
32
-498.4987
13
120.826
23
21.261917
33
-498.4986
0
3DFACE
8
0
10
128.08066
20
-23.284527
30
-482.59204
11
101.04644
21
7.775427
31
-474.31848
12
108.3012
22
-36.770924
32
-458.41187
13
108.3013
23
-36.770824
33
-458.41177
0
3DFACE
8
0
10
89.415726
20
-12.712746
30
-453.81372
11
108.3012
21
-36.770924
31
-458.41187
12
101.04644
22
7.775427
32
-474.31848
13
101.04654
23
7.775527
33
-474.3184
0
3DFACE
8
0
10
76.44543
20
42.4935
30
-470.0202
11
70.53026
21
11.345434
31
-449.21558
12
89.415726
22
-12.712746
32
-453.81372
13
89.415825
23
-12.712646
33
-453.81363
0
3DFACE
8
0
10
76.44543
20
42.4935
30
-470.0202
11
89.415726
21
-12.712746
31
-453.81372
12
101.04644
22
7.775427
32
-474.31848
13
101.04654
23
7.775527
33
-474.3184
0
3DFACE
8
0
10
76.44543
20
42.4935
30
-470.0202
11
101.04644
21
7.775427
31
-474.31848
12
106.961624
22
38.923492
32
-495.1231
13
106.96172
23
38.92359
33
-495.12302
0
3DFACE
8
0
10
76.44543
20
42.4935
30
-470.0202
11
106.961624
21
38.923492
31
-495.1231
12
103.388374
22
60.864235
32
-502.9577
13
103.38847
23
60.864334
33
-502.9576
0
3DFACE
8
0
10
150.32811
20
9.446066
30
-524.66315
11
179.95093
21
11.875458
31
-563.04645
12
172.11063
22
55.00981
32
-571.6476
13
172.11073
23
55.00991
33
-571.64746
0
3DFACE
8
0
10
150.32811
20
9.446066
30
-524.66315
11
172.11063
21
55.00981
31
-571.6476
12
142.48782
22
52.580414
32
-533.2642
13
142.48793
23
52.580513
33
-533.2641
0
3DFACE
8
0
10
150.32811
20
9.446066
30
-524.66315
11
142.48782
21
52.580414
31
-533.2642
12
136.13814
22
19.144379
32
-510.9314
13
136.13824
23
19.144478
33
-510.9313
0
3DFACE
8
0
10
172.11063
20
55.00981
30
-571.6476
11
179.95093
21
11.875458
31
-563.04645
12
190.43573
22
23.597372
32
-581.28674
13
190.43584
23
23.597471
33
-581.2866
0
3DFACE
8
0
10
176.46306
20
-49.97961
30
-532.1428
11
201.13785
21
-47.956017
31
-564.1148
12
190.43573
22
23.597372
32
-581.28674
13
190.43584
23
23.597471
33
-581.2866
0
3DFACE
8
0
10
176.46306
20
-49.97961
30
-532.1428
11
190.43573
21
23.597372
31
-581.28674
12
179.95093
22
11.875458
32
-563.04645
13
179.95103
23
11.875558
33
-563.0463
0
3DFACE
8
0
10
176.46306
20
-49.97961
30
-532.1428
11
179.95093
21
11.875458
31
-563.04645
12
172.32791
22
-28.265495
32
-536.2353
13
172.32802
23
-28.265396
33
-536.23517
0
3DFACE
8
0
10
190.43573
20
23.597372
30
-581.28674
11
201.13785
21
-47.956017
31
-564.1148
12
208.76083
22
-7.8150673
32
-590.926
13
208.76094
23
-7.814967
33
-590.9259
0
3DFACE
8
0
10
151.78827
20
-52.003212
30
-500.17078
11
176.46306
21
-49.97961
31
-532.1428
12
172.32791
22
-28.265495
32
-536.2353
13
172.32802
23
-28.265396
33
-536.23517
0
3DFACE
8
0
10
151.78827
20
-52.003212
30
-500.17078
11
172.32791
21
-28.265495
31
-536.2353
12
150.32811
22
9.446066
32
-524.66315
13
150.32822
23
9.446166
33
-524.663
0
3DFACE
8
0
10
151.78827
20
-52.003212
30
-500.17078
11
150.32811
21
9.446066
31
-524.66315
12
136.13814
22
19.144379
32
-510.9314
13
136.13824
23
19.144478
33
-510.9313
0
3DFACE
8
0
10
151.78827
20
-52.003212
30
-500.17078
11
136.13814
21
19.144379
31
-510.9314
12
129.78845
22
-14.2916565
32
-488.59863
13
129.78856
23
-14.291556
33
-488.59854
0
3DFACE
8
0
10
75.87181
20
-55.24472
30
-453.46143
11
73.41022
21
-44.446304
31
-452.48462
12
57.891853
22
-55.560135
32
-450.22772
13
57.891953
23
-55.560036
33
-450.22763
0
3DFACE
8
0
10
53.380135
20
-18.92998
30
-447.6078
11
57.891853
21
-55.560135
31
-450.22772
12
73.41022
22
-44.446304
32
-452.48462
13
73.41032
23
-44.446205
33
-452.48453
0
3DFACE
8
0
10
57.891853
20
-55.560135
30
-450.22772
11
53.380135
21
-18.92998
31
-447.6078
12
37.861755
22
-30.043812
32
-445.3509
13
37.861855
23
-30.043713
33
-445.3508
0
3DFACE
8
0
10
43.122063
20
-13.524857
30
-445.48773
11
37.861755
21
-30.043812
31
-445.3509
12
53.380135
22
-18.92998
32
-447.6078
13
53.380234
23
-18.92988
33
-447.6077
0
3DFACE
8
0
10
53.380135
20
-18.92998
30
-447.6078
11
81.69384
21
-18.433277
31
-452.70007
12
76.69608
22
3.4907894
32
-450.7168
13
76.69618
23
3.4908893
33
-450.7167
0
3DFACE
8
0
10
53.380135
20
-18.92998
30
-447.6078
11
76.69608
21
3.4907894
31
-450.7168
12
48.382378
22
2.994093
32
-445.62454
13
48.382477
23
2.9941928
33
-445.62445
0
3DFACE
8
0
10
53.380135
20
-18.92998
30
-447.6078
11
48.382378
21
2.994093
31
-445.62454
12
43.122063
22
-13.524857
32
-445.48773
13
43.12216
23
-13.524756
33
-445.48764
0
3DFACE
8
0
10
76.69608
20
3.4907894
30
-450.7168
11
81.69384
21
-18.433277
31
-452.70007
12
89.415726
22
-12.712746
32
-453.81372
13
89.415825
23
-12.712646
33
-453.81363
0
3DFACE
8
0
10
75.87181
20
-55.24472
30
-453.46143
11
93.85177
21
-54.929295
31
-456.69516
12
89.415726
22
-12.712746
32
-453.81372
13
89.415825
23
-12.712646
33
-453.81363
0
3DFACE
8
0
10
75.87181
20
-55.24472
30
-453.46143
11
89.415726
21
-12.712746
31
-453.81372
12
81.69384
22
-18.433277
32
-452.70007
13
81.69394
23
-18.433178
33
-452.69998
0
3DFACE
8
0
10
75.87181
20
-55.24472
30
-453.46143
11
81.69384
21
-18.433277
31
-452.70007
12
73.41022
22
-44.446304
32
-452.48462
13
73.41032
23
-44.446205
33
-452.48453
0
3DFACE
8
0
10
89.415726
20
-12.712746
30
-453.81372
11
93.85177
21
-54.929295
31
-456.69516
12
102.13537
22
-28.916283
32
-456.91064
13
102.13547
23
-28.916183
33
-456.91055
0
3DFACE
8
0
10
136.91891
20
97.05613
30
-634.2452
11
141.36194
21
95.59618
31
-609.2649
12
159.73058
22
81.8912
32
-641.2108
13
159.73068
23
81.8913
33
-641.2107
0
3DFACE
8
0
10
136.91891
20
97.05613
30
-634.2452
11
159.73058
21
81.8912
31
-641.2108
12
161.79193
22
79.61329
32
-657.8419
13
161.79204
23
79.61339
33
-657.8418
0
3DFACE
8
0
10
136.91891
20
97.05613
30
-634.2452
11
161.79193
21
79.61329
31
-657.8419
12
146.97377
22
89.18996
32
-658.15295
13
146.97388
23
89.190056
33
-658.15283
0
3DFACE
8
0
10
159.73058
20
81.8912
30
-641.2108
11
141.36194
21
95.59618
31
-609.2649
12
149.67572
22
89.75736
32
-617.3031
13
149.67583
23
89.75746
33
-617.303
0
3DFACE
8
0
10
170.5408
20
76.73847
30
-608.6524
11
180.91595
21
68.62175
31
-633.3217
12
164.03644
22
80.476326
32
-617.0017
13
164.03654
23
80.476425
33
-617.0016
0
3DFACE
8
0
10
176.61008
20
70.03662
30
-657.5309
11
164.03644
21
80.476326
31
-617.0017
12
180.91595
22
68.62175
32
-633.3217
13
180.91606
23
68.62185
33
-633.3216
0
3DFACE
8
0
10
164.03644
20
80.476326
30
-617.0017
11
176.61008
21
70.03662
31
-657.5309
12
159.73058
22
81.8912
32
-641.2108
13
159.73068
23
81.8913
33
-641.2107
0
3DFACE
8
0
10
161.79193
20
79.61329
30
-657.8419
11
159.73058
21
81.8912
31
-641.2108
12
176.61008
22
70.03662
32
-657.5309
13
176.61018
23
70.03672
33
-657.53076
0
3DFACE
8
0
10
160.16563
20
84.8552
30
-583.98315
11
170.5408
21
76.73847
31
-608.6524
12
145.80495
22
94.13624
32
-584.28455
13
145.80505
23
94.13634
33
-584.2844
0
3DFACE
8
0
10
164.03644
20
80.476326
30
-617.0017
11
145.80495
21
94.13624
31
-584.28455
12
170.5408
22
76.73847
32
-608.6524
13
170.54091
23
76.73857
33
-608.6523
0
3DFACE
8
0
10
145.80495
20
94.13624
30
-584.28455
11
164.03644
21
80.476326
31
-617.0017
12
141.36194
22
95.59618
32
-609.2649
13
141.36205
23
95.59628
33
-609.2648
0
3DFACE
8
0
10
149.67572
20
89.75736
30
-617.3031
11
141.36194
21
95.59618
31
-609.2649
12
164.03644
22
80.476326
32
-617.0017
13
164.03654
23
80.476425
33
-617.0016
0
3DFACE
8
0
10
82.06721
20
101.04958
30
-600.09985
11
101.92425
21
98.61917
31
-588.41956
12
106.09758
22
98.59902
32
-597.9435
13
106.09768
23
98.59912
33
-597.94336
0
3DFACE
8
0
10
82.06721
20
101.04958
30
-600.09985
11
106.09758
21
98.59902
31
-597.9435
12
100.95401
22
100.28916
32
-626.8627
13
100.95411
23
100.28926
33
-626.86255
0
3DFACE
8
0
10
82.06721
20
101.04958
30
-600.09985
11
100.95401
21
100.28916
31
-626.8627
12
93.175385
22
101.49399
32
-637.6091
13
93.17548
23
101.49409
33
-637.60895
0
3DFACE
8
0
10
82.06721
20
101.04958
30
-600.09985
11
93.175385
21
101.49399
31
-637.6091
12
76.923645
22
102.73972
32
-629.019
13
76.923744
23
102.73982
33
-629.01886
0
3DFACE
8
0
10
100.95401
20
100.28916
30
-626.8627
11
129.28352
21
96.82177
31
-610.1987
12
137.75665
22
96.780846
32
-629.5352
13
137.75676
23
96.780945
33
-629.5351
0
3DFACE
8
0
10
100.95401
20
100.28916
30
-626.8627
11
137.75665
21
96.780846
31
-629.5352
12
109.42714
22
100.24825
32
-646.19916
13
109.42724
23
100.24835
33
-646.19904
0
3DFACE
8
0
10
100.95401
20
100.28916
30
-626.8627
11
109.42714
21
100.24825
31
-646.19916
12
93.175385
22
101.49399
32
-637.6091
13
93.17548
23
101.49409
33
-637.60895
0
3DFACE
8
0
10
137.75665
20
96.780846
30
-629.5352
11
129.28352
21
96.82177
31
-610.1987
12
141.36194
22
95.59618
32
-609.2649
13
141.36205
23
95.59628
33
-609.2648
0
3DFACE
8
0
10
101.92425
20
98.61917
30
-588.41956
11
121.78129
21
96.18877
31
-576.7393
12
141.36194
22
95.59618
32
-609.2649
13
141.36205
23
95.59628
33
-609.2648
0
3DFACE
8
0
10
101.92425
20
98.61917
30
-588.41956
11
141.36194
21
95.59618
31
-609.2649
12
129.28352
22
96.82177
32
-610.1987
13
129.28363
23
96.82187
33
-610.1986
0
3DFACE
8
0
10
101.92425
20
98.61917
30
-588.41956
11
129.28352
21
96.82177
31
-610.1987
12
106.09758
22
98.59902
32
-597.9435
13
106.09768
23
98.59912
33
-597.94336
0
3DFACE
8
0
10
141.36194
20
95.59618
30
-609.2649
11
121.78129
21
96.18877
31
-576.7393
12
144.96722
22
94.41151
32
-588.9945
13
144.96733
23
94.411606
33
-588.9944
0
3DFACE
8
0
10
129.30098
20
-102.58789
30
-603.48395
11
109.40723
21
-107.78929
31
-616.86163
12
145.86746
22
-93.28497
32
-603.295
13
145.86757
23
-93.284874
33
-603.29486
0
3DFACE
8
0
10
97.405685
20
-105.9557
30
-635.88336
11
145.86746
21
-93.28497
31
-603.295
12
109.40723
22
-107.78929
32
-616.86163
13
109.407326
23
-107.78919
33
-616.8615
0
3DFACE
8
0
10
145.86746
20
-93.28497
30
-603.295
11
97.405685
21
-105.9557
31
-635.88336
12
138.93286
22
-80.03295
32
-641.14374
13
138.93297
23
-80.03285
33
-641.1436
0
3DFACE
8
0
10
119.03911
20
-85.23435
30
-654.52136
11
138.93286
21
-80.03295
31
-641.14374
12
97.405685
22
-105.9557
32
-635.88336
13
97.405785
23
-105.955605
33
-635.88324
0
3DFACE
8
0
10
109.16928
20
-128.43594
30
-571.6781
11
80.601265
21
-135.90527
31
-590.88885
12
114.23624
22
-117.01752
32
-590.5051
13
114.236336
23
-117.01742
33
-590.505
0
3DFACE
8
0
10
75.77226
20
-126.677055
30
-617.24536
11
114.23624
21
-117.01752
31
-590.5051
12
80.601265
22
-135.90527
32
-590.88885
13
80.601364
23
-135.90517
33
-590.88873
0
3DFACE
8
0
10
114.23624
20
-117.01752
30
-590.5051
11
75.77226
21
-126.677055
31
-617.24536
12
109.40723
22
-107.78929
32
-616.86163
13
109.407326
23
-107.78919
33
-616.8615
0
3DFACE
8
0
10
97.405685
20
-105.9557
30
-635.88336
11
109.40723
21
-107.78929
31
-616.86163
12
75.77226
22
-126.677055
32
-617.24536
13
75.77236
23
-126.676956
33
-617.24524
0
3DFACE
8
0
10
152.80205
20
-106.53697
30
-565.4462
11
137.7373
21
-120.96658
31
-552.4674
12
109.16928
22
-128.43594
32
-571.6781
13
109.16938
23
-128.43584
33
-571.678
0
3DFACE
8
0
10
152.80205
20
-106.53697
30
-565.4462
11
109.16928
21
-128.43594
31
-571.6781
12
114.23624
22
-117.01752
32
-590.5051
13
114.236336
23
-117.01742
33
-590.505
0
3DFACE
8
0
10
152.80205
20
-106.53697
30
-565.4462
11
114.23624
21
-117.01752
31
-590.5051
12
129.30098
22
-102.58789
32
-603.48395
13
129.30109
23
-102.58779
33
-603.4838
0
3DFACE
8
0
10
152.80205
20
-106.53697
30
-565.4462
11
129.30098
21
-102.58789
31
-603.48395
12
145.86746
22
-93.28497
32
-603.295
13
145.86757
23
-93.284874
33
-603.29486
0
3DFACE
8
0
10
109.16928
20
-128.43594
30
-571.6781
11
130.90843
21
-122.75204
31
-557.0595
12
90.353195
22
-113.07246
32
-513.3856
13
90.353294
23
-113.07236
33
-513.3855
0
3DFACE
8
0
10
109.16928
20
-128.43594
30
-571.6781
11
90.353195
21
-113.07246
31
-513.3856
12
85.96466
22
-117.22241
32
-526.839
13
85.96476
23
-117.22231
33
-526.83887
0
3DFACE
8
0
10
109.16928
20
-128.43594
30
-571.6781
11
85.96466
21
-117.22241
31
-526.839
12
96.340164
22
-125.69411
32
-558.9824
13
96.34026
23
-125.69401
33
-558.9823
0
3DFACE
8
0
10
90.353195
20
-113.07246
30
-513.3856
11
130.90843
21
-122.75204
31
-557.0595
12
120.53293
22
-114.28036
32
-524.9161
13
120.53303
23
-114.28026
33
-524.91595
0
3DFACE
8
0
10
87.43014
20
-134.11981
30
-586.29675
11
109.16928
21
-128.43594
31
-571.6781
12
96.340164
22
-125.69411
32
-558.9824
13
96.34026
23
-125.69401
33
-558.9823
0
3DFACE
8
0
10
87.43014
20
-134.11981
30
-586.29675
11
96.340164
21
-125.69411
31
-558.9824
12
59.24205
22
-124.20928
32
-544.8088
13
59.24215
23
-124.20918
33
-544.80865
0
3DFACE
8
0
10
87.43014
20
-134.11981
30
-586.29675
11
59.24205
21
-124.20928
31
-544.8088
12
41.891426
22
-125.74319
32
-545.97406
13
41.891525
23
-125.74309
33
-545.97394
0
3DFACE
8
0
10
87.43014
20
-134.11981
30
-586.29675
11
41.891426
21
-125.74319
31
-545.97406
12
50.332016
22
-132.63501
32
-572.1231
13
50.332115
23
-132.6349
33
-572.123
0
3DFACE
8
0
10
59.24205
20
-124.20928
30
-544.8088
11
85.96466
21
-117.22241
31
-526.839
12
60.17346
22
-111.86453
32
-501.85522
13
60.173557
23
-111.86443
33
-501.85513
0
3DFACE
8
0
10
59.24205
20
-124.20928
30
-544.8088
11
60.17346
21
-111.86453
31
-501.85522
12
33.450844
22
-118.85139
32
-519.825
13
33.450943
23
-118.85129
33
-519.8249
0
3DFACE
8
0
10
59.24205
20
-124.20928
30
-544.8088
11
33.450844
21
-118.85139
31
-519.825
12
41.891426
22
-125.74319
32
-545.97406
13
41.891525
23
-125.74309
33
-545.97394
0
3DFACE
8
0
10
60.17346
20
-111.86453
30
-501.85522
11
85.96466
21
-117.22241
31
-526.839
12
90.353195
22
-113.07246
32
-513.3856
13
90.353294
23
-113.07236
33
-513.3855
0
3DFACE
8
0
10
12.172676
20
-69.08088
30
-516.3443
11
36.893295
21
-114.66778
31
-543.9703
12
36.410988
22
-121.26837
32
-528.99554
13
36.411087
23
-121.26827
33
-528.9954
0
3DFACE
8
0
10
12.172676
20
-69.08088
30
-516.3443
11
36.410988
21
-121.26837
31
-528.99554
12
11.690374
22
-75.68147
32
-501.36957
13
11.6904745
23
-75.68137
33
-501.36948
0
3DFACE
8
0
10
12.172676
20
-69.08088
30
-516.3443
11
11.690374
21
-75.68147
31
-501.36957
12
7.011591
22
-61.421825
32
-506.9948
13
7.011691
23
-61.421726
33
-506.99472
0
3DFACE
8
0
10
36.410988
20
-121.26837
30
-528.99554
11
36.893295
21
-114.66778
31
-543.9703
12
41.89143
22
-125.74319
32
-545.97406
13
41.89153
23
-125.74309
33
-545.97394
0
3DFACE
8
0
10
25.827675
20
-76.78532
30
-565.2873
11
35.9869
21
-95.51978
31
-576.6405
12
41.89143
22
-125.74319
32
-545.97406
13
41.89153
23
-125.74309
33
-545.97394
0
3DFACE
8
0
10
25.827675
20
-76.78532
30
-565.2873
11
41.89143
21
-125.74319
31
-545.97406
12
36.893295
22
-114.66778
32
-543.9703
13
36.893394
23
-114.66768
33
-543.97015
0
3DFACE
8
0
10
25.827675
20
-76.78532
30
-565.2873
11
36.893295
21
-114.66778
31
-543.9703
12
25.508324
22
-79.96955
32
-557.65826
13
25.508423
23
-79.96945
33
-557.65814
0
3DFACE
8
0
10
41.89143
20
-125.74319
30
-545.97406
11
35.9869
21
-95.51978
31
-576.6405
12
47.371872
22
-130.21802
32
-562.9525
13
47.37197
23
-130.21791
33
-562.9524
0
3DFACE
8
0
10
25.827675
20
-76.78532
30
-565.2873
11
25.508324
21
-79.96955
31
-557.65826
12
15.6684475
22
-58.050854
32
-553.9341
13
15.668548
23
-58.050755
33
-553.93396
0
3DFACE
8
0
10
12.172676
20
-69.08088
30
-516.3443
11
15.6684475
21
-58.050854
31
-553.9341
12
25.508324
22
-79.96955
32
-557.65826
13
25.508423
23
-79.96945
33
-557.65814
0
3DFACE
8
0
10
15.6684475
20
-58.050854
30
-553.9341
11
12.172676
21
-69.08088
31
-516.3443
12
2.332798
22
-47.162186
32
-512.62006
13
2.332898
23
-47.162086
33
-512.61993
0
3DFACE
8
0
10
7.011591
20
-61.421825
30
-506.9948
11
2.332798
21
-47.162186
31
-512.62006
12
12.172676
22
-69.08088
32
-516.3443
13
12.172776
23
-69.08078
33
-516.3442
0
3DFACE
8
0
10
24.923962
20
-94.93682
30
-475.58658
11
26.326744
21
-83.21826
31
-466.4085
12
13.942154
22
-82.54427
32
-498.66226
13
13.942254
23
-82.544174
33
-498.66217
0
3DFACE
8
0
10
21.289646
20
-73.14458
30
-474.93674
11
13.942154
21
-82.54427
31
-498.66226
12
26.326744
22
-83.21826
32
-466.4085
13
26.326843
23
-83.21816
33
-466.40842
0
3DFACE
8
0
10
13.942154
20
-82.54427
30
-498.66226
11
21.289646
21
-73.14458
31
-474.93674
12
7.011591
22
-61.421825
32
-506.9948
13
7.011691
23
-61.421726
33
-506.99472
0
3DFACE
8
0
10
10.30785
20
-60.752014
30
-498.01245
11
7.011591
21
-61.421825
31
-506.9948
12
21.289646
22
-73.14458
32
-474.93674
13
21.289745
23
-73.14448
33
-474.93665
0
3DFACE
8
0
10
0.081020355
20
-40.29938
30
-515.32733
11
7.011591
21
-61.421825
31
-506.9948
12
12.156456
22
-45.30916
32
-485.91745
13
12.156556
23
-45.30906
33
-485.91736
0
3DFACE
8
0
10
0.081020355
20
-40.29938
30
-515.32733
11
12.156456
21
-45.30916
31
-485.91745
12
10.262985
22
-34.26039
32
-485.72174
13
10.263085
23
-34.260292
33
-485.72165
0
3DFACE
8
0
10
0.081020355
20
-40.29938
30
-515.32733
11
10.262985
21
-34.26039
31
-485.72174
12
1.9296303
22
-24.856514
32
-503.23236
13
1.9297303
23
-24.856415
33
-503.23227
0
3DFACE
8
0
10
12.156456
20
-45.30916
30
-485.91745
11
7.011591
21
-61.421825
31
-506.9948
12
10.30785
22
-60.752014
32
-498.01245
13
10.30795
23
-60.751915
33
-498.01236
0
3DFACE
8
0
10
26.326744
20
-83.21826
30
-466.4085
11
27.729534
21
-71.49969
31
-457.2304
12
21.289646
22
-73.14458
32
-474.93674
13
21.289745
23
-73.14448
33
-474.93665
0
3DFACE
8
0
10
18.59634
20
-43.664276
30
-468.21112
11
21.289646
21
-73.14458
31
-474.93674
12
27.729534
22
-71.49969
32
-457.2304
13
27.729633
23
-71.49959
33
-457.23032
0
3DFACE
8
0
10
21.289646
20
-73.14458
30
-474.93674
11
18.59634
21
-43.664276
31
-468.21112
12
12.156456
22
-45.30916
32
-485.91745
13
12.156556
23
-45.30906
33
-485.91736
0
3DFACE
8
0
10
10.262985
20
-34.26039
30
-485.72174
11
12.156456
21
-45.30916
31
-485.91745
12
18.59634
22
-43.664276
32
-468.21112
13
18.59644
23
-43.664177
33
-468.21103
0
3DFACE
8
0
10
178.60239
20
32.141563
30
-659.4633
11
162.53732
21
-5.0245647
31
-662.36487
12
147.7109
22
-0.34176636
32
-664.9788
13
147.71101
23
-0.34166637
33
-664.9787
0
3DFACE
8
0
10
178.60239
20
32.141563
30
-659.4633
11
147.7109
21
-0.34176636
31
-664.9788
12
136.59998
22
19.427767
32
-666.91113
13
136.60008
23
19.427866
33
-666.911
0
3DFACE
8
0
10
178.60239
20
32.141563
30
-659.4633
11
136.59998
21
19.427767
31
-666.91113
12
136.99466
22
40.42318
32
-666.80695
13
136.99477
23
40.42328
33
-666.8068
0
3DFACE
8
0
10
178.60239
20
32.141563
30
-659.4633
11
136.99466
21
40.42318
31
-666.80695
12
167.49146
22
51.911095
32
-661.3956
13
167.49156
23
51.911194
33
-661.3955
0
3DFACE
8
0
10
136.59998
20
19.427767
30
-666.91113
11
124.231575
21
-9.186262
31
-669.14496
12
94.129456
22
0.3212347
32
-674.45215
13
94.129555
23
0.3213347
33
-674.452
0
3DFACE
8
0
10
136.59998
20
19.427767
30
-666.91113
11
94.129456
21
0.3212347
31
-674.45215
12
106.49786
22
28.935265
32
-672.21826
13
106.49796
23
28.935364
33
-672.21814
0
3DFACE
8
0
10
136.59998
20
19.427767
30
-666.91113
11
106.49786
21
28.935265
31
-672.21826
12
136.99466
22
40.42318
32
-666.80695
13
136.99477
23
40.42328
33
-666.8068
0
3DFACE
8
0
10
94.129456
20
0.3212347
30
-674.45215
11
124.231575
21
-9.186262
31
-669.14496
12
108.5612
22
-25.356981
32
-671.9423
13
108.5613
23
-25.356882
33
-671.9422
0
3DFACE
8
0
10
162.53732
20
-5.0245647
30
-662.36487
11
146.47226
21
-42.1907
31
-665.26636
12
108.5612
22
-25.356981
32
-671.9423
13
108.5613
23
-25.356882
33
-671.9422
0
3DFACE
8
0
10
162.53732
20
-5.0245647
30
-662.36487
11
108.5612
21
-25.356981
31
-671.9423
12
124.231575
22
-9.186262
32
-669.14496
13
124.231674
23
-9.186162
33
-669.14484
0
3DFACE
8
0
10
162.53732
20
-5.0245647
30
-662.36487
11
124.231575
21
-9.186262
31
-669.14496
12
147.7109
22
-0.34176636
32
-664.9788
13
147.71101
23
-0.34166637
33
-664.9787
0
3DFACE
8
0
10
108.5612
20
-25.356981
30
-671.9423
11
146.47226
21
-42.1907
31
-665.26636
12
122.99292
22
-51.035194
32
-669.4325
13
122.99302
23
-51.035095
33
-669.4324
0
3DFACE
8
0
10
122.05492
20
-49.366196
30
-669.59564
11
116.79265
21
-87.38609
31
-652.586
12
108.5612
22
-25.356981
32
-671.9423
13
108.5613
23
-25.356882
33
-671.9422
0
3DFACE
8
0
10
97.405685
20
-105.9557
30
-635.88336
11
108.5612
21
-25.356981
31
-671.9423
12
116.79265
22
-87.38609
32
-652.586
13
116.79275
23
-87.385994
33
-652.5859
0
3DFACE
8
0
10
108.5612
20
-25.356981
30
-671.9423
11
97.405685
21
-105.9557
31
-635.88336
12
100.15979
22
-45.961746
32
-659.9537
13
100.15989
23
-45.961647
33
-659.95355
0
3DFACE
8
0
10
94.89753
20
-83.98165
30
-642.94403
11
100.15979
21
-45.961746
31
-659.9537
12
97.405685
22
-105.9557
32
-635.88336
13
97.405785
23
-105.955605
33
-635.88324
0
3DFACE
8
0
10
77.75626
20
-17.92913
30
-659.37476
11
95.06747
21
-1.3477688
31
-674.289
12
100.15979
22
-45.961746
32
-659.9537
13
100.15989
23
-45.961647
33
-659.95355
0
3DFACE
8
0
10
77.75626
20
-17.92913
30
-659.37476
11
100.15979
21
-45.961746
31
-659.9537
12
82.84859
22
-62.54311
32
-645.0394
13
82.84869
23
-62.54301
33
-645.0393
0
3DFACE
8
0
10
77.75626
20
-17.92913
30
-659.37476
11
82.84859
21
-62.54311
31
-645.0394
12
71.86302
22
-60.507954
32
-640.32544
13
71.86312
23
-60.507854
33
-640.3253
0
3DFACE
8
0
10
100.15979
20
-45.961746
30
-659.9537
11
95.06747
21
-1.3477688
31
-674.289
12
108.5612
22
-25.356981
32
-671.9423
13
108.5613
23
-25.356882
33
-671.9422
0
3DFACE
8
0
10
94.89753
20
-83.98165
30
-642.94403
11
97.405685
21
-105.9557
31
-635.88336
12
82.84859
22
-62.54311
32
-645.0394
13
82.84869
23
-62.54301
33
-645.0393
0
3DFACE
8
0
10
78.01872
20
-124.525314
30
-619.1808
11
82.84859
21
-62.54311
31
-645.0394
12
97.405685
22
-105.9557
32
-635.88336
13
97.405785
23
-105.955605
33
-635.88324
0
3DFACE
8
0
10
82.84859
20
-62.54311
30
-645.0394
11
78.01872
21
-124.525314
31
-619.1808
12
71.86302
22
-60.507954
32
-640.32544
13
71.86312
23
-60.507854
33
-640.3253
0
3DFACE
8
0
10
65.96977
20
-103.086784
30
-621.2762
11
71.86302
21
-60.507954
31
-640.32544
12
78.01872
22
-124.525314
32
-619.1808
13
78.01882
23
-124.525215
33
-619.18066
0
3DFACE
8
0
10
23.806908
20
8.271575
30
-486.07404
11
40.538033
21
18.829655
31
-465.58774
12
28.995998
22
24.74139
32
-508.26395
13
28.996098
23
24.74149
33
-508.26385
0
3DFACE
8
0
10
55.94736
20
47.538055
30
-487.78656
11
28.995998
21
24.74139
31
-508.26395
12
40.538033
22
18.829655
32
-465.58774
13
40.53813
23
18.829754
33
-465.58765
0
3DFACE
8
0
10
28.995998
20
24.74139
30
-508.26395
11
55.94736
21
47.538055
31
-487.78656
12
44.405327
22
53.4498
32
-530.46277
13
44.405426
23
53.449898
33
-530.46265
0
3DFACE
8
0
10
55.20185
20
66.76205
30
-531.3019
11
44.405327
21
53.4498
31
-530.46277
12
55.94736
22
47.538055
32
-487.78656
13
55.94746
23
47.538155
33
-487.78647
0
3DFACE
8
0
10
6.3571587
20
16.24444
30
-548.5069
11
7.075783
21
-2.2865067
31
-506.5603
12
23.806908
22
8.271575
32
-486.07404
13
23.807007
23
8.271675
33
-486.07394
0
3DFACE
8
0
10
6.3571587
20
16.24444
30
-548.5069
11
23.806908
21
8.271575
31
-486.07404
12
28.995998
22
24.74139
32
-508.26395
13
28.996098
23
24.74149
33
-508.26385
0
3DFACE
8
0
10
6.3571587
20
16.24444
30
-548.5069
11
28.995998
21
24.74139
31
-508.26395
12
28.27737
22
43.272343
32
-550.2105
13
28.27747
23
43.27244
33
-550.2104
0
3DFACE
8
0
10
6.3571587
20
16.24444
30
-548.5069
11
28.27737
21
43.272343
31
-550.2105
12
22.342773
22
46.02651
32
-571.5359
13
22.342873
23
46.026608
33
-571.53577
0
3DFACE
8
0
10
28.27737
20
43.272343
30
-550.2105
11
44.405327
21
53.4498
31
-530.46277
12
22.342773
22
46.02651
32
-571.5359
13
22.342873
23
46.026608
33
-571.53577
0
3DFACE
8
0
10
55.20185
20
66.76205
30
-531.3019
11
22.342773
21
46.02651
31
-571.5359
12
44.405327
22
53.4498
32
-530.46277
13
44.405426
23
53.449898
33
-530.46265
0
3DFACE
8
0
10
22.342773
20
46.02651
30
-571.5359
11
55.20185
21
66.76205
31
-531.3019
12
38.32839
22
75.808586
32
-594.56494
13
38.328487
23
75.808685
33
-594.5648
0
3DFACE
8
0
10
54.456345
20
85.98603
30
-574.8172
11
38.32839
21
75.808586
31
-594.56494
12
55.20185
22
66.76205
32
-531.3019
13
55.20195
23
66.762146
33
-531.30176
0
3DFACE
8
0
10
39.237797
20
17.910282
30
-603.3525
11
36.983177
21
3.8134055
31
-601.34625
12
30.729855
22
42.441467
32
-586.02893
13
30.729954
23
42.441566
33
-586.0288
0
3DFACE
8
0
10
17.700222
20
-3.0047402
30
-569.9148
11
30.729855
21
42.441467
31
-586.02893
12
36.983177
22
3.8134055
32
-601.34625
13
36.983276
23
3.8135054
33
-601.3461
0
3DFACE
8
0
10
30.729855
20
42.441467
30
-586.02893
11
17.700222
21
-3.0047402
31
-569.9148
12
22.34277
22
46.026512
32
-571.5359
13
22.342869
23
46.02661
33
-571.53577
0
3DFACE
8
0
10
9.192286
20
21.526447
30
-552.5912
11
22.34277
21
46.026512
31
-571.5359
12
17.700222
22
-3.0047402
32
-569.9148
13
17.700321
23
-3.0046403
33
-569.9147
0
3DFACE
8
0
10
57.48225
20
51.90069
30
-629.6356
11
68.37811
21
62.30388
31
-646.5741
12
56.26613
22
10.631552
32
-632.7777
13
56.266228
23
10.631652
33
-632.7776
0
3DFACE
8
0
10
57.48225
20
51.90069
30
-629.6356
11
56.26613
21
10.631552
31
-632.7777
12
36.983177
22
3.8134055
32
-601.34625
13
36.983276
23
3.8135054
33
-601.3461
0
3DFACE
8
0
10
57.48225
20
51.90069
30
-629.6356
11
36.983177
21
3.8134055
31
-601.34625
12
39.237797
22
17.910282
32
-603.3525
13
39.237896
23
17.910381
33
-603.35236
0
3DFACE
8
0
10
56.26613
20
10.631552
30
-632.7777
11
68.37811
21
62.30388
31
-646.5741
12
74.510574
22
44.621956
32
-659.0608
13
74.51067
23
44.622055
33
-659.06067
0
3DFACE
8
0
10
35.49326
20
70.52658
30
-590.48065
11
62.245647
21
79.9858
31
-634.08734
12
57.48225
22
51.90069
32
-629.6356
13
57.48235
23
51.900787
33
-629.6355
0
3DFACE
8
0
10
35.49326
20
70.52658
30
-590.48065
11
57.48225
21
51.90069
31
-629.6356
12
30.729855
22
42.441467
32
-586.02893
13
30.729954
23
42.441566
33
-586.0288
0
3DFACE
8
0
10
35.49326
20
70.52658
30
-590.48065
11
30.729855
21
42.441467
31
-586.02893
12
22.34277
22
46.026512
32
-571.5359
13
22.342869
23
46.02661
33
-571.53577
0
3DFACE
8
0
10
57.48225
20
51.90069
30
-629.6356
11
62.245647
21
79.9858
31
-634.08734
12
68.37811
22
62.30388
32
-646.5741
13
68.37821
23
62.303978
33
-646.574
0
3DFACE
8
0
10
16.491924
20
-3.4319735
30
-567.94525
11
36.983177
21
3.8134055
31
-601.34625
12
34.27807
22
-62.19647
32
-581.7668
13
34.278168
23
-62.19637
33
-581.76666
0
3DFACE
8
0
10
16.491924
20
-3.4319735
30
-567.94525
11
34.27807
21
-62.19647
31
-581.7668
12
25.827673
22
-76.78532
32
-565.2873
13
25.827772
23
-76.78522
33
-565.2872
0
3DFACE
8
0
10
16.491924
20
-3.4319735
30
-567.94525
11
25.827673
21
-76.78532
31
-565.2873
12
10.301962
22
-48.154602
32
-547.9369
13
10.302062
23
-48.154503
33
-547.93677
0
3DFACE
8
0
10
34.27807
20
-62.19647
30
-581.7668
11
36.983177
21
3.8134055
31
-601.34625
12
40.468033
22
-17.47384
32
-601.7752
13
40.468132
23
-17.473742
33
-601.7751
0
3DFACE
8
0
10
71.86302
20
-60.50795
30
-640.32544
11
66.89748
21
-96.38405
31
-624.2749
12
59.822163
22
-53.164482
32
-623.404
13
59.82226
23
-53.164383
33
-623.4039
0
3DFACE
8
0
10
41.353382
20
-105.41602
30
-582.6377
11
59.822163
21
-53.164482
31
-623.404
12
66.89748
22
-96.38405
32
-624.2749
13
66.897575
23
-96.38395
33
-624.2748
0
3DFACE
8
0
10
59.822163
20
-53.164482
30
-623.404
11
41.353382
21
-105.41602
31
-582.6377
12
34.27807
22
-62.19647
32
-581.7668
13
34.278168
23
-62.19637
33
-581.76666
0
3DFACE
8
0
10
25.827673
20
-76.78532
30
-565.2873
11
34.27807
21
-62.19647
31
-581.7668
12
41.353382
22
-105.41602
32
-582.6377
13
41.35348
23
-105.415924
33
-582.6376
0
3DFACE
8
0
10
57.474426
20
11.058785
30
-634.7472
11
76.82855
21
-24.631853
31
-656.37604
12
71.86302
22
-60.50795
32
-640.32544
13
71.86312
23
-60.50785
33
-640.3253
0
3DFACE
8
0
10
57.474426
20
11.058785
30
-634.7472
11
71.86302
21
-60.50795
31
-640.32544
12
59.822163
22
-53.164482
32
-623.404
13
59.82226
23
-53.164383
33
-623.4039
0
3DFACE
8
0
10
57.474426
20
11.058785
30
-634.7472
11
59.822163
21
-53.164482
31
-623.404
12
40.468033
22
-17.47384
32
-601.7752
13
40.468132
23
-17.473742
33
-601.7751
0
3DFACE
8
0
10
57.474426
20
11.058785
30
-634.7472
11
40.468033
21
-17.47384
31
-601.7752
12
36.983177
22
3.8134055
32
-601.34625
13
36.983276
23
3.8135054
33
-601.3461
0
3DFACE
8
0
10
10.262985
20
-34.26039
30
-485.72174
11
17.503479
21
-24.38846
31
-479.49878
12
1.130146
22
-23.954323
32
-504.9123
13
1.130246
23
-23.954224
33
-504.9122
0
3DFACE
8
0
10
24.64338
20
-1.9670048
30
-479.6845
11
1.130146
21
-23.954323
31
-504.9123
12
17.503479
22
-24.38846
32
-479.49878
13
17.503578
23
-24.388361
33
-479.4987
0
3DFACE
8
0
10
1.130146
20
-23.954323
30
-504.9123
11
24.64338
21
-1.9670048
31
-479.6845
12
8.270054
22
-1.5328684
32
-505.09802
13
8.270154
23
-1.5327684
33
-505.09793
0
3DFACE
8
0
10
23.806908
20
8.271575
30
-486.07404
11
8.270054
21
-1.5328684
31
-505.09802
12
24.64338
22
-1.9670048
32
-479.6845
13
24.643478
23
-1.9669048
33
-479.68442
0
3DFACE
8
0
10
24.64338
20
-1.9670048
30
-479.6845
11
34.8257
21
-13.457365
31
-458.28876
12
49.526073
22
6.585657
32
-445.6543
13
49.526173
23
6.5857573
33
-445.6542
0
3DFACE
8
0
10
24.64338
20
-1.9670048
30
-479.6845
11
49.526073
21
6.585657
31
-445.6543
12
39.34376
22
18.076015
32
-467.05005
13
39.34386
23
18.076115
33
-467.04996
0
3DFACE
8
0
10
24.64338
20
-1.9670048
30
-479.6845
11
39.34376
21
18.076015
31
-467.05005
12
23.806908
22
8.271575
32
-486.07404
13
23.807007
23
8.271675
33
-486.07394
0
3DFACE
8
0
10
49.526073
20
6.585657
30
-445.6543
11
34.8257
21
-13.457365
31
-458.28876
12
43.122063
22
-13.524857
32
-445.48773
13
43.12216
23
-13.524756
33
-445.48764
0
3DFACE
8
0
10
19.395836
20
-44.566467
30
-466.5312
11
36.718056
21
-33.63537
31
-445.32114
12
10.262985
22
-34.26039
32
-485.72174
13
10.263085
23
-34.260292
33
-485.72165
0
3DFACE
8
0
10
43.122063
20
-13.524857
30
-445.48773
11
10.262985
21
-34.26039
31
-485.72174
12
36.718056
22
-33.63537
32
-445.32114
13
36.718155
23
-33.63527
33
-445.32104
0
3DFACE
8
0
10
10.262985
20
-34.26039
30
-485.72174
11
43.122063
21
-13.524857
31
-445.48773
12
17.503479
22
-24.38846
32
-479.49878
13
17.503578
23
-24.388361
33
-479.4987
0
3DFACE
8
0
10
34.8257
20
-13.457365
30
-458.28876
11
17.503479
21
-24.38846
31
-479.49878
12
43.122063
22
-13.524857
32
-445.48773
13
43.12216
23
-13.524756
33
-445.48764
0
3DFACE
8
0
10
121.471085
20
59.617607
30
-665.73157
11
107.815796
21
59.280884
31
-667.4194
12
149.10571
22
70.02735
32
-660.8281
13
149.10582
23
70.02745
33
-660.828
0
3DFACE
8
0
10
119.917404
20
78.4065
30
-663.04425
11
149.10571
21
70.02735
31
-660.8281
12
107.815796
22
59.280884
32
-667.4194
13
107.815895
23
59.280983
33
-667.41925
0
3DFACE
8
0
10
149.10571
20
70.02735
30
-660.8281
11
119.917404
21
78.4065
31
-663.04425
12
161.79193
22
79.61329
32
-657.8419
13
161.79204
23
79.61339
33
-657.8418
0
3DFACE
8
0
10
147.55202
20
88.81625
30
-658.1408
11
161.79193
21
79.61329
31
-657.8419
12
119.917404
22
78.4065
32
-663.04425
13
119.9175
23
78.4066
33
-663.0441
0
3DFACE
8
0
10
136.41003
20
49.962868
30
-665.418
11
136.99466
21
40.42318
31
-666.80695
12
95.714195
22
40.155266
32
-671.7945
13
95.714294
23
40.155365
33
-671.7944
0
3DFACE
8
0
10
136.41003
20
49.962868
30
-665.418
11
95.714195
21
40.155266
31
-671.7945
12
107.815796
22
59.280884
32
-667.4194
13
107.815895
23
59.280983
33
-667.41925
0
3DFACE
8
0
10
136.41003
20
49.962868
30
-665.418
11
107.815796
21
59.280884
31
-667.4194
12
121.471085
22
59.617607
32
-665.73157
13
121.47118
23
59.617706
33
-665.73145
0
3DFACE
8
0
10
95.714195
20
40.155266
30
-671.7945
11
136.99466
21
40.42318
31
-666.80695
12
110.65314
22
30.500526
32
-671.48096
13
110.65324
23
30.500626
33
-671.48083
0
3DFACE
8
0
10
176.03185
20
70.410324
30
-657.543
11
163.33617
21
50.345833
31
-662.13293
12
136.41003
22
49.962868
32
-665.418
13
136.41014
23
49.962967
33
-665.4179
0
3DFACE
8
0
10
176.03185
20
70.410324
30
-657.543
11
136.41003
21
49.962868
31
-665.418
12
149.10571
22
70.02735
32
-660.8281
13
149.10582
23
70.02745
33
-660.828
0
3DFACE
8
0
10
176.03185
20
70.410324
30
-657.543
11
149.10571
21
70.02735
31
-660.8281
12
161.79193
22
79.61329
32
-657.8419
13
161.79204
23
79.61339
33
-657.8418
0
3DFACE
8
0
10
136.41003
20
49.962868
30
-665.418
11
163.33617
21
50.345833
31
-662.13293
12
136.99466
22
40.42318
32
-666.80695
13
136.99477
23
40.42328
33
-666.8068
0
3DFACE
8
0
10
107.815796
20
59.280884
30
-667.4194
11
95.68938
21
40.11605
31
-671.80347
12
98.895966
22
66.59574
32
-659.14276
13
98.896065
23
66.59584
33
-659.14264
0
3DFACE
8
0
10
75.5376
20
41.66074
30
-661.152
11
98.895966
21
66.59574
31
-659.14276
12
95.68938
22
40.11605
32
-671.80347
13
95.689476
23
40.11615
33
-671.80334
0
3DFACE
8
0
10
98.895966
20
66.59574
30
-659.14276
11
75.5376
21
41.66074
31
-661.152
12
78.74417
22
68.14043
32
-648.4913
13
78.74427
23
68.140526
33
-648.49115
0
3DFACE
8
0
10
68.37811
20
62.30388
30
-646.5741
11
78.74417
21
68.14043
31
-648.4913
12
75.5376
22
41.66074
32
-661.152
13
75.5377
23
41.66084
33
-661.15186
0
3DFACE
8
0
10
112.46129
20
100.01568
30
-647.80286
11
119.94221
21
78.44571
31
-663.0353
12
107.815796
22
59.280884
32
-667.4194
13
107.815895
23
59.280983
33
-667.41925
0
3DFACE
8
0
10
112.46129
20
100.01568
30
-647.80286
11
107.815796
21
59.280884
31
-667.4194
12
98.895966
22
66.59574
32
-659.14276
13
98.896065
23
66.59584
33
-659.14264
0
3DFACE
8
0
10
112.46129
20
100.01568
30
-647.80286
11
98.895966
21
66.59574
31
-659.14276
12
91.41504
22
88.1657
32
-643.91034
13
91.41514
23
88.1658
33
-643.9102
0
3DFACE
8
0
10
112.46129
20
100.01568
30
-647.80286
11
91.41504
21
88.1657
31
-643.91034
12
93.175385
22
101.49399
32
-637.6091
13
93.17548
23
101.49409
33
-637.60895
0
3DFACE
8
0
10
91.41504
20
88.1657
30
-643.91034
11
78.74417
21
68.14043
31
-648.4913
12
93.175385
22
101.49399
32
-637.6091
13
93.17548
23
101.49409
33
-637.60895
0
3DFACE
8
0
10
68.37811
20
62.30388
30
-646.5741
11
93.175385
21
101.49399
31
-637.6091
12
78.74417
22
68.14043
32
-648.4913
13
78.74427
23
68.140526
33
-648.49115
0
3DFACE
8
0
10
93.175385
20
101.49399
30
-637.6091
11
68.37811
21
62.30388
31
-646.5741
12
73.889496
22
102.97229
32
-627.4152
13
73.889595
23
102.97239
33
-627.4151
0
3DFACE
8
0
10
61.218636
20
82.947014
30
-631.99615
11
73.889496
21
102.97229
31
-627.4152
12
68.37811
22
62.30388
32
-646.5741
13
68.37821
23
62.303978
33
-646.574
0
ENDSEC
0
EOF
