0
SECTION
2
ENTITIES
0
3DFACE
8
0
10
31.88884
20
824.47644
30
-2170.2046
11
42.96224
21
895.02704
31
-2202.3584
12
58.59053
22
888.2095
32
-2192.1487
13
58.59063
23
888.2096
33
-2192.1487
0
3DFACE
8
0
10
42.96224
20
895.02704
30
-2202.3584
11
31.88884
21
824.47644
31
-2170.2046
12
35.323418
22
860.49
32
-2191.7107
13
35.323517
23
860.4901
33
-2191.7107
0
3DFACE
8
0
10
35.323418
20
860.49
30
-2191.7107
11
70.88185
21
886.7575
31
-2182.719
12
42.96224
22
895.02704
32
-2202.3584
13
42.962337
23
895.02716
33
-2202.3584
0
3DFACE
8
0
10
70.88185
20
886.7575
30
-2182.719
11
35.323418
21
860.49
31
-2191.7107
12
83.91954
22
894.5364
32
-2184.0137
13
83.91964
23
894.5365
33
-2184.0137
0
3DFACE
8
0
10
83.91954
20
894.5364
30
-2184.0137
11
64.00284
21
864.4385
31
-2177.5557
12
70.88185
22
886.7575
32
-2182.719
13
70.88195
23
886.7576
33
-2182.719
0
3DFACE
8
0
10
-967.9674
20
-138.2022
30
-2342.499
11
-938.4487
21
-89.3133
31
-2359.4512
12
-969.8814
22
-112.4698
32
-2398.0872
13
-969.8813
23
-112.4697
33
-2398.0872
0
3DFACE
8
0
10
-938.4487
20
-89.3133
30
-2359.4512
11
-967.9674
21
-138.2022
31
-2342.499
12
-954.2382
22
-125.72023
32
-2403.838
13
-954.2381
23
-125.72013
33
-2403.838
0
3DFACE
8
0
10
-954.2382
20
-125.72023
30
-2403.838
11
-961.2397
21
-98.53633
31
-2348.9756
12
-938.4487
22
-89.3133
32
-2359.4512
13
-938.4486
23
-89.3132
33
-2359.4512
0
3DFACE
8
0
10
-961.2397
20
-98.53633
30
-2348.9756
11
-954.2382
21
-125.72023
31
-2403.838
12
-950.2908
22
-138.8197
32
-2376.485
13
-950.29065
23
-138.8196
33
-2376.485
0
3DFACE
8
0
10
-950.2908
20
-138.8197
30
-2376.485
11
-972.8529
21
-154.53607
31
-2352.3887
12
-961.2397
22
-98.53633
32
-2348.9756
13
-961.23956
23
-98.53623
33
-2348.9756
0
3DFACE
8
0
10
373.93475
20
-79.19225
30
-2518.4053
11
399.04092
21
-77.70772
31
-2503.5728
12
342.8599
22
-62.988823
32
-2494.079
13
342.86
23
-62.988724
33
-2494.079
0
3DFACE
8
0
10
399.04092
20
-77.70772
30
-2503.5728
11
373.93475
21
-79.19225
31
-2518.4053
12
393.7108
22
-70.43003
32
-2485.6147
13
393.71088
23
-70.42993
33
-2485.6147
0
3DFACE
8
0
10
393.7108
20
-70.43003
30
-2485.6147
11
385.41913
21
-70.601105
31
-2485.695
12
399.04092
22
-77.70772
32
-2503.5728
13
399.04102
23
-77.70762
33
-2503.5728
0
3DFACE
8
0
10
385.41913
20
-70.601105
30
-2485.695
11
393.7108
21
-70.43003
31
-2485.6147
12
342.09363
22
-78.4539
32
-2531.317
13
342.09372
23
-78.453804
33
-2531.317
0
3DFACE
8
0
10
342.09363
20
-78.4539
30
-2531.317
11
386.79233
21
-50.386196
31
-2510.0063
12
385.41913
22
-70.601105
32
-2485.695
13
385.41922
23
-70.601006
33
-2485.695
0
3DFACE
8
0
10
-610.56915
20
-259.94376
30
-2555.187
11
-605.2299
21
-247.87314
31
-2550.2527
12
-609.0599
22
-248.07736
32
-2558.2085
13
-609.05975
23
-248.07726
33
-2558.2085
0
3DFACE
8
0
10
-605.2299
20
-247.87314
30
-2550.2527
11
-610.56915
21
-259.94376
31
-2555.187
12
-616.06976
22
-250.2329
32
-2551.974
13
-616.06964
23
-250.23279
33
-2551.974
0
3DFACE
8
0
10
-616.06976
20
-250.2329
30
-2551.974
11
-605.6641
21
-259.14142
31
-2557.3984
12
-605.2299
22
-247.87314
32
-2550.2527
13
-605.2298
23
-247.87303
33
-2550.2527
0
3DFACE
8
0
10
-605.6641
20
-259.14142
30
-2557.3984
11
-616.06976
21
-250.2329
31
-2551.974
12
-612.462
22
-255.83359
32
-2560.9243
13
-612.46185
23
-255.83348
33
-2560.9243
0
3DFACE
8
0
10
-612.462
20
-255.83359
30
-2560.9243
11
-603.7268
21
-246.7723
31
-2551.4436
12
-605.6641
22
-259.14142
32
-2557.3984
13
-605.664
23
-259.14133
33
-2557.3984
0
3DFACE
8
0
10
4.296959
20
-77.4229
30
-2625.8894
11
40.393166
21
-53.125645
31
-2639.5718
12
30.988022
22
-45.82266
32
-2639.3374
13
30.988121
23
-45.82256
33
-2639.3374
0
3DFACE
8
0
10
40.393166
20
-53.125645
30
-2639.5718
11
4.296959
21
-77.4229
31
-2625.8894
12
28.73367
22
-40.73788
32
-2640.3298
13
28.733768
23
-40.73778
33
-2640.3298
0
3DFACE
8
0
10
28.73367
20
-40.73788
30
-2640.3298
11
1.3218002
21
-72.52332
31
-2653.2722
12
40.393166
22
-53.125645
32
-2639.5718
13
40.393265
23
-53.125546
33
-2639.5718
0
3DFACE
8
0
10
1.3218002
20
-72.52332
30
-2653.2722
11
28.73367
21
-40.73788
31
-2640.3298
12
20.031006
22
-54.585686
32
-2603.4211
13
20.031105
23
-54.585587
33
-2603.4211
0
3DFACE
8
0
10
20.031006
20
-54.585686
30
-2603.4211
11
25.374424
21
-82.2933
31
-2634.3308
12
1.3218002
22
-72.52332
32
-2653.2722
13
1.3219002
23
-72.523224
33
-2653.2722
0
3DFACE
8
0
10
-16.750635
20
509.26364
30
-2821.423
11
-5.202473
21
509.72635
31
-2768.0034
12
-6.8297434
22
530.6052
32
-2775.0854
13
-6.8296432
23
530.60535
33
-2775.0854
0
3DFACE
8
0
10
-5.202473
20
509.72635
30
-2768.0034
11
-16.750635
21
509.26364
31
-2821.423
12
-27.141346
22
516.90625
32
-2779.6133
13
-27.141247
23
516.9064
33
-2779.6133
0
3DFACE
8
0
10
-27.141346
20
516.90625
30
-2779.6133
11
15.115944
21
514.52484
31
-2770.9153
12
-5.202473
22
509.72635
32
-2768.0034
13
-5.202373
23
509.72644
33
-2768.0034
0
3DFACE
8
0
10
15.115944
20
514.52484
30
-2770.9153
11
-27.141346
21
516.90625
31
-2779.6133
12
-35.085896
22
509.05734
32
-2801.831
13
-35.085796
23
509.05743
33
-2801.831
0
3DFACE
8
0
10
-35.085896
20
509.05734
30
-2801.831
11
2.4082384
21
515.6921
31
-2794.643
12
15.115944
22
514.52484
32
-2770.9153
13
15.116044
23
514.52496
33
-2770.9153
0
3DFACE
8
0
10
315.95355
20
-247.44925
30
-2855.5657
11
370.03546
21
-127.46871
31
-2851.2988
12
318.72
22
-113.45686
32
-2833.9358
13
318.7201
23
-113.456764
33
-2833.9358
0
3DFACE
8
0
10
370.03546
20
-127.46871
30
-2851.2988
11
315.95355
21
-247.44925
31
-2855.5657
12
339.80142
22
-214.26013
32
-2802.2654
13
339.8015
23
-214.26003
33
-2802.2654
0
3DFACE
8
0
10
339.80142
20
-214.26013
30
-2802.2654
11
359.48087
21
-140.32379
31
-2854.3347
12
370.03546
22
-127.46871
32
-2851.2988
13
370.03555
23
-127.46861
33
-2851.2988
0
3DFACE
8
0
10
359.48087
20
-140.32379
30
-2854.3347
11
339.80142
21
-214.26013
31
-2802.2654
12
340.97604
22
-133.55054
32
-2864.7793
13
340.97614
23
-133.55043
33
-2864.7793
0
3DFACE
8
0
10
340.97604
20
-133.55054
30
-2864.7793
11
375.65167
21
-205.1379
31
-2825.581
12
359.48087
22
-140.32379
32
-2854.3347
13
359.48096
23
-140.32368
33
-2854.3347
0
3DFACE
8
0
10
-426.46698
20
505.3036
30
-2346.3025
11
-399.73022
21
510.75623
31
-2355.1228
12
-403.88013
22
503.8291
32
-2329.8257
13
-403.88004
23
503.8292
33
-2329.8257
0
3DFACE
8
0
10
-399.73022
20
510.75623
30
-2355.1228
11
-426.46698
21
505.3036
31
-2346.3025
12
-400.34555
22
509.8008
32
-2326.1108
13
-400.34546
23
509.8009
33
-2326.1108
0
3DFACE
8
0
10
-400.34555
20
509.8008
30
-2326.1108
11
-411.2238
21
509.4741
31
-2330.3098
12
-399.73022
22
510.75623
32
-2355.1228
13
-399.73013
23
510.75632
33
-2355.1228
0
3DFACE
8
0
10
-411.2238
20
509.4741
30
-2330.3098
11
-400.34555
21
509.8008
31
-2326.1108
12
-421.32645
22
523.0175
32
-2335.6636
13
-421.32635
23
523.01764
33
-2335.6636
0
3DFACE
8
0
10
-421.32645
20
523.0175
30
-2335.6636
11
-409.89752
21
499.44357
31
-2342.574
12
-411.2238
22
509.4741
32
-2330.3098
13
-411.2237
23
509.47418
33
-2330.3098
0
3DFACE
8
0
10
10.702404
20
-265.24426
30
-2832.352
11
-34.145714
21
-294.4458
31
-2773.7605
12
26.390385
22
-310.59787
32
-2826.763
13
26.390484
23
-310.59778
33
-2826.763
0
3DFACE
8
0
10
-34.145714
20
-294.4458
30
-2773.7605
11
10.702404
21
-265.24426
31
-2832.352
12
8.134359
22
-240.47452
32
-2757.9592
13
8.1344595
23
-240.47441
33
-2757.9592
0
3DFACE
8
0
10
8.134359
20
-240.47452
30
-2757.9592
11
11.773264
21
-241.40155
31
-2785.5554
12
-34.145714
22
-294.4458
32
-2773.7605
13
-34.145615
23
-294.4457
33
-2773.7605
0
3DFACE
8
0
10
11.773264
20
-241.40155
30
-2785.5554
11
8.134359
21
-240.47452
31
-2757.9592
12
35.40238
22
-199.80289
32
-2808.8247
13
35.40248
23
-199.80278
33
-2808.8247
0
3DFACE
8
0
10
35.40238
20
-199.80289
30
-2808.8247
11
-9.461094
21
-286.15567
31
-2860.96
12
11.773264
22
-241.40155
32
-2785.5554
13
11.773364
23
-241.40144
33
-2785.5554
0
3DFACE
8
0
10
-26.27392
20
-54.14785
30
-1209.7623
11
-6.8680344
21
-99.93683
31
-1184.8829
12
-25.415127
22
-51.882812
32
-1271.1385
13
-25.415028
23
-51.882713
33
-1271.1384
0
3DFACE
8
0
10
-6.8680344
20
-99.93683
30
-1184.8829
11
-26.27392
21
-54.14785
31
-1209.7623
12
-73.60332
22
-158.92728
32
-1239.5034
13
-73.60322
23
-158.92717
33
-1239.5033
0
3DFACE
8
0
10
-73.60332
20
-158.92728
30
-1239.5034
11
-66.94823
21
-134.56955
31
-1202.6865
12
-6.8680344
22
-99.93683
32
-1184.8829
13
-6.867934
23
-99.93673
33
-1184.8828
0
3DFACE
8
0
10
-66.94823
20
-134.56955
30
-1202.6865
11
-73.60332
21
-158.92728
31
-1239.5034
12
-77.96489
22
-136.70618
32
-1248.447
13
-77.96479
23
-136.70607
33
-1248.4469
0
3DFACE
8
0
10
-77.96489
20
-136.70618
30
-1248.447
11
-31.627258
21
-110.95592
31
-1168.6711
12
-66.94823
22
-134.56955
32
-1202.6865
13
-66.94813
23
-134.56944
33
-1202.6864
0
3DFACE
8
0
10
-265.7027
20
473.68274
30
-1731.7023
11
-273.23
21
423.2832
31
-1760.9249
12
-233.91374
22
394.06427
32
-1771.8558
13
-233.91364
23
394.06436
33
-1771.8557
0
3DFACE
8
0
10
-273.23
20
423.2832
30
-1760.9249
11
-265.7027
21
473.68274
31
-1731.7023
12
-245.32098
22
423.23874
32
-1712.0364
13
-245.32088
23
423.23883
33
-1712.0363
0
3DFACE
8
0
10
-245.32098
20
423.23874
30
-1712.0364
11
-243.83243
21
420.21326
31
-1710.9072
12
-273.23
22
423.2832
32
-1760.9249
13
-273.22992
23
423.2833
33
-1760.9248
0
3DFACE
8
0
10
-243.83243
20
420.21326
30
-1710.9072
11
-245.32098
21
423.23874
31
-1712.0364
12
-268.53683
22
406.1354
32
-1771.4915
13
-268.53674
23
406.1355
33
-1771.4913
0
3DFACE
8
0
10
-268.53683
20
406.1354
30
-1771.4915
11
-261.93677
21
401.31717
31
-1796.5029
12
-243.83243
22
420.21326
32
-1710.9072
13
-243.83232
23
420.21335
33
-1710.9071
0
3DFACE
8
0
10
-467.16183
20
58.792915
30
-1823.9114
11
-457.94608
21
57.076984
31
-1814.368
12
-457.62668
22
41.728065
32
-1829.2241
13
-457.6266
23
41.728165
33
-1829.224
0
3DFACE
8
0
10
-457.94608
20
57.076984
30
-1814.368
11
-467.16183
21
58.792915
31
-1823.9114
12
-470.76074
22
49.49407
32
-1829.3612
13
-470.76065
23
49.494167
33
-1829.3611
0
3DFACE
8
0
10
-470.76074
20
49.49407
30
-1829.3612
11
-468.65732
21
86.96376
31
-1830.5332
12
-457.94608
22
57.076984
32
-1814.368
13
-457.94598
23
57.077084
33
-1814.3679
0
3DFACE
8
0
10
-468.65732
20
86.96376
30
-1830.5332
11
-470.76074
21
49.49407
31
-1829.3612
12
-471.1543
22
87.99921
32
-1819.2745
13
-471.1542
23
87.999306
33
-1819.2744
0
3DFACE
8
0
10
-471.1543
20
87.99921
30
-1819.2745
11
-464.83652
21
83.166504
31
-1831.5463
12
-468.65732
22
86.96376
32
-1830.5332
13
-468.65723
23
86.96386
33
-1830.5331
0
3DFACE
8
0
10
224.08072
20
616.8535
30
-2322.3943
11
175.72638
21
633.8491
31
-2283.1765
12
200.14983
22
543.9063
32
-2315.9795
13
200.14993
23
543.90643
33
-2315.9795
0
3DFACE
8
0
10
175.72638
20
633.8491
30
-2283.1765
11
224.08072
21
616.8535
31
-2322.3943
12
225.72379
22
610.75183
32
-2355.9866
13
225.72389
23
610.75195
33
-2355.9866
0
3DFACE
8
0
10
225.72379
20
610.75183
30
-2355.9866
11
227.5334
21
576.8843
31
-2351.208
12
175.72638
22
633.8491
32
-2283.1765
13
175.72649
23
633.84924
33
-2283.1765
0
3DFACE
8
0
10
227.5334
20
576.8843
30
-2351.208
11
225.72379
21
610.75183
31
-2355.9866
12
245.13588
22
616.1901
32
-2315.0432
13
245.13599
23
616.19025
33
-2315.0432
0
3DFACE
8
0
10
245.13588
20
616.1901
30
-2315.0432
11
173.81241
21
608.71765
31
-2331.765
12
227.5334
22
576.8843
32
-2351.208
13
227.53351
23
576.8844
33
-2351.208
0
3DFACE
8
0
10
291.09296
20
508.2823
30
-1907.8973
11
263.9233
21
568.1878
31
-1887.8513
12
240.13008
22
569.0742
32
-1886.0328
13
240.13019
23
569.07434
33
-1886.0327
0
3DFACE
8
0
10
263.9233
20
568.1878
30
-1887.8513
11
291.09296
21
508.2823
31
-1907.8973
12
285.2865
22
489.58762
32
-1890.5085
13
285.2866
23
489.5877
33
-1890.5084
0
3DFACE
8
0
10
285.2865
20
489.58762
30
-1890.5085
11
330.45947
21
519.4092
31
-1953.0851
12
263.9233
22
568.1878
32
-1887.8513
13
263.9234
23
568.1879
33
-1887.8512
0
3DFACE
8
0
10
330.45947
20
519.4092
30
-1953.0851
11
285.2865
21
489.58762
31
-1890.5085
12
333.0505
22
478.09222
32
-1970.5485
13
333.0506
23
478.09232
33
-1970.5483
0
3DFACE
8
0
10
333.0505
20
478.09222
30
-1970.5485
11
278.3153
21
539.183
31
-1932.673
12
330.45947
22
519.4092
32
-1953.0851
13
330.45956
23
519.4093
33
-1953.085
0
3DFACE
8
0
10
-129.01825
20
452.2819
30
-2613.739
11
-131.91411
21
451.8733
31
-2611.6023
12
-135.84288
22
452.98923
32
-2621.3474
13
-135.84277
23
452.98932
33
-2621.3474
0
3DFACE
8
0
10
-131.91411
20
451.8733
30
-2611.6023
11
-129.01825
21
452.2819
31
-2613.739
12
-130.37112
22
456.81628
32
-2614.1094
13
-130.37102
23
456.81638
33
-2614.1094
0
3DFACE
8
0
10
-130.37112
20
456.81628
30
-2614.1094
11
-134.39508
21
447.3143
31
-2622.1438
12
-131.91411
22
451.8733
32
-2611.6023
13
-131.914
23
451.87338
33
-2611.6023
0
3DFACE
8
0
10
-134.39508
20
447.3143
30
-2622.1438
11
-130.37112
21
456.81628
31
-2614.1094
12
-144.00217
22
445.9172
32
-2624.7134
13
-144.00206
23
445.9173
33
-2624.7134
0
3DFACE
8
0
10
-144.00217
20
445.9172
30
-2624.7134
11
-139.52617
21
462.79227
31
-2620.0884
12
-134.39508
22
447.3143
32
-2622.1438
13
-134.39497
23
447.3144
33
-2622.1438
0
3DFACE
8
0
10
231.18385
20
555.6893
30
-2534.8289
11
190.8287
21
558.5137
31
-2521.6758
12
213.664
22
565.0887
32
-2521.8477
13
213.66411
23
565.0888
33
-2521.8477
0
3DFACE
8
0
10
190.8287
20
558.5137
30
-2521.6758
11
231.18385
21
555.6893
31
-2534.8289
12
192.27051
22
539.4403
32
-2506.4475
13
192.27061
23
539.4404
33
-2506.4475
0
3DFACE
8
0
10
192.27051
20
539.4403
30
-2506.4475
11
160.85925
21
560.49634
31
-2532.1467
12
190.8287
22
558.5137
32
-2521.6758
13
190.82881
23
558.5138
33
-2521.6758
0
3DFACE
8
0
10
160.85925
20
560.49634
30
-2532.1467
11
192.27051
21
539.4403
31
-2506.4475
12
235.14178
22
563.6012
32
-2519.5457
13
235.14189
23
563.6013
33
-2519.5457
0
3DFACE
8
0
10
235.14178
20
563.6012
30
-2519.5457
11
200.39417
21
589.9459
31
-2535.841
12
160.85925
22
560.49634
32
-2532.1467
13
160.85936
23
560.49646
33
-2532.1467
0
3DFACE
8
0
10
-350.55612
20
-54.344612
30
-1856.6204
11
-360.51694
21
-63.20668
31
-1845.2971
12
-347.86444
22
-45.716076
32
-1871.7195
13
-347.86435
23
-45.715977
33
-1871.7194
0
3DFACE
8
0
10
-360.51694
20
-63.20668
30
-1845.2971
11
-350.55612
21
-54.344612
31
-1856.6204
12
-393.10498
22
-26.68795
32
-1809.4042
13
-393.1049
23
-26.68785
33
-1809.404
0
3DFACE
8
0
10
-393.10498
20
-26.68795
30
-1809.4042
11
-376.79626
21
-23.088692
31
-1823.5573
12
-360.51694
22
-63.20668
32
-1845.2971
13
-360.51685
23
-63.20658
33
-1845.297
0
3DFACE
8
0
10
-376.79626
20
-23.088692
30
-1823.5573
11
-393.10498
21
-26.68795
31
-1809.4042
12
-379.73935
22
12.247566
32
-1782.2389
13
-379.73926
23
12.247666
33
-1782.2388
0
3DFACE
8
0
10
-379.73935
20
12.247566
30
-1782.2389
11
-417.30484
21
-28.144485
31
-1831.4412
12
-376.79626
22
-23.088692
32
-1823.5573
13
-376.79617
23
-23.088593
33
-1823.5571
0
3DFACE
8
0
10
473.1243
20
-55.85111
30
-2330.967
11
483.09302
21
15.637699
31
-2346.789
12
503.9531
22
-69.079834
32
-2329.8389
13
503.9532
23
-69.079735
33
-2329.8389
0
3DFACE
8
0
10
483.09302
20
15.637699
30
-2346.789
11
473.1243
21
-55.85111
31
-2330.967
12
491.01193
22
14.008339
32
-2381.706
13
491.01202
23
14.008439
33
-2381.706
0
3DFACE
8
0
10
491.01193
20
14.008339
30
-2381.706
11
445.99048
21
0.9617672
31
-2314.3953
12
483.09302
22
15.637699
32
-2346.789
13
483.0931
23
15.637799
33
-2346.789
0
3DFACE
8
0
10
445.99048
20
0.9617672
30
-2314.3953
11
491.01193
21
14.008339
31
-2381.706
12
451.95908
22
-19.416183
32
-2402.3254
13
451.95917
23
-19.416084
33
-2402.3254
0
3DFACE
8
0
10
451.95908
20
-19.416183
30
-2402.3254
11
495.8355
21
-62.82614
31
-2347.7712
12
445.99048
22
0.9617672
32
-2314.3953
13
445.99057
23
0.9618672
33
-2314.3953
0
3DFACE
8
0
10
-122.20679
20
461.36053
30
-2103.059
11
-80.713066
21
459.82446
31
-2148.3174
12
-98.17897
22
473.09436
32
-2152.6792
13
-98.17887
23
473.09445
33
-2152.6792
0
3DFACE
8
0
10
-80.713066
20
459.82446
30
-2148.3174
11
-122.20679
21
461.36053
31
-2103.059
12
-99.48103
22
472.7571
32
-2184.825
13
-99.480934
23
472.7572
33
-2184.825
0
3DFACE
8
0
10
-99.48103
20
472.7571
30
-2184.825
11
-102.42108
21
470.86154
31
-2174.0144
12
-80.713066
22
459.82446
32
-2148.3174
13
-80.71297
23
459.82455
33
-2148.3174
0
3DFACE
8
0
10
-102.42108
20
470.86154
30
-2174.0144
11
-99.48103
21
472.7571
31
-2184.825
12
-142.83241
22
463.54477
32
-2134.1382
13
-142.8323
23
463.54486
33
-2134.1382
0
3DFACE
8
0
10
-142.83241
20
463.54477
30
-2134.1382
11
-137.31134
21
457.01117
31
-2133.9583
12
-102.42108
22
470.86154
32
-2174.0144
13
-102.42098
23
470.86163
33
-2174.0144
0
3DFACE
8
0
10
326.81934
20
521.4038
30
-2164.2322
11
360.25323
21
506.33047
31
-2213.897
12
391.27155
22
562.35815
32
-2206.4756
13
391.27164
23
562.3583
33
-2206.4756
0
3DFACE
8
0
10
360.25323
20
506.33047
30
-2213.897
11
326.81934
21
521.4038
31
-2164.2322
12
334.09317
22
487.91403
32
-2176.4636
13
334.09326
23
487.91412
33
-2176.4636
0
3DFACE
8
0
10
334.09317
20
487.91403
30
-2176.4636
11
358.8905
21
437.47925
31
-2169.335
12
360.25323
22
506.33047
32
-2213.897
13
360.25333
23
506.33057
33
-2213.897
0
3DFACE
8
0
10
358.8905
20
437.47925
30
-2169.335
11
334.09317
21
487.91403
31
-2176.4636
12
328.18015
22
507.68054
32
-2203.1707
13
328.18024
23
507.68063
33
-2203.1707
0
3DFACE
8
0
10
328.18015
20
507.68054
30
-2203.1707
11
368.52295
21
556.50366
31
-2127.9404
12
358.8905
22
437.47925
32
-2169.335
13
358.8906
23
437.47934
33
-2169.335
0
3DFACE
8
0
10
-241.19385
20
-326.51126
30
-2761.7126
11
-323.48688
21
-327.42227
31
-2773.5532
12
-278.96262
22
-305.37048
32
-2744.69
13
-278.96252
23
-305.3704
33
-2744.69
0
3DFACE
8
0
10
-323.48688
20
-327.42227
30
-2773.5532
11
-241.19385
21
-326.51126
31
-2761.7126
12
-290.62933
22
-321.33688
32
-2714.9294
13
-290.62924
23
-321.3368
33
-2714.9294
0
3DFACE
8
0
10
-290.62933
20
-321.33688
30
-2714.9294
11
-288.15704
21
-295.2469
31
-2752.9395
12
-323.48688
22
-327.42227
32
-2773.5532
13
-323.4868
23
-327.42218
33
-2773.5532
0
3DFACE
8
0
10
-288.15704
20
-295.2469
30
-2752.9395
11
-290.62933
21
-321.33688
31
-2714.9294
12
-261.3274
22
-271.81787
32
-2735.7578
13
-261.3273
23
-271.81778
33
-2735.7578
0
3DFACE
8
0
10
-261.3274
20
-271.81787
30
-2735.7578
11
-296.1994
21
-298.59534
31
-2765.074
12
-288.15704
22
-295.2469
32
-2752.9395
13
-288.15695
23
-295.2468
33
-2752.9395
0
3DFACE
8
0
10
205.61365
20
406.46234
30
-1879.3616
11
187.61688
21
409.72754
31
-1888.3643
12
259.69238
22
396.66824
32
-1869.431
13
259.69247
23
396.66833
33
-1869.4309
0
3DFACE
8
0
10
187.61688
20
409.72754
30
-1888.3643
11
205.61365
21
406.46234
31
-1879.3616
12
203.88396
22
390.23325
32
-1839.7115
13
203.88406
23
390.23334
33
-1839.7114
0
3DFACE
8
0
10
203.88396
20
390.23325
30
-1839.7115
11
172.20935
21
433.17535
31
-1861.2252
12
187.61688
22
409.72754
32
-1888.3643
13
187.61699
23
409.72763
33
-1888.3641
0
3DFACE
8
0
10
172.20935
20
433.17535
30
-1861.2252
11
203.88396
21
390.23325
31
-1839.7115
12
192.71465
22
398.32693
32
-1845.5916
13
192.71475
23
398.32703
33
-1845.5914
0
3DFACE
8
0
10
192.71465
20
398.32693
30
-1845.5916
11
184.32953
21
372.11523
31
-1863.1263
12
172.20935
22
433.17535
32
-1861.2252
13
172.20946
23
433.17545
33
-1861.2251
0
3DFACE
8
0
10
-58.787582
20
570.9882
30
-2136.5376
11
-53.691246
21
596.7677
31
-2159.8745
12
-53.961864
22
594.7738
32
-2146.3296
13
-53.961765
23
594.7739
33
-2146.3296
0
3DFACE
8
0
10
-53.691246
20
596.7677
30
-2159.8745
11
-58.787582
21
570.9882
31
-2136.5376
12
-49.15982
22
609.7164
32
-2139.049
13
-49.15972
23
609.7165
33
-2139.049
0
3DFACE
8
0
10
-49.15982
20
609.7164
30
-2139.049
11
-53.134415
21
596.3265
31
-2135.6133
12
-53.691246
22
596.7677
32
-2159.8745
13
-53.691147
23
596.7678
33
-2159.8745
0
3DFACE
8
0
10
-53.134415
20
596.3265
30
-2135.6133
11
-49.15982
21
609.7164
31
-2139.049
12
-74.89191
22
590.72284
32
-2147.3606
13
-74.89181
23
590.72296
33
-2147.3606
0
3DFACE
8
0
10
-74.89191
20
590.72284
30
-2147.3606
11
-61.17606
21
610.0719
31
-2129.8398
12
-53.134415
22
596.3265
32
-2135.6133
13
-53.134315
23
596.3266
33
-2135.6133
0
3DFACE
8
0
10
303.0906
20
447.71677
30
-2739.5444
11
272.6446
21
403.31003
31
-2792.0918
12
302.3006
22
406.3331
32
-2731.1292
13
302.3007
23
406.3332
33
-2731.1292
0
3DFACE
8
0
10
272.6446
20
403.31003
30
-2792.0918
11
303.0906
21
447.71677
31
-2739.5444
12
203.18903
22
400.2401
32
-2759.547
13
203.18913
23
400.2402
33
-2759.547
0
3DFACE
8
0
10
203.18903
20
400.2401
30
-2759.547
11
297.52133
21
390.798
31
-2748.2646
12
272.6446
22
403.31003
32
-2792.0918
13
272.64468
23
403.31012
33
-2792.0918
0
3DFACE
8
0
10
297.52133
20
390.798
30
-2748.2646
11
203.18903
21
400.2401
31
-2759.547
12
221.45859
22
401.644
32
-2757.7344
13
221.4587
23
401.6441
33
-2757.7344
0
3DFACE
8
0
10
221.45859
20
401.644
30
-2757.7344
11
259.6891
21
476.86
31
-2739.863
12
297.52133
22
390.798
32
-2748.2646
13
297.52142
23
390.7981
33
-2748.2646
0
3DFACE
8
0
10
516.2111
20
-141.20334
30
-2431.2698
11
543.13947
21
-122.63223
31
-2426.6338
12
535.2073
22
-137.98988
32
-2427.321
13
535.2074
23
-137.98978
33
-2427.321
0
3DFACE
8
0
10
543.13947
20
-122.63223
30
-2426.6338
11
516.2111
21
-141.20334
31
-2431.2698
12
522.71674
22
-136.34966
32
-2422.6536
13
522.71686
23
-136.34955
33
-2422.6536
0
3DFACE
8
0
10
522.71674
20
-136.34966
30
-2422.6536
11
531.7142
21
-149.95723
31
-2424.1702
12
543.13947
22
-122.63223
32
-2426.6338
13
543.1396
23
-122.63213
33
-2426.6338
0
3DFACE
8
0
10
531.7142
20
-149.95723
30
-2424.1702
11
522.71674
21
-136.34966
31
-2422.6536
12
539.0828
22
-120.106255
32
-2434.313
13
539.08295
23
-120.106155
33
-2434.313
0
3DFACE
8
0
10
539.0828
20
-120.106255
30
-2434.313
11
542.17786
21
-117.718506
31
-2424.5574
12
531.7142
22
-149.95723
32
-2424.1702
13
531.7143
23
-149.95712
33
-2424.1702
0
3DFACE
8
0
10
318.4894
20
955.07166
30
-2451.0605
11
329.65817
21
959.74835
31
-2454.854
12
318.65518
22
956.107
32
-2445.6182
13
318.65527
23
956.1071
33
-2445.6182
0
3DFACE
8
0
10
329.65817
20
959.74835
30
-2454.854
11
318.4894
21
955.07166
31
-2451.0605
12
334.5039
22
946.8648
32
-2457.2683
13
334.504
23
946.8649
33
-2457.2683
0
3DFACE
8
0
10
334.5039
20
946.8648
30
-2457.2683
11
328.1675
21
945.75555
31
-2454.6736
12
329.65817
22
959.74835
32
-2454.854
13
329.65826
23
959.7485
33
-2454.854
0
3DFACE
8
0
10
328.1675
20
945.75555
30
-2454.6736
11
334.5039
21
946.8648
31
-2457.2683
12
334.52823
22
955.5348
32
-2456.4963
13
334.52832
23
955.5349
33
-2456.4963
0
3DFACE
8
0
10
334.52823
20
955.5348
30
-2456.4963
11
333.92877
21
949.40424
31
-2449.1553
12
328.1675
22
945.75555
32
-2454.6736
13
328.1676
23
945.7557
33
-2454.6736
0
3DFACE
8
0
10
313.53775
20
374.8389
30
-2234.9976
11
321.45972
21
383.89886
31
-2235.7249
12
301.04257
22
374.5281
32
-2231.4539
13
301.04266
23
374.5282
33
-2231.4539
0
3DFACE
8
0
10
321.45972
20
383.89886
30
-2235.7249
11
313.53775
21
374.8389
31
-2234.9976
12
323.85858
22
372.23743
32
-2219.818
13
323.85867
23
372.23752
33
-2219.818
0
3DFACE
8
0
10
323.85858
20
372.23743
30
-2219.818
11
309.96606
21
371.0573
31
-2202.1855
12
321.45972
22
383.89886
32
-2235.7249
13
321.4598
23
383.89896
33
-2235.7249
0
3DFACE
8
0
10
309.96606
20
371.0573
30
-2202.1855
11
323.85858
21
372.23743
31
-2219.818
12
298.03345
22
365.7795
32
-2242.3423
13
298.03354
23
365.7796
33
-2242.3423
0
3DFACE
8
0
10
298.03345
20
365.7795
30
-2242.3423
11
310.2733
21
376.82092
31
-2248.9553
12
309.96606
22
371.0573
32
-2202.1855
13
309.96616
23
371.0574
33
-2202.1855
0
3DFACE
8
0
10
155.91725
20
-510.52603
30
-2538.9895
11
125.170044
21
-495.0525
31
-2539.7034
12
160.41373
22
-515.4356
32
-2533.9792
13
160.41383
23
-515.4355
33
-2533.9792
0
3DFACE
8
0
10
125.170044
20
-495.0525
30
-2539.7034
11
155.91725
21
-510.52603
31
-2538.9895
12
176.71094
22
-468.39642
32
-2506.177
13
176.71104
23
-468.39633
33
-2506.177
0
3DFACE
8
0
10
176.71094
20
-468.39642
30
-2506.177
11
161.57164
21
-470.20767
31
-2562.648
12
125.170044
22
-495.0525
32
-2539.7034
13
125.17014
23
-495.0524
33
-2539.7034
0
3DFACE
8
0
10
161.57164
20
-470.20767
30
-2562.648
11
176.71094
21
-468.39642
31
-2506.177
12
150.41861
22
-447.71667
32
-2494.5432
13
150.41872
23
-447.71658
33
-2494.5432
0
3DFACE
8
0
10
150.41861
20
-447.71667
30
-2494.5432
11
144.45126
21
-493.9604
31
-2555.3503
12
161.57164
22
-470.20767
32
-2562.648
13
161.57175
23
-470.20758
33
-2562.648
0
3DFACE
8
0
10
-815.00586
20
-74.671425
30
-2078.8115
11
-709.6326
21
-76.29067
31
-2017.0315
12
-753.2777
22
-47.152405
32
-1977.141
13
-753.2776
23
-47.152306
33
-1977.1409
0
3DFACE
8
0
10
-709.6326
20
-76.29067
30
-2017.0315
11
-815.00586
21
-74.671425
31
-2078.8115
12
-699.56824
22
-47.043156
32
-2076.5654
13
-699.5681
23
-47.043056
33
-2076.5654
0
3DFACE
8
0
10
-699.56824
20
-47.043156
30
-2076.5654
11
-779.9848
21
-34.999245
31
-2061.7559
12
-709.6326
22
-76.29067
32
-2017.0315
13
-709.6325
23
-76.29057
33
-2017.0314
0
3DFACE
8
0
10
-779.9848
20
-34.999245
30
-2061.7559
11
-699.56824
21
-47.043156
31
-2076.5654
12
-802.9049
22
13.425331
32
-2004.2186
13
-802.9048
23
13.425431
33
-2004.2185
0
3DFACE
8
0
10
-802.9049
20
13.425331
30
-2004.2186
11
-783.259
21
-36.57467
31
-2002.1407
12
-779.9848
22
-34.999245
32
-2061.7559
13
-779.9847
23
-34.999146
33
-2061.7559
0
3DFACE
8
0
10
-61.67604
20
458.9552
30
-2511.5037
11
-93.79992
21
394.6565
31
-2509.5908
12
-122.142525
22
401.22372
32
-2526.2761
13
-122.142426
23
401.22382
33
-2526.2761
0
3DFACE
8
0
10
-93.79992
20
394.6565
30
-2509.5908
11
-61.67604
21
458.9552
31
-2511.5037
12
-130.58604
22
432.89728
32
-2523.9648
13
-130.58594
23
432.89737
33
-2523.9648
0
3DFACE
8
0
10
-130.58604
20
432.89728
30
-2523.9648
11
-83.403465
21
466.2176
31
-2488.4329
12
-93.79992
22
394.6565
32
-2509.5908
13
-93.79982
23
394.6566
33
-2509.5908
0
3DFACE
8
0
10
-83.403465
20
466.2176
30
-2488.4329
11
-130.58604
21
432.89728
31
-2523.9648
12
-113.17773
22
388.7958
32
-2492.2803
13
-113.17763
23
388.7959
33
-2492.2803
0
3DFACE
8
0
10
-113.17773
20
388.7958
30
-2492.2803
11
-120.66622
21
405.93564
31
-2523.1904
12
-83.403465
22
466.2176
32
-2488.4329
13
-83.403366
23
466.21768
33
-2488.4329
0
3DFACE
8
0
10
-104.83497
20
322.29996
30
-2379.5547
11
-93.99553
21
318.8972
31
-2392.4834
12
-118.22562
22
325.96396
32
-2389.7805
13
-118.22552
23
325.96405
33
-2389.7805
0
3DFACE
8
0
10
-93.99553
20
318.8972
30
-2392.4834
11
-104.83497
21
322.29996
31
-2379.5547
12
-114.2754
22
335.784
32
-2381.8486
13
-114.2753
23
335.7841
33
-2381.8486
0
3DFACE
8
0
10
-114.2754
20
335.784
30
-2381.8486
11
-106.808304
21
338.02597
31
-2387.0496
12
-93.99553
22
318.8972
32
-2392.4834
13
-93.99543
23
318.89728
33
-2392.4834
0
3DFACE
8
0
10
-106.808304
20
338.02597
30
-2387.0496
11
-114.2754
21
335.784
31
-2381.8486
12
-103.97378
22
333.18222
32
-2396.4683
13
-103.97368
23
333.1823
33
-2396.4683
0
3DFACE
8
0
10
-103.97378
20
333.18222
30
-2396.4683
11
-106.97483
21
327.45123
31
-2385.6755
12
-106.808304
22
338.02597
32
-2387.0496
13
-106.808205
23
338.02606
33
-2387.0496
0
3DFACE
8
0
10
-135.26193
20
-152.15475
30
-2575.184
11
-131.70033
21
-154.98947
31
-2582.8757
12
-97.81026
22
-161.99744
32
-2559.6626
13
-97.81016
23
-161.99733
33
-2559.6626
0
3DFACE
8
0
10
-131.70033
20
-154.98947
30
-2582.8757
11
-135.26193
21
-152.15475
31
-2575.184
12
-113.118515
22
-145.38472
32
-2536.248
13
-113.118416
23
-145.38461
33
-2536.248
0
3DFACE
8
0
10
-113.118515
20
-145.38472
30
-2536.248
11
-77.75044
21
-143.77243
31
-2549.8528
12
-131.70033
22
-154.98947
32
-2582.8757
13
-131.70023
23
-154.98936
33
-2582.8757
0
3DFACE
8
0
10
-77.75044
20
-143.77243
30
-2549.8528
11
-113.118515
21
-145.38472
31
-2536.248
12
-131.38594
22
-149.45975
32
-2577.2832
13
-131.38583
23
-149.45964
33
-2577.2832
0
3DFACE
8
0
10
-131.38594
20
-149.45975
30
-2577.2832
11
-96.53554
21
-104.24401
31
-2579.0676
12
-77.75044
22
-143.77243
32
-2549.8528
13
-77.75034
23
-143.77232
33
-2549.8528
0
3DFACE
8
0
10
-360.6463
20
522.3206
30
-2208.2087
11
-359.17264
21
519.03467
31
-2209.5442
12
-360.04
22
517.02783
32
-2211.2407
13
-360.03992
23
517.02795
33
-2211.2407
0
3DFACE
8
0
10
-359.17264
20
519.03467
30
-2209.5442
11
-360.6463
21
522.3206
31
-2208.2087
12
-362.33887
22
514.4491
32
-2214.9612
13
-362.33878
23
514.4492
33
-2214.9612
0
3DFACE
8
0
10
-362.33887
20
514.4491
30
-2214.9612
11
-373.90073
21
505.2437
31
-2206.29
12
-359.17264
22
519.03467
32
-2209.5442
13
-359.17255
23
519.0348
33
-2209.5442
0
3DFACE
8
0
10
-373.90073
20
505.2437
30
-2206.29
11
-362.33887
21
514.4491
31
-2214.9612
12
-366.21844
22
517.725
32
-2196.3867
13
-366.21835
23
517.7251
33
-2196.3867
0
3DFACE
8
0
10
-366.21844
20
517.725
30
-2196.3867
11
-359.24655
21
514.38556
31
-2198.6226
12
-373.90073
22
505.2437
32
-2206.29
13
-373.90063
23
505.2438
33
-2206.29
0
3DFACE
8
0
10
69.27788
20
400.45557
30
-1845.4075
11
105.52282
21
425.02963
31
-1903.2788
12
109.558754
22
424.8623
32
-1888.8688
13
109.55885
23
424.8624
33
-1888.8687
0
3DFACE
8
0
10
105.52282
20
425.02963
30
-1903.2788
11
69.27788
21
400.45557
31
-1845.4075
12
127.85292
22
363.92596
32
-1890.7446
13
127.85302
23
363.92606
33
-1890.7445
0
3DFACE
8
0
10
127.85292
20
363.92596
30
-1890.7446
11
117.56926
21
363.1227
31
-1890.8418
12
105.52282
22
425.02963
32
-1903.2788
13
105.52292
23
425.02972
33
-1903.2787
0
3DFACE
8
0
10
117.56926
20
363.1227
30
-1890.8418
11
127.85292
21
363.92596
31
-1890.7446
12
142.23605
22
399.7297
32
-1865.7477
13
142.23616
23
399.7298
33
-1865.7476
0
3DFACE
8
0
10
142.23605
20
399.7297
30
-1865.7477
11
63.688576
21
437.8085
31
-1871.0846
12
117.56926
22
363.1227
32
-1890.8418
13
117.56936
23
363.1228
33
-1890.8417
0
3DFACE
8
0
10
-20.141857
20
512.4579
30
-1794.3695
11
14.416626
21
594.7762
31
-1791.1824
12
62.964737
22
575.31964
32
-1803.9513
13
62.964836
23
575.31976
33
-1803.9512
0
3DFACE
8
0
10
14.416626
20
594.7762
30
-1791.1824
11
-20.141857
21
512.4579
31
-1794.3695
12
2.0718155
22
612.30566
32
-1823.3173
13
2.0719154
23
612.3058
33
-1823.3171
0
3DFACE
8
0
10
2.0718155
20
612.30566
30
-1823.3173
11
2.4872026
21
556.9855
31
-1775.5201
12
14.416626
22
594.7762
32
-1791.1824
13
14.416726
23
594.7763
33
-1791.1823
0
3DFACE
8
0
10
2.4872026
20
556.9855
30
-1775.5201
11
2.0718155
21
612.30566
31
-1823.3173
12
-5.633543
22
586.8003
32
-1792.9327
13
-5.633443
23
586.8004
33
-1792.9326
0
3DFACE
8
0
10
-5.633543
20
586.8003
30
-1792.9327
11
39.984165
21
579.2511
31
-1832.0952
12
2.4872026
22
556.9855
32
-1775.5201
13
2.4873025
23
556.9856
33
-1775.52
0
3DFACE
8
0
10
132.20087
20
267.4206
30
-2736.2544
11
105.71883
21
215.67906
31
-2688.9976
12
90.1907
22
285.35477
32
-2735.1553
13
90.190796
23
285.35486
33
-2735.1553
0
3DFACE
8
0
10
105.71883
20
215.67906
30
-2688.9976
11
132.20087
21
267.4206
31
-2736.2544
12
100.29793
22
253.04091
32
-2772.462
13
100.29803
23
253.04102
33
-2772.462
0
3DFACE
8
0
10
100.29793
20
253.04091
30
-2772.462
11
95.62823
21
254.77058
31
-2766.5916
12
105.71883
22
215.67906
32
-2688.9976
13
105.718925
23
215.67917
33
-2688.9976
0
3DFACE
8
0
10
95.62823
20
254.77058
30
-2766.5916
11
100.29793
21
253.04091
31
-2772.462
12
51.022434
22
254.05202
32
-2721.8916
13
51.022533
23
254.05212
33
-2721.8916
0
3DFACE
8
0
10
51.022434
20
254.05202
30
-2721.8916
11
94.9468
21
187.15033
31
-2734.5928
12
95.62823
22
254.77058
32
-2766.5916
13
95.62833
23
254.77069
33
-2766.5916
0
3DFACE
8
0
10
-309.70187
20
407.83972
30
-2219.5266
11
-261.63348
21
448.71375
31
-2201.0806
12
-261.48938
22
463.5333
32
-2177.2185
13
-261.4893
23
463.5334
33
-2177.2185
0
3DFACE
8
0
10
-261.63348
20
448.71375
30
-2201.0806
11
-309.70187
21
407.83972
31
-2219.5266
12
-259.02875
22
440.03595
32
-2219.8997
13
-259.02866
23
440.03604
33
-2219.8997
0
3DFACE
8
0
10
-259.02875
20
440.03595
30
-2219.8997
11
-301.771
21
421.71283
31
-2240.3718
12
-261.63348
22
448.71375
32
-2201.0806
13
-261.6334
23
448.71384
33
-2201.0806
0
3DFACE
8
0
10
-301.771
20
421.71283
30
-2240.3718
11
-259.02875
21
440.03595
31
-2219.8997
12
-290.27655
22
417.38644
32
-2211.5476
13
-290.27646
23
417.38654
33
-2211.5476
0
3DFACE
8
0
10
-290.27655
20
417.38644
30
-2211.5476
11
-322.2302
21
417.79184
31
-2185.0571
12
-301.771
22
421.71283
32
-2240.3718
13
-301.7709
23
421.71292
33
-2240.3718
0
3DFACE
8
0
10
-394.2663
20
301.8035
30
-2641.5066
11
-428.57635
21
282.72888
31
-2612.15
12
-425.39667
22
327.20712
32
-2616.6453
13
-425.39658
23
327.2072
33
-2616.6453
0
3DFACE
8
0
10
-428.57635
20
282.72888
30
-2612.15
11
-394.2663
21
301.8035
31
-2641.5066
12
-399.47668
22
362.8401
32
-2598.627
13
-399.4766
23
362.84018
33
-2598.627
0
3DFACE
8
0
10
-399.47668
20
362.8401
30
-2598.627
11
-444.8176
21
324.81308
31
-2624.458
12
-428.57635
22
282.72888
32
-2612.15
13
-428.57626
23
282.72897
33
-2612.15
0
3DFACE
8
0
10
-444.8176
20
324.81308
30
-2624.458
11
-399.47668
21
362.8401
31
-2598.627
12
-423.40744
22
346.27798
32
-2647.8013
13
-423.40735
23
346.27808
33
-2647.8013
0
3DFACE
8
0
10
-423.40744
20
346.27798
30
-2647.8013
11
-421.32474
21
325.50714
31
-2611.347
12
-444.8176
22
324.81308
32
-2624.458
13
-444.8175
23
324.81317
33
-2624.458
0
3DFACE
8
0
10
245.35727
20
855.0242
30
-2561.7717
11
258.44507
21
830.9503
31
-2587.0117
12
242.11183
22
886.557
32
-2542.2776
13
242.11194
23
886.5571
33
-2542.2776
0
3DFACE
8
0
10
258.44507
20
830.9503
30
-2587.0117
11
245.35727
21
855.0242
31
-2561.7717
12
281.0916
22
926.72314
32
-2599.4966
13
281.0917
23
926.72327
33
-2599.4966
0
3DFACE
8
0
10
281.0916
20
926.72314
30
-2599.4966
11
229.68149
21
881.9208
31
-2645.5688
12
258.44507
22
830.9503
32
-2587.0117
13
258.44516
23
830.95044
33
-2587.0117
0
3DFACE
8
0
10
229.68149
20
881.9208
30
-2645.5688
11
281.0916
21
926.72314
31
-2599.4966
12
261.18878
22
879.32446
32
-2564.2876
13
261.18887
23
879.3246
33
-2564.2876
0
3DFACE
8
0
10
261.18878
20
879.32446
30
-2564.2876
11
281.8777
21
895.72375
31
-2595.6067
12
229.68149
22
881.9208
32
-2645.5688
13
229.6816
23
881.9209
33
-2645.5688
0
3DFACE
8
0
10
117.08528
20
-225.69312
30
-2953.8367
11
115.57684
21
-244.90884
31
-2982.7942
12
162.35739
22
-269.28976
32
-2971.8325
13
162.3575
23
-269.28967
33
-2971.8325
0
3DFACE
8
0
10
115.57684
20
-244.90884
30
-2982.7942
11
117.08528
21
-225.69312
31
-2953.8367
12
138.40143
22
-256.92972
32
-2957.7437
13
138.40154
23
-256.92963
33
-2957.7437
0
3DFACE
8
0
10
138.40143
20
-256.92972
30
-2957.7437
11
139.91876
21
-240.45746
31
-2979.927
12
115.57684
22
-244.90884
32
-2982.7942
13
115.57694
23
-244.90874
33
-2982.7942
0
3DFACE
8
0
10
139.91876
20
-240.45746
30
-2979.927
11
138.40143
21
-256.92972
31
-2957.7437
12
170.19113
22
-204.31218
32
-2939.1526
13
170.19124
23
-204.31207
33
-2939.1526
0
3DFACE
8
0
10
170.19113
20
-204.31218
30
-2939.1526
11
125.02726
21
-242.88776
31
-2916.6174
12
139.91876
22
-240.45746
32
-2979.927
13
139.91887
23
-240.45735
33
-2979.927
0
3DFACE
8
0
10
-776.85297
20
-348.60324
30
-2363.688
11
-780.9426
21
-354.45
31
-2347.133
12
-799.01044
22
-361.26508
32
-2370.296
13
-799.0103
23
-361.26498
33
-2370.296
0
3DFACE
8
0
10
-780.9426
20
-354.45
30
-2347.133
11
-776.85297
21
-348.60324
31
-2363.688
12
-801.93207
22
-346.061
32
-2347.714
13
-801.93195
23
-346.0609
33
-2347.714
0
3DFACE
8
0
10
-801.93207
20
-346.061
30
-2347.714
11
-806.6791
21
-380.03168
31
-2352.997
12
-780.9426
22
-354.45
32
-2347.133
13
-780.9425
23
-354.44992
33
-2347.133
0
3DFACE
8
0
10
-806.6791
20
-380.03168
30
-2352.997
11
-801.93207
21
-346.061
31
-2347.714
12
-807.40967
22
-357.21994
32
-2349.6882
13
-807.40955
23
-357.21985
33
-2349.6882
0
3DFACE
8
0
10
-807.40967
20
-357.21994
30
-2349.6882
11
-784.9442
21
-354.43155
31
-2352.3545
12
-806.6791
22
-380.03168
32
-2352.997
13
-806.67896
23
-380.0316
33
-2352.997
0
3DFACE
8
0
10
-289.7664
20
160.75552
30
-2437.8203
11
-315.15457
21
109.938866
31
-2436.3083
12
-337.55435
22
115.12909
32
-2449.495
13
-337.55426
23
115.12919
33
-2449.495
0
3DFACE
8
0
10
-315.15457
20
109.938866
30
-2436.3083
11
-289.7664
21
160.75552
31
-2437.8203
12
-344.22745
22
140.16138
32
-2447.6685
13
-344.22736
23
140.16148
33
-2447.6685
0
3DFACE
8
0
10
-344.22745
20
140.16138
30
-2447.6685
11
-306.93802
21
166.49515
31
-2419.587
12
-315.15457
22
109.938866
32
-2436.3083
13
-315.15448
23
109.938965
33
-2436.3083
0
3DFACE
8
0
10
-306.93802
20
166.49515
30
-2419.587
11
-344.22745
21
140.16138
31
-2447.6685
12
-330.46927
22
105.30702
32
-2422.6277
13
-330.46918
23
105.30712
33
-2422.6277
0
3DFACE
8
0
10
-330.46927
20
105.30702
30
-2422.6277
11
-336.3876
21
118.85301
31
-2447.0564
12
-306.93802
22
166.49515
32
-2419.587
13
-306.93793
23
166.49525
33
-2419.587
0
3DFACE
8
0
10
329.20755
20
525.5723
30
-2314.0674
11
302.72552
21
473.83078
31
-2266.8105
12
287.1974
22
543.5065
32
-2312.9683
13
287.19748
23
543.5066
33
-2312.9683
0
3DFACE
8
0
10
302.72552
20
473.83078
30
-2266.8105
11
329.20755
21
525.5723
31
-2314.0674
12
297.30463
22
511.19263
32
-2350.275
13
297.30472
23
511.19272
33
-2350.275
0
3DFACE
8
0
10
297.30463
20
511.19263
30
-2350.275
11
292.63492
21
512.9223
31
-2344.4045
12
302.72552
22
473.83078
32
-2266.8105
13
302.72562
23
473.83087
33
-2266.8105
0
3DFACE
8
0
10
292.63492
20
512.9223
30
-2344.4045
11
297.30463
21
511.19263
31
-2350.275
12
248.02911
22
512.20374
32
-2299.7046
13
248.02922
23
512.20386
33
-2299.7046
0
3DFACE
8
0
10
248.02911
20
512.20374
30
-2299.7046
11
291.9535
21
445.30203
31
-2312.4058
12
292.63492
22
512.9223
32
-2344.4045
13
292.635
23
512.9224
33
-2344.4045
0
3DFACE
8
0
10
237.03017
20
-22.05272
30
-2418.7222
11
192.18204
21
-51.254257
31
-2360.1306
12
252.71814
22
-67.40634
32
-2413.133
13
252.71825
23
-67.40624
33
-2413.133
0
3DFACE
8
0
10
192.18204
20
-51.254257
30
-2360.1306
11
237.03017
21
-22.05272
31
-2418.7222
12
234.46211
22
2.7170105
32
-2344.3293
13
234.46222
23
2.7171104
33
-2344.3293
0
3DFACE
8
0
10
234.46211
20
2.7170105
30
-2344.3293
11
238.10103
21
1.7899837
31
-2371.9255
12
192.18204
22
-51.254257
32
-2360.1306
13
192.18214
23
-51.254158
33
-2360.1306
0
3DFACE
8
0
10
238.10103
20
1.7899837
30
-2371.9255
11
234.46211
21
2.7170105
31
-2344.3293
12
261.73013
22
43.38865
32
-2395.1948
13
261.73022
23
43.38875
33
-2395.1948
0
3DFACE
8
0
10
261.73013
20
43.38865
30
-2395.1948
11
216.86667
21
-42.96415
31
-2447.33
12
238.10103
22
1.7899837
32
-2371.9255
13
238.10114
23
1.7900838
33
-2371.9255
0
3DFACE
8
0
10
60.36596
20
-193.55695
30
-2586.8218
11
63.927567
21
-196.39166
31
-2594.5134
12
97.81764
22
-203.39963
32
-2571.3003
13
97.81774
23
-203.39952
33
-2571.3003
0
3DFACE
8
0
10
63.927567
20
-196.39166
30
-2594.5134
11
60.36596
21
-193.55695
31
-2586.8218
12
82.509384
22
-186.78691
32
-2547.8857
13
82.50948
23
-186.7868
33
-2547.8857
0
3DFACE
8
0
10
82.509384
20
-186.78691
30
-2547.8857
11
117.87746
21
-185.17462
31
-2561.4905
12
63.927567
22
-196.39166
32
-2594.5134
13
63.927666
23
-196.39156
33
-2594.5134
0
3DFACE
8
0
10
117.87746
20
-185.17462
30
-2561.4905
11
82.509384
21
-186.78691
31
-2547.8857
12
64.24196
22
-190.86194
32
-2588.921
13
64.24206
23
-190.86183
33
-2588.921
0
3DFACE
8
0
10
64.24196
20
-190.86194
30
-2588.921
11
99.09236
21
-145.64621
31
-2590.7053
12
117.87746
22
-185.17462
32
-2561.4905
13
117.877556
23
-185.17451
33
-2561.4905
0
3DFACE
8
0
10
-24.697521
20
477.13214
30
-1832.1354
11
9.860962
21
559.45044
31
-1828.9482
12
58.409073
22
539.9939
32
-1841.7172
13
58.409172
23
539.994
33
-1841.717
0
3DFACE
8
0
10
9.860962
20
559.45044
30
-1828.9482
11
-24.697521
21
477.13214
31
-1832.1354
12
-2.4838486
22
576.9799
32
-1861.0831
13
-2.4837487
23
576.98004
33
-1861.083
0
3DFACE
8
0
10
-2.4838486
20
576.9799
30
-1861.0831
11
-2.0684614
21
521.6597
31
-1813.286
12
9.860962
22
559.45044
32
-1828.9482
13
9.861062
23
559.45056
33
-1828.9481
0
3DFACE
8
0
10
-2.0684614
20
521.6597
30
-1813.286
11
-2.4838486
21
576.9799
31
-1861.0831
12
-10.189207
22
551.47455
32
-1830.6986
13
-10.189107
23
551.4747
33
-1830.6985
0
3DFACE
8
0
10
-10.189207
20
551.47455
30
-1830.6986
11
35.4285
21
543.92535
31
-1869.8611
12
-2.0684614
22
521.6597
32
-1813.286
13
-2.0683615
23
521.65985
33
-1813.2859
0
3DFACE
8
0
10
175.21902
20
96.389946
30
-2836.7646
11
144.773
21
51.983215
31
-2889.312
12
174.42902
22
55.00629
32
-2828.3494
13
174.42912
23
55.00639
33
-2828.3494
0
3DFACE
8
0
10
144.773
20
51.983215
30
-2889.312
11
175.21902
21
96.389946
31
-2836.7646
12
75.317444
22
48.913307
32
-2856.7673
13
75.31754
23
48.913406
33
-2856.7673
0
3DFACE
8
0
10
75.317444
20
48.913307
30
-2856.7673
11
169.64975
21
39.471207
31
-2845.4849
12
144.773
22
51.983215
32
-2889.312
13
144.7731
23
51.983315
33
-2889.312
0
3DFACE
8
0
10
169.64975
20
39.471207
30
-2845.4849
11
75.317444
21
48.913307
31
-2856.7673
12
93.587006
22
50.3172
32
-2854.9546
13
93.587105
23
50.3173
33
-2854.9546
0
3DFACE
8
0
10
93.587006
20
50.3172
30
-2854.9546
11
131.8175
21
125.53317
31
-2837.0833
12
169.64975
22
39.471207
32
-2845.4849
13
169.64986
23
39.471306
33
-2845.4849
0
3DFACE
8
0
10
-307.47528
20
-433.6767
30
-2466.124
11
-271.23032
21
-409.10263
31
-2523.9954
12
-267.1944
22
-409.26996
32
-2509.5852
13
-267.1943
23
-409.26987
33
-2509.5852
0
3DFACE
8
0
10
-271.23032
20
-409.10263
30
-2523.9954
11
-307.47528
21
-433.6767
31
-2466.124
12
-248.90022
22
-470.2063
32
-2511.461
13
-248.90012
23
-470.2062
33
-2511.461
0
3DFACE
8
0
10
-248.90022
20
-470.2063
30
-2511.461
11
-259.18387
21
-471.00955
31
-2511.5583
12
-271.23032
22
-409.10263
32
-2523.9954
13
-271.23022
23
-409.10254
33
-2523.9954
0
3DFACE
8
0
10
-259.18387
20
-471.00955
30
-2511.5583
11
-248.90022
21
-470.2063
31
-2511.461
12
-234.51709
22
-434.40256
32
-2486.464
13
-234.51698
23
-434.40247
33
-2486.464
0
3DFACE
8
0
10
-234.51709
20
-434.40256
30
-2486.464
11
-313.06458
21
-396.32376
31
-2491.801
12
-259.18387
22
-471.00955
32
-2511.5583
13
-259.18378
23
-471.00946
33
-2511.5583
0
LINE
8
0
10
31.88884
20
824.47644
30
-2170.2046
11
42.96224
21
895.02704
31
-2202.3584
0
LINE
8
0
10
42.96224
20
895.02704
30
-2202.3584
11
58.59053
21
888.2095
31
-2192.1487
0
LINE
8
0
10
58.59053
20
888.2095
30
-2192.1487
11
31.88884
21
824.47644
31
-2170.2046
0
LINE
8
0
10
42.96224
20
895.02704
30
-2202.3584
11
31.88884
21
824.47644
31
-2170.2046
0
LINE
8
0
10
31.88884
20
824.47644
30
-2170.2046
11
35.323418
21
860.49
31
-2191.7107
0
LINE
8
0
10
35.323418
20
860.49
30
-2191.7107
11
42.96224
21
895.02704
31
-2202.3584
0
LINE
8
0
10
35.323418
20
860.49
30
-2191.7107
11
70.88185
21
886.7575
31
-2182.719
0
LINE
8
0
10
70.88185
20
886.7575
30
-2182.719
11
42.96224
21
895.02704
31
-2202.3584
0
LINE
8
0
10
42.96224
20
895.02704
30
-2202.3584
11
35.323418
21
860.49
31
-2191.7107
0
LINE
8
0
10
70.88185
20
886.7575
30
-2182.719
11
35.323418
21
860.49
31
-2191.7107
0
LINE
8
0
10
35.323418
20
860.49
30
-2191.7107
11
83.91954
21
894.5364
31
-2184.0137
0
LINE
8
0
10
83.91954
20
894.5364
30
-2184.0137
11
70.88185
21
886.7575
31
-2182.719
0
LINE
8
0
10
83.91954
20
894.5364
30
-2184.0137
11
64.00284
21
864.4385
31
-2177.5557
0
LINE
8
0
10
64.00284
20
864.4385
30
-2177.5557
11
70.88185
21
886.7575
31
-2182.719
0
LINE
8
0
10
70.88185
20
886.7575
30
-2182.719
11
83.91954
21
894.5364
31
-2184.0137
0
LINE
8
0
10
-967.9674
20
-138.2022
30
-2342.499
11
-938.4487
21
-89.3133
31
-2359.4512
0
LINE
8
0
10
-938.4487
20
-89.3133
30
-2359.4512
11
-969.8814
21
-112.4698
31
-2398.0872
0
LINE
8
0
10
-969.8814
20
-112.4698
30
-2398.0872
11
-967.9674
21
-138.2022
31
-2342.499
0
LINE
8
0
10
-938.4487
20
-89.3133
30
-2359.4512
11
-967.9674
21
-138.2022
31
-2342.499
0
LINE
8
0
10
-967.9674
20
-138.2022
30
-2342.499
11
-954.2382
21
-125.72023
31
-2403.838
0
LINE
8
0
10
-954.2382
20
-125.72023
30
-2403.838
11
-938.4487
21
-89.3133
31
-2359.4512
0
LINE
8
0
10
-954.2382
20
-125.72023
30
-2403.838
11
-961.2397
21
-98.53633
31
-2348.9756
0
LINE
8
0
10
-961.2397
20
-98.53633
30
-2348.9756
11
-938.4487
21
-89.3133
31
-2359.4512
0
LINE
8
0
10
-938.4487
20
-89.3133
30
-2359.4512
11
-954.2382
21
-125.72023
31
-2403.838
0
LINE
8
0
10
-961.2397
20
-98.53633
30
-2348.9756
11
-954.2382
21
-125.72023
31
-2403.838
0
LINE
8
0
10
-954.2382
20
-125.72023
30
-2403.838
11
-950.2908
21
-138.8197
31
-2376.485
0
LINE
8
0
10
-950.2908
20
-138.8197
30
-2376.485
11
-961.2397
21
-98.53633
31
-2348.9756
0
LINE
8
0
10
-950.2908
20
-138.8197
30
-2376.485
11
-972.8529
21
-154.53607
31
-2352.3887
0
LINE
8
0
10
-972.8529
20
-154.53607
30
-2352.3887
11
-961.2397
21
-98.53633
31
-2348.9756
0
LINE
8
0
10
-961.2397
20
-98.53633
30
-2348.9756
11
-950.2908
21
-138.8197
31
-2376.485
0
LINE
8
0
10
373.93475
20
-79.19225
30
-2518.4053
11
399.04092
21
-77.70772
31
-2503.5728
0
LINE
8
0
10
399.04092
20
-77.70772
30
-2503.5728
11
342.8599
21
-62.988823
31
-2494.079
0
LINE
8
0
10
342.8599
20
-62.988823
30
-2494.079
11
373.93475
21
-79.19225
31
-2518.4053
0
LINE
8
0
10
399.04092
20
-77.70772
30
-2503.5728
11
373.93475
21
-79.19225
31
-2518.4053
0
LINE
8
0
10
373.93475
20
-79.19225
30
-2518.4053
11
393.7108
21
-70.43003
31
-2485.6147
0
LINE
8
0
10
393.7108
20
-70.43003
30
-2485.6147
11
399.04092
21
-77.70772
31
-2503.5728
0
LINE
8
0
10
393.7108
20
-70.43003
30
-2485.6147
11
385.41913
21
-70.601105
31
-2485.695
0
LINE
8
0
10
385.41913
20
-70.601105
30
-2485.695
11
399.04092
21
-77.70772
31
-2503.5728
0
LINE
8
0
10
399.04092
20
-77.70772
30
-2503.5728
11
393.7108
21
-70.43003
31
-2485.6147
0
LINE
8
0
10
385.41913
20
-70.601105
30
-2485.695
11
393.7108
21
-70.43003
31
-2485.6147
0
LINE
8
0
10
393.7108
20
-70.43003
30
-2485.6147
11
342.09363
21
-78.4539
31
-2531.317
0
LINE
8
0
10
342.09363
20
-78.4539
30
-2531.317
11
385.41913
21
-70.601105
31
-2485.695
0
LINE
8
0
10
342.09363
20
-78.4539
30
-2531.317
11
386.79233
21
-50.386196
31
-2510.0063
0
LINE
8
0
10
386.79233
20
-50.386196
30
-2510.0063
11
385.41913
21
-70.601105
31
-2485.695
0
LINE
8
0
10
385.41913
20
-70.601105
30
-2485.695
11
342.09363
21
-78.4539
31
-2531.317
0
LINE
8
0
10
-610.56915
20
-259.94376
30
-2555.187
11
-605.2299
21
-247.87314
31
-2550.2527
0
LINE
8
0
10
-605.2299
20
-247.87314
30
-2550.2527
11
-609.0599
21
-248.07736
31
-2558.2085
0
LINE
8
0
10
-609.0599
20
-248.07736
30
-2558.2085
11
-610.56915
21
-259.94376
31
-2555.187
0
LINE
8
0
10
-605.2299
20
-247.87314
30
-2550.2527
11
-610.56915
21
-259.94376
31
-2555.187
0
LINE
8
0
10
-610.56915
20
-259.94376
30
-2555.187
11
-616.06976
21
-250.2329
31
-2551.974
0
LINE
8
0
10
-616.06976
20
-250.2329
30
-2551.974
11
-605.2299
21
-247.87314
31
-2550.2527
0
LINE
8
0
10
-616.06976
20
-250.2329
30
-2551.974
11
-605.6641
21
-259.14142
31
-2557.3984
0
LINE
8
0
10
-605.6641
20
-259.14142
30
-2557.3984
11
-605.2299
21
-247.87314
31
-2550.2527
0
LINE
8
0
10
-605.2299
20
-247.87314
30
-2550.2527
11
-616.06976
21
-250.2329
31
-2551.974
0
LINE
8
0
10
-605.6641
20
-259.14142
30
-2557.3984
11
-616.06976
21
-250.2329
31
-2551.974
0
LINE
8
0
10
-616.06976
20
-250.2329
30
-2551.974
11
-612.462
21
-255.83359
31
-2560.9243
0
LINE
8
0
10
-612.462
20
-255.83359
30
-2560.9243
11
-605.6641
21
-259.14142
31
-2557.3984
0
LINE
8
0
10
-612.462
20
-255.83359
30
-2560.9243
11
-603.7268
21
-246.7723
31
-2551.4436
0
LINE
8
0
10
-603.7268
20
-246.7723
30
-2551.4436
11
-605.6641
21
-259.14142
31
-2557.3984
0
LINE
8
0
10
-605.6641
20
-259.14142
30
-2557.3984
11
-612.462
21
-255.83359
31
-2560.9243
0
LINE
8
0
10
4.296959
20
-77.4229
30
-2625.8894
11
40.393166
21
-53.125645
31
-2639.5718
0
LINE
8
0
10
40.393166
20
-53.125645
30
-2639.5718
11
30.988022
21
-45.82266
31
-2639.3374
0
LINE
8
0
10
30.988022
20
-45.82266
30
-2639.3374
11
4.296959
21
-77.4229
31
-2625.8894
0
LINE
8
0
10
40.393166
20
-53.125645
30
-2639.5718
11
4.296959
21
-77.4229
31
-2625.8894
0
LINE
8
0
10
4.296959
20
-77.4229
30
-2625.8894
11
28.73367
21
-40.73788
31
-2640.3298
0
LINE
8
0
10
28.73367
20
-40.73788
30
-2640.3298
11
40.393166
21
-53.125645
31
-2639.5718
0
LINE
8
0
10
28.73367
20
-40.73788
30
-2640.3298
11
1.3218002
21
-72.52332
31
-2653.2722
0
LINE
8
0
10
1.3218002
20
-72.52332
30
-2653.2722
11
40.393166
21
-53.125645
31
-2639.5718
0
LINE
8
0
10
40.393166
20
-53.125645
30
-2639.5718
11
28.73367
21
-40.73788
31
-2640.3298
0
LINE
8
0
10
1.3218002
20
-72.52332
30
-2653.2722
11
28.73367
21
-40.73788
31
-2640.3298
0
LINE
8
0
10
28.73367
20
-40.73788
30
-2640.3298
11
20.031006
21
-54.585686
31
-2603.4211
0
LINE
8
0
10
20.031006
20
-54.585686
30
-2603.4211
11
1.3218002
21
-72.52332
31
-2653.2722
0
LINE
8
0
10
20.031006
20
-54.585686
30
-2603.4211
11
25.374424
21
-82.2933
31
-2634.3308
0
LINE
8
0
10
25.374424
20
-82.2933
30
-2634.3308
11
1.3218002
21
-72.52332
31
-2653.2722
0
LINE
8
0
10
1.3218002
20
-72.52332
30
-2653.2722
11
20.031006
21
-54.585686
31
-2603.4211
0
LINE
8
0
10
-16.750635
20
509.26364
30
-2821.423
11
-5.202473
21
509.72635
31
-2768.0034
0
LINE
8
0
10
-5.202473
20
509.72635
30
-2768.0034
11
-6.8297434
21
530.6052
31
-2775.0854
0
LINE
8
0
10
-6.8297434
20
530.6052
30
-2775.0854
11
-16.750635
21
509.26364
31
-2821.423
0
LINE
8
0
10
-5.202473
20
509.72635
30
-2768.0034
11
-16.750635
21
509.26364
31
-2821.423
0
LINE
8
0
10
-16.750635
20
509.26364
30
-2821.423
11
-27.141346
21
516.90625
31
-2779.6133
0
LINE
8
0
10
-27.141346
20
516.90625
30
-2779.6133
11
-5.202473
21
509.72635
31
-2768.0034
0
LINE
8
0
10
-27.141346
20
516.90625
30
-2779.6133
11
15.115944
21
514.52484
31
-2770.9153
0
LINE
8
0
10
15.115944
20
514.52484
30
-2770.9153
11
-5.202473
21
509.72635
31
-2768.0034
0
LINE
8
0
10
-5.202473
20
509.72635
30
-2768.0034
11
-27.141346
21
516.90625
31
-2779.6133
0
LINE
8
0
10
15.115944
20
514.52484
30
-2770.9153
11
-27.141346
21
516.90625
31
-2779.6133
0
LINE
8
0
10
-27.141346
20
516.90625
30
-2779.6133
11
-35.085896
21
509.05734
31
-2801.831
0
LINE
8
0
10
-35.085896
20
509.05734
30
-2801.831
11
15.115944
21
514.52484
31
-2770.9153
0
LINE
8
0
10
-35.085896
20
509.05734
30
-2801.831
11
2.4082384
21
515.6921
31
-2794.643
0
LINE
8
0
10
2.4082384
20
515.6921
30
-2794.643
11
15.115944
21
514.52484
31
-2770.9153
0
LINE
8
0
10
15.115944
20
514.52484
30
-2770.9153
11
-35.085896
21
509.05734
31
-2801.831
0
LINE
8
0
10
315.95355
20
-247.44925
30
-2855.5657
11
370.03546
21
-127.46871
31
-2851.2988
0
LINE
8
0
10
370.03546
20
-127.46871
30
-2851.2988
11
318.72
21
-113.45686
31
-2833.9358
0
LINE
8
0
10
318.72
20
-113.45686
30
-2833.9358
11
315.95355
21
-247.44925
31
-2855.5657
0
LINE
8
0
10
370.03546
20
-127.46871
30
-2851.2988
11
315.95355
21
-247.44925
31
-2855.5657
0
LINE
8
0
10
315.95355
20
-247.44925
30
-2855.5657
11
339.80142
21
-214.26013
31
-2802.2654
0
LINE
8
0
10
339.80142
20
-214.26013
30
-2802.2654
11
370.03546
21
-127.46871
31
-2851.2988
0
LINE
8
0
10
339.80142
20
-214.26013
30
-2802.2654
11
359.48087
21
-140.32379
31
-2854.3347
0
LINE
8
0
10
359.48087
20
-140.32379
30
-2854.3347
11
370.03546
21
-127.46871
31
-2851.2988
0
LINE
8
0
10
370.03546
20
-127.46871
30
-2851.2988
11
339.80142
21
-214.26013
31
-2802.2654
0
LINE
8
0
10
359.48087
20
-140.32379
30
-2854.3347
11
339.80142
21
-214.26013
31
-2802.2654
0
LINE
8
0
10
339.80142
20
-214.26013
30
-2802.2654
11
340.97604
21
-133.55054
31
-2864.7793
0
LINE
8
0
10
340.97604
20
-133.55054
30
-2864.7793
11
359.48087
21
-140.32379
31
-2854.3347
0
LINE
8
0
10
340.97604
20
-133.55054
30
-2864.7793
11
375.65167
21
-205.1379
31
-2825.581
0
LINE
8
0
10
375.65167
20
-205.1379
30
-2825.581
11
359.48087
21
-140.32379
31
-2854.3347
0
LINE
8
0
10
359.48087
20
-140.32379
30
-2854.3347
11
340.97604
21
-133.55054
31
-2864.7793
0
LINE
8
0
10
-426.46698
20
505.3036
30
-2346.3025
11
-399.73022
21
510.75623
31
-2355.1228
0
LINE
8
0
10
-399.73022
20
510.75623
30
-2355.1228
11
-403.88013
21
503.8291
31
-2329.8257
0
LINE
8
0
10
-403.88013
20
503.8291
30
-2329.8257
11
-426.46698
21
505.3036
31
-2346.3025
0
LINE
8
0
10
-399.73022
20
510.75623
30
-2355.1228
11
-426.46698
21
505.3036
31
-2346.3025
0
LINE
8
0
10
-426.46698
20
505.3036
30
-2346.3025
11
-400.34555
21
509.8008
31
-2326.1108
0
LINE
8
0
10
-400.34555
20
509.8008
30
-2326.1108
11
-399.73022
21
510.75623
31
-2355.1228
0
LINE
8
0
10
-400.34555
20
509.8008
30
-2326.1108
11
-411.2238
21
509.4741
31
-2330.3098
0
LINE
8
0
10
-411.2238
20
509.4741
30
-2330.3098
11
-399.73022
21
510.75623
31
-2355.1228
0
LINE
8
0
10
-399.73022
20
510.75623
30
-2355.1228
11
-400.34555
21
509.8008
31
-2326.1108
0
LINE
8
0
10
-411.2238
20
509.4741
30
-2330.3098
11
-400.34555
21
509.8008
31
-2326.1108
0
LINE
8
0
10
-400.34555
20
509.8008
30
-2326.1108
11
-421.32645
21
523.0175
31
-2335.6636
0
LINE
8
0
10
-421.32645
20
523.0175
30
-2335.6636
11
-411.2238
21
509.4741
31
-2330.3098
0
LINE
8
0
10
-421.32645
20
523.0175
30
-2335.6636
11
-409.89752
21
499.44357
31
-2342.574
0
LINE
8
0
10
-409.89752
20
499.44357
30
-2342.574
11
-411.2238
21
509.4741
31
-2330.3098
0
LINE
8
0
10
-411.2238
20
509.4741
30
-2330.3098
11
-421.32645
21
523.0175
31
-2335.6636
0
LINE
8
0
10
10.702404
20
-265.24426
30
-2832.352
11
-34.145714
21
-294.4458
31
-2773.7605
0
LINE
8
0
10
-34.145714
20
-294.4458
30
-2773.7605
11
26.390385
21
-310.59787
31
-2826.763
0
LINE
8
0
10
26.390385
20
-310.59787
30
-2826.763
11
10.702404
21
-265.24426
31
-2832.352
0
LINE
8
0
10
-34.145714
20
-294.4458
30
-2773.7605
11
10.702404
21
-265.24426
31
-2832.352
0
LINE
8
0
10
10.702404
20
-265.24426
30
-2832.352
11
8.134359
21
-240.47452
31
-2757.9592
0
LINE
8
0
10
8.134359
20
-240.47452
30
-2757.9592
11
-34.145714
21
-294.4458
31
-2773.7605
0
LINE
8
0
10
8.134359
20
-240.47452
30
-2757.9592
11
11.773264
21
-241.40155
31
-2785.5554
0
LINE
8
0
10
11.773264
20
-241.40155
30
-2785.5554
11
-34.145714
21
-294.4458
31
-2773.7605
0
LINE
8
0
10
-34.145714
20
-294.4458
30
-2773.7605
11
8.134359
21
-240.47452
31
-2757.9592
0
LINE
8
0
10
11.773264
20
-241.40155
30
-2785.5554
11
8.134359
21
-240.47452
31
-2757.9592
0
LINE
8
0
10
8.134359
20
-240.47452
30
-2757.9592
11
35.40238
21
-199.80289
31
-2808.8247
0
LINE
8
0
10
35.40238
20
-199.80289
30
-2808.8247
11
11.773264
21
-241.40155
31
-2785.5554
0
LINE
8
0
10
35.40238
20
-199.80289
30
-2808.8247
11
-9.461094
21
-286.15567
31
-2860.96
0
LINE
8
0
10
-9.461094
20
-286.15567
30
-2860.96
11
11.773264
21
-241.40155
31
-2785.5554
0
LINE
8
0
10
11.773264
20
-241.40155
30
-2785.5554
11
35.40238
21
-199.80289
31
-2808.8247
0
LINE
8
0
10
-26.27392
20
-54.14785
30
-1209.7623
11
-6.8680344
21
-99.93683
31
-1184.8829
0
LINE
8
0
10
-6.8680344
20
-99.93683
30
-1184.8829
11
-25.415127
21
-51.882812
31
-1271.1385
0
LINE
8
0
10
-25.415127
20
-51.882812
30
-1271.1385
11
-26.27392
21
-54.14785
31
-1209.7623
0
LINE
8
0
10
-6.8680344
20
-99.93683
30
-1184.8829
11
-26.27392
21
-54.14785
31
-1209.7623
0
LINE
8
0
10
-26.27392
20
-54.14785
30
-1209.7623
11
-73.60332
21
-158.92728
31
-1239.5034
0
LINE
8
0
10
-73.60332
20
-158.92728
30
-1239.5034
11
-6.8680344
21
-99.93683
31
-1184.8829
0
LINE
8
0
10
-73.60332
20
-158.92728
30
-1239.5034
11
-66.94823
21
-134.56955
31
-1202.6865
0
LINE
8
0
10
-66.94823
20
-134.56955
30
-1202.6865
11
-6.8680344
21
-99.93683
31
-1184.8829
0
LINE
8
0
10
-6.8680344
20
-99.93683
30
-1184.8829
11
-73.60332
21
-158.92728
31
-1239.5034
0
LINE
8
0
10
-66.94823
20
-134.56955
30
-1202.6865
11
-73.60332
21
-158.92728
31
-1239.5034
0
LINE
8
0
10
-73.60332
20
-158.92728
30
-1239.5034
11
-77.96489
21
-136.70618
31
-1248.447
0
LINE
8
0
10
-77.96489
20
-136.70618
30
-1248.447
11
-66.94823
21
-134.56955
31
-1202.6865
0
LINE
8
0
10
-77.96489
20
-136.70618
30
-1248.447
11
-31.627258
21
-110.95592
31
-1168.6711
0
LINE
8
0
10
-31.627258
20
-110.95592
30
-1168.6711
11
-66.94823
21
-134.56955
31
-1202.6865
0
LINE
8
0
10
-66.94823
20
-134.56955
30
-1202.6865
11
-77.96489
21
-136.70618
31
-1248.447
0
LINE
8
0
10
-265.7027
20
473.68274
30
-1731.7023
11
-273.23
21
423.2832
31
-1760.9249
0
LINE
8
0
10
-273.23
20
423.2832
30
-1760.9249
11
-233.91374
21
394.06427
31
-1771.8558
0
LINE
8
0
10
-233.91374
20
394.06427
30
-1771.8558
11
-265.7027
21
473.68274
31
-1731.7023
0
LINE
8
0
10
-273.23
20
423.2832
30
-1760.9249
11
-265.7027
21
473.68274
31
-1731.7023
0
LINE
8
0
10
-265.7027
20
473.68274
30
-1731.7023
11
-245.32098
21
423.23874
31
-1712.0364
0
LINE
8
0
10
-245.32098
20
423.23874
30
-1712.0364
11
-273.23
21
423.2832
31
-1760.9249
0
LINE
8
0
10
-245.32098
20
423.23874
30
-1712.0364
11
-243.83243
21
420.21326
31
-1710.9072
0
LINE
8
0
10
-243.83243
20
420.21326
30
-1710.9072
11
-273.23
21
423.2832
31
-1760.9249
0
LINE
8
0
10
-273.23
20
423.2832
30
-1760.9249
11
-245.32098
21
423.23874
31
-1712.0364
0
LINE
8
0
10
-243.83243
20
420.21326
30
-1710.9072
11
-245.32098
21
423.23874
31
-1712.0364
0
LINE
8
0
10
-245.32098
20
423.23874
30
-1712.0364
11
-268.53683
21
406.1354
31
-1771.4915
0
LINE
8
0
10
-268.53683
20
406.1354
30
-1771.4915
11
-243.83243
21
420.21326
31
-1710.9072
0
LINE
8
0
10
-268.53683
20
406.1354
30
-1771.4915
11
-261.93677
21
401.31717
31
-1796.5029
0
LINE
8
0
10
-261.93677
20
401.31717
30
-1796.5029
11
-243.83243
21
420.21326
31
-1710.9072
0
LINE
8
0
10
-243.83243
20
420.21326
30
-1710.9072
11
-268.53683
21
406.1354
31
-1771.4915
0
LINE
8
0
10
-473.94424
20
54.886444
30
-1862.8071
11
-346.51944
21
-21.545837
31
-1815.1255
0
LINE
8
0
10
-467.16183
20
58.792915
30
-1823.9114
11
-457.94608
21
57.076984
31
-1814.368
0
LINE
8
0
10
-457.94608
20
57.076984
30
-1814.368
11
-457.62668
21
41.728065
31
-1829.2241
0
LINE
8
0
10
-457.62668
20
41.728065
30
-1829.2241
11
-467.16183
21
58.792915
31
-1823.9114
0
LINE
8
0
10
-457.94608
20
57.076984
30
-1814.368
11
-467.16183
21
58.792915
31
-1823.9114
0
LINE
8
0
10
-467.16183
20
58.792915
30
-1823.9114
11
-470.76074
21
49.49407
31
-1829.3612
0
LINE
8
0
10
-470.76074
20
49.49407
30
-1829.3612
11
-457.94608
21
57.076984
31
-1814.368
0
LINE
8
0
10
-470.76074
20
49.49407
30
-1829.3612
11
-468.65732
21
86.96376
31
-1830.5332
0
LINE
8
0
10
-468.65732
20
86.96376
30
-1830.5332
11
-457.94608
21
57.076984
31
-1814.368
0
LINE
8
0
10
-457.94608
20
57.076984
30
-1814.368
11
-470.76074
21
49.49407
31
-1829.3612
0
LINE
8
0
10
-468.65732
20
86.96376
30
-1830.5332
11
-470.76074
21
49.49407
31
-1829.3612
0
LINE
8
0
10
-470.76074
20
49.49407
30
-1829.3612
11
-471.1543
21
87.99921
31
-1819.2745
0
LINE
8
0
10
-471.1543
20
87.99921
30
-1819.2745
11
-468.65732
21
86.96376
31
-1830.5332
0
LINE
8
0
10
-471.1543
20
87.99921
30
-1819.2745
11
-464.83652
21
83.166504
31
-1831.5463
0
LINE
8
0
10
-464.83652
20
83.166504
30
-1831.5463
11
-468.65732
21
86.96376
31
-1830.5332
0
LINE
8
0
10
-468.65732
20
86.96376
30
-1830.5332
11
-471.1543
21
87.99921
31
-1819.2745
0
LINE
8
0
10
228.87033
20
598.09326
30
-2313.5488
11
300.29276
21
493.03665
31
-2308.7656
0
LINE
8
0
10
228.87033
20
598.09326
30
-2313.5488
11
368.42355
21
526.8827
31
-2161.692
0
LINE
8
0
10
224.08072
20
616.8535
30
-2322.3943
11
175.72638
21
633.8491
31
-2283.1765
0
LINE
8
0
10
175.72638
20
633.8491
30
-2283.1765
11
200.14983
21
543.9063
31
-2315.9795
0
LINE
8
0
10
200.14983
20
543.9063
30
-2315.9795
11
224.08072
21
616.8535
31
-2322.3943
0
LINE
8
0
10
175.72638
20
633.8491
30
-2283.1765
11
224.08072
21
616.8535
31
-2322.3943
0
LINE
8
0
10
224.08072
20
616.8535
30
-2322.3943
11
225.72379
21
610.75183
31
-2355.9866
0
LINE
8
0
10
225.72379
20
610.75183
30
-2355.9866
11
175.72638
21
633.8491
31
-2283.1765
0
LINE
8
0
10
225.72379
20
610.75183
30
-2355.9866
11
227.5334
21
576.8843
31
-2351.208
0
LINE
8
0
10
227.5334
20
576.8843
30
-2351.208
11
175.72638
21
633.8491
31
-2283.1765
0
LINE
8
0
10
175.72638
20
633.8491
30
-2283.1765
11
225.72379
21
610.75183
31
-2355.9866
0
LINE
8
0
10
227.5334
20
576.8843
30
-2351.208
11
225.72379
21
610.75183
31
-2355.9866
0
LINE
8
0
10
225.72379
20
610.75183
30
-2355.9866
11
245.13588
21
616.1901
31
-2315.0432
0
LINE
8
0
10
245.13588
20
616.1901
30
-2315.0432
11
227.5334
21
576.8843
31
-2351.208
0
LINE
8
0
10
245.13588
20
616.1901
30
-2315.0432
11
173.81241
21
608.71765
31
-2331.765
0
LINE
8
0
10
173.81241
20
608.71765
30
-2331.765
11
227.5334
21
576.8843
31
-2351.208
0
LINE
8
0
10
227.5334
20
576.8843
30
-2351.208
11
245.13588
21
616.1901
31
-2315.0432
0
LINE
8
0
10
291.09296
20
508.2823
30
-1907.8973
11
263.9233
21
568.1878
31
-1887.8513
0
LINE
8
0
10
263.9233
20
568.1878
30
-1887.8513
11
240.13008
21
569.0742
31
-1886.0328
0
LINE
8
0
10
240.13008
20
569.0742
30
-1886.0328
11
291.09296
21
508.2823
31
-1907.8973
0
LINE
8
0
10
263.9233
20
568.1878
30
-1887.8513
11
291.09296
21
508.2823
31
-1907.8973
0
LINE
8
0
10
291.09296
20
508.2823
30
-1907.8973
11
285.2865
21
489.58762
31
-1890.5085
0
LINE
8
0
10
285.2865
20
489.58762
30
-1890.5085
11
263.9233
21
568.1878
31
-1887.8513
0
LINE
8
0
10
285.2865
20
489.58762
30
-1890.5085
11
330.45947
21
519.4092
31
-1953.0851
0
LINE
8
0
10
330.45947
20
519.4092
30
-1953.0851
11
263.9233
21
568.1878
31
-1887.8513
0
LINE
8
0
10
263.9233
20
568.1878
30
-1887.8513
11
285.2865
21
489.58762
31
-1890.5085
0
LINE
8
0
10
330.45947
20
519.4092
30
-1953.0851
11
285.2865
21
489.58762
31
-1890.5085
0
LINE
8
0
10
285.2865
20
489.58762
30
-1890.5085
11
333.0505
21
478.09222
31
-1970.5485
0
LINE
8
0
10
333.0505
20
478.09222
30
-1970.5485
11
330.45947
21
519.4092
31
-1953.0851
0
LINE
8
0
10
333.0505
20
478.09222
30
-1970.5485
11
278.3153
21
539.183
31
-1932.673
0
LINE
8
0
10
278.3153
20
539.183
30
-1932.673
11
330.45947
21
519.4092
31
-1953.0851
0
LINE
8
0
10
330.45947
20
519.4092
30
-1953.0851
11
333.0505
21
478.09222
31
-1970.5485
0
LINE
8
0
10
-129.01825
20
452.2819
30
-2613.739
11
-131.91411
21
451.8733
31
-2611.6023
0
LINE
8
0
10
-131.91411
20
451.8733
30
-2611.6023
11
-135.84288
21
452.98923
31
-2621.3474
0
LINE
8
0
10
-135.84288
20
452.98923
30
-2621.3474
11
-129.01825
21
452.2819
31
-2613.739
0
LINE
8
0
10
-131.91411
20
451.8733
30
-2611.6023
11
-129.01825
21
452.2819
31
-2613.739
0
LINE
8
0
10
-129.01825
20
452.2819
30
-2613.739
11
-130.37112
21
456.81628
31
-2614.1094
0
LINE
8
0
10
-130.37112
20
456.81628
30
-2614.1094
11
-131.91411
21
451.8733
31
-2611.6023
0
LINE
8
0
10
-130.37112
20
456.81628
30
-2614.1094
11
-134.39508
21
447.3143
31
-2622.1438
0
LINE
8
0
10
-134.39508
20
447.3143
30
-2622.1438
11
-131.91411
21
451.8733
31
-2611.6023
0
LINE
8
0
10
-131.91411
20
451.8733
30
-2611.6023
11
-130.37112
21
456.81628
31
-2614.1094
0
LINE
8
0
10
-134.39508
20
447.3143
30
-2622.1438
11
-130.37112
21
456.81628
31
-2614.1094
0
LINE
8
0
10
-130.37112
20
456.81628
30
-2614.1094
11
-144.00217
21
445.9172
31
-2624.7134
0
LINE
8
0
10
-144.00217
20
445.9172
30
-2624.7134
11
-134.39508
21
447.3143
31
-2622.1438
0
LINE
8
0
10
-144.00217
20
445.9172
30
-2624.7134
11
-139.52617
21
462.79227
31
-2620.0884
0
LINE
8
0
10
-139.52617
20
462.79227
30
-2620.0884
11
-134.39508
21
447.3143
31
-2622.1438
0
LINE
8
0
10
-134.39508
20
447.3143
30
-2622.1438
11
-144.00217
21
445.9172
31
-2624.7134
0
LINE
8
0
10
231.18385
20
555.6893
30
-2534.8289
11
190.8287
21
558.5137
31
-2521.6758
0
LINE
8
0
10
190.8287
20
558.5137
30
-2521.6758
11
213.664
21
565.0887
31
-2521.8477
0
LINE
8
0
10
213.664
20
565.0887
30
-2521.8477
11
231.18385
21
555.6893
31
-2534.8289
0
LINE
8
0
10
190.8287
20
558.5137
30
-2521.6758
11
231.18385
21
555.6893
31
-2534.8289
0
LINE
8
0
10
231.18385
20
555.6893
30
-2534.8289
11
192.27051
21
539.4403
31
-2506.4475
0
LINE
8
0
10
192.27051
20
539.4403
30
-2506.4475
11
190.8287
21
558.5137
31
-2521.6758
0
LINE
8
0
10
192.27051
20
539.4403
30
-2506.4475
11
160.85925
21
560.49634
31
-2532.1467
0
LINE
8
0
10
160.85925
20
560.49634
30
-2532.1467
11
190.8287
21
558.5137
31
-2521.6758
0
LINE
8
0
10
190.8287
20
558.5137
30
-2521.6758
11
192.27051
21
539.4403
31
-2506.4475
0
LINE
8
0
10
160.85925
20
560.49634
30
-2532.1467
11
192.27051
21
539.4403
31
-2506.4475
0
LINE
8
0
10
192.27051
20
539.4403
30
-2506.4475
11
235.14178
21
563.6012
31
-2519.5457
0
LINE
8
0
10
235.14178
20
563.6012
30
-2519.5457
11
160.85925
21
560.49634
31
-2532.1467
0
LINE
8
0
10
235.14178
20
563.6012
30
-2519.5457
11
200.39417
21
589.9459
31
-2535.841
0
LINE
8
0
10
200.39417
20
589.9459
30
-2535.841
11
160.85925
21
560.49634
31
-2532.1467
0
LINE
8
0
10
160.85925
20
560.49634
30
-2532.1467
11
235.14178
21
563.6012
31
-2519.5457
0
LINE
8
0
10
-346.89316
20
-19.783081
30
-1813.8131
11
-473.94424
21
54.886444
31
-1862.8071
0
LINE
8
0
10
-350.55612
20
-54.344612
30
-1856.6204
11
-360.51694
21
-63.20668
31
-1845.2971
0
LINE
8
0
10
-360.51694
20
-63.20668
30
-1845.2971
11
-347.86444
21
-45.716076
31
-1871.7195
0
LINE
8
0
10
-347.86444
20
-45.716076
30
-1871.7195
11
-350.55612
21
-54.344612
31
-1856.6204
0
LINE
8
0
10
-360.51694
20
-63.20668
30
-1845.2971
11
-350.55612
21
-54.344612
31
-1856.6204
0
LINE
8
0
10
-350.55612
20
-54.344612
30
-1856.6204
11
-393.10498
21
-26.68795
31
-1809.4042
0
LINE
8
0
10
-393.10498
20
-26.68795
30
-1809.4042
11
-360.51694
21
-63.20668
31
-1845.2971
0
LINE
8
0
10
-393.10498
20
-26.68795
30
-1809.4042
11
-376.79626
21
-23.088692
31
-1823.5573
0
LINE
8
0
10
-376.79626
20
-23.088692
30
-1823.5573
11
-360.51694
21
-63.20668
31
-1845.2971
0
LINE
8
0
10
-360.51694
20
-63.20668
30
-1845.2971
11
-393.10498
21
-26.68795
31
-1809.4042
0
LINE
8
0
10
-376.79626
20
-23.088692
30
-1823.5573
11
-393.10498
21
-26.68795
31
-1809.4042
0
LINE
8
0
10
-393.10498
20
-26.68795
30
-1809.4042
11
-379.73935
21
12.247566
31
-1782.2389
0
LINE
8
0
10
-379.73935
20
12.247566
30
-1782.2389
11
-376.79626
21
-23.088692
31
-1823.5573
0
LINE
8
0
10
-379.73935
20
12.247566
30
-1782.2389
11
-417.30484
21
-28.144485
31
-1831.4412
0
LINE
8
0
10
-417.30484
20
-28.144485
30
-1831.4412
11
-376.79626
21
-23.088692
31
-1823.5573
0
LINE
8
0
10
-376.79626
20
-23.088692
30
-1823.5573
11
-379.73935
21
12.247566
31
-1782.2389
0
LINE
8
0
10
481.54178
20
-16.399078
30
-2333.4626
11
533.59924
21
-132.01059
31
-2480.7915
0
LINE
8
0
10
473.1243
20
-55.85111
30
-2330.967
11
483.09302
21
15.637699
31
-2346.789
0
LINE
8
0
10
483.09302
20
15.637699
30
-2346.789
11
503.9531
21
-69.079834
31
-2329.8389
0
LINE
8
0
10
503.9531
20
-69.079834
30
-2329.8389
11
473.1243
21
-55.85111
31
-2330.967
0
LINE
8
0
10
483.09302
20
15.637699
30
-2346.789
11
473.1243
21
-55.85111
31
-2330.967
0
LINE
8
0
10
473.1243
20
-55.85111
30
-2330.967
11
491.01193
21
14.008339
31
-2381.706
0
LINE
8
0
10
491.01193
20
14.008339
30
-2381.706
11
483.09302
21
15.637699
31
-2346.789
0
LINE
8
0
10
491.01193
20
14.008339
30
-2381.706
11
445.99048
21
0.9617672
31
-2314.3953
0
LINE
8
0
10
445.99048
20
0.9617672
30
-2314.3953
11
483.09302
21
15.637699
31
-2346.789
0
LINE
8
0
10
483.09302
20
15.637699
30
-2346.789
11
491.01193
21
14.008339
31
-2381.706
0
LINE
8
0
10
445.99048
20
0.9617672
30
-2314.3953
11
491.01193
21
14.008339
31
-2381.706
0
LINE
8
0
10
491.01193
20
14.008339
30
-2381.706
11
451.95908
21
-19.416183
31
-2402.3254
0
LINE
8
0
10
451.95908
20
-19.416183
30
-2402.3254
11
445.99048
21
0.9617672
31
-2314.3953
0
LINE
8
0
10
451.95908
20
-19.416183
30
-2402.3254
11
495.8355
21
-62.82614
31
-2347.7712
0
LINE
8
0
10
495.8355
20
-62.82614
30
-2347.7712
11
445.99048
21
0.9617672
31
-2314.3953
0
LINE
8
0
10
445.99048
20
0.9617672
30
-2314.3953
11
451.95908
21
-19.416183
31
-2402.3254
0
LINE
8
0
10
-107.56015
20
489.3232
30
-2148.3406
11
-57.690247
21
592.29364
31
-2192.2441
0
LINE
8
0
10
-122.20679
20
461.36053
30
-2103.059
11
-80.713066
21
459.82446
31
-2148.3174
0
LINE
8
0
10
-80.713066
20
459.82446
30
-2148.3174
11
-98.17897
21
473.09436
31
-2152.6792
0
LINE
8
0
10
-98.17897
20
473.09436
30
-2152.6792
11
-122.20679
21
461.36053
31
-2103.059
0
LINE
8
0
10
-80.713066
20
459.82446
30
-2148.3174
11
-122.20679
21
461.36053
31
-2103.059
0
LINE
8
0
10
-122.20679
20
461.36053
30
-2103.059
11
-99.48103
21
472.7571
31
-2184.825
0
LINE
8
0
10
-99.48103
20
472.7571
30
-2184.825
11
-80.713066
21
459.82446
31
-2148.3174
0
LINE
8
0
10
-99.48103
20
472.7571
30
-2184.825
11
-102.42108
21
470.86154
31
-2174.0144
0
LINE
8
0
10
-102.42108
20
470.86154
30
-2174.0144
11
-80.713066
21
459.82446
31
-2148.3174
0
LINE
8
0
10
-80.713066
20
459.82446
30
-2148.3174
11
-99.48103
21
472.7571
31
-2184.825
0
LINE
8
0
10
-102.42108
20
470.86154
30
-2174.0144
11
-99.48103
21
472.7571
31
-2184.825
0
LINE
8
0
10
-99.48103
20
472.7571
30
-2184.825
11
-142.83241
21
463.54477
31
-2134.1382
0
LINE
8
0
10
-142.83241
20
463.54477
30
-2134.1382
11
-102.42108
21
470.86154
31
-2174.0144
0
LINE
8
0
10
-142.83241
20
463.54477
30
-2134.1382
11
-137.31134
21
457.01117
31
-2133.9583
0
LINE
8
0
10
-137.31134
20
457.01117
30
-2133.9583
11
-102.42108
21
470.86154
31
-2174.0144
0
LINE
8
0
10
-102.42108
20
470.86154
30
-2174.0144
11
-142.83241
21
463.54477
31
-2134.1382
0
LINE
8
0
10
367.66812
20
525.7179
30
-2163.3838
11
300.29276
21
493.03665
31
-2308.7656
0
LINE
8
0
10
367.66812
20
525.7179
30
-2163.3838
11
313.97778
21
374.54688
31
-2274.276
0
LINE
8
0
10
367.66812
20
525.7179
30
-2163.3838
11
228.87033
21
598.09326
31
-2313.5488
0
LINE
8
0
10
326.81934
20
521.4038
30
-2164.2322
11
360.25323
21
506.33047
31
-2213.897
0
LINE
8
0
10
360.25323
20
506.33047
30
-2213.897
11
391.27155
21
562.35815
31
-2206.4756
0
LINE
8
0
10
391.27155
20
562.35815
30
-2206.4756
11
326.81934
21
521.4038
31
-2164.2322
0
LINE
8
0
10
360.25323
20
506.33047
30
-2213.897
11
326.81934
21
521.4038
31
-2164.2322
0
LINE
8
0
10
326.81934
20
521.4038
30
-2164.2322
11
334.09317
21
487.91403
31
-2176.4636
0
LINE
8
0
10
334.09317
20
487.91403
30
-2176.4636
11
360.25323
21
506.33047
31
-2213.897
0
LINE
8
0
10
334.09317
20
487.91403
30
-2176.4636
11
358.8905
21
437.47925
31
-2169.335
0
LINE
8
0
10
358.8905
20
437.47925
30
-2169.335
11
360.25323
21
506.33047
31
-2213.897
0
LINE
8
0
10
360.25323
20
506.33047
30
-2213.897
11
334.09317
21
487.91403
31
-2176.4636
0
LINE
8
0
10
358.8905
20
437.47925
30
-2169.335
11
334.09317
21
487.91403
31
-2176.4636
0
LINE
8
0
10
334.09317
20
487.91403
30
-2176.4636
11
328.18015
21
507.68054
31
-2203.1707
0
LINE
8
0
10
328.18015
20
507.68054
30
-2203.1707
11
358.8905
21
437.47925
31
-2169.335
0
LINE
8
0
10
328.18015
20
507.68054
30
-2203.1707
11
368.52295
21
556.50366
31
-2127.9404
0
LINE
8
0
10
368.52295
20
556.50366
30
-2127.9404
11
358.8905
21
437.47925
31
-2169.335
0
LINE
8
0
10
358.8905
20
437.47925
30
-2169.335
11
328.18015
21
507.68054
31
-2203.1707
0
LINE
8
0
10
-241.19385
20
-326.51126
30
-2761.7126
11
-323.48688
21
-327.42227
31
-2773.5532
0
LINE
8
0
10
-323.48688
20
-327.42227
30
-2773.5532
11
-278.96262
21
-305.37048
31
-2744.69
0
LINE
8
0
10
-278.96262
20
-305.37048
30
-2744.69
11
-241.19385
21
-326.51126
31
-2761.7126
0
LINE
8
0
10
-323.48688
20
-327.42227
30
-2773.5532
11
-241.19385
21
-326.51126
31
-2761.7126
0
LINE
8
0
10
-241.19385
20
-326.51126
30
-2761.7126
11
-290.62933
21
-321.33688
31
-2714.9294
0
LINE
8
0
10
-290.62933
20
-321.33688
30
-2714.9294
11
-323.48688
21
-327.42227
31
-2773.5532
0
LINE
8
0
10
-290.62933
20
-321.33688
30
-2714.9294
11
-288.15704
21
-295.2469
31
-2752.9395
0
LINE
8
0
10
-288.15704
20
-295.2469
30
-2752.9395
11
-323.48688
21
-327.42227
31
-2773.5532
0
LINE
8
0
10
-323.48688
20
-327.42227
30
-2773.5532
11
-290.62933
21
-321.33688
31
-2714.9294
0
LINE
8
0
10
-288.15704
20
-295.2469
30
-2752.9395
11
-290.62933
21
-321.33688
31
-2714.9294
0
LINE
8
0
10
-290.62933
20
-321.33688
30
-2714.9294
11
-261.3274
21
-271.81787
31
-2735.7578
0
LINE
8
0
10
-261.3274
20
-271.81787
30
-2735.7578
11
-288.15704
21
-295.2469
31
-2752.9395
0
LINE
8
0
10
-261.3274
20
-271.81787
30
-2735.7578
11
-296.1994
21
-298.59534
31
-2765.074
0
LINE
8
0
10
-296.1994
20
-298.59534
30
-2765.074
11
-288.15704
21
-295.2469
31
-2752.9395
0
LINE
8
0
10
-288.15704
20
-295.2469
30
-2752.9395
11
-261.3274
21
-271.81787
31
-2735.7578
0
LINE
8
0
10
209.79993
20
401.43964
30
-1889.2491
11
93.10208
21
397.523
31
-1900.231
0
LINE
8
0
10
209.79993
20
401.43964
30
-1889.2491
11
302.84067
21
514.0242
31
-1898.377
0
LINE
8
0
10
205.61365
20
406.46234
30
-1879.3616
11
187.61688
21
409.72754
31
-1888.3643
0
LINE
8
0
10
187.61688
20
409.72754
30
-1888.3643
11
259.69238
21
396.66824
31
-1869.431
0
LINE
8
0
10
259.69238
20
396.66824
30
-1869.431
11
205.61365
21
406.46234
31
-1879.3616
0
LINE
8
0
10
187.61688
20
409.72754
30
-1888.3643
11
205.61365
21
406.46234
31
-1879.3616
0
LINE
8
0
10
205.61365
20
406.46234
30
-1879.3616
11
203.88396
21
390.23325
31
-1839.7115
0
LINE
8
0
10
203.88396
20
390.23325
30
-1839.7115
11
187.61688
21
409.72754
31
-1888.3643
0
LINE
8
0
10
203.88396
20
390.23325
30
-1839.7115
11
172.20935
21
433.17535
31
-1861.2252
0
LINE
8
0
10
172.20935
20
433.17535
30
-1861.2252
11
187.61688
21
409.72754
31
-1888.3643
0
LINE
8
0
10
187.61688
20
409.72754
30
-1888.3643
11
203.88396
21
390.23325
31
-1839.7115
0
LINE
8
0
10
172.20935
20
433.17535
30
-1861.2252
11
203.88396
21
390.23325
31
-1839.7115
0
LINE
8
0
10
203.88396
20
390.23325
30
-1839.7115
11
192.71465
21
398.32693
31
-1845.5916
0
LINE
8
0
10
192.71465
20
398.32693
30
-1845.5916
11
172.20935
21
433.17535
31
-1861.2252
0
LINE
8
0
10
192.71465
20
398.32693
30
-1845.5916
11
184.32953
21
372.11523
31
-1863.1263
0
LINE
8
0
10
184.32953
20
372.11523
30
-1863.1263
11
172.20935
21
433.17535
31
-1861.2252
0
LINE
8
0
10
172.20935
20
433.17535
30
-1861.2252
11
192.71465
21
398.32693
31
-1845.5916
0
LINE
8
0
10
-58.787582
20
570.9882
30
-2136.5376
11
-53.691246
21
596.7677
31
-2159.8745
0
LINE
8
0
10
-53.691246
20
596.7677
30
-2159.8745
11
-53.961864
21
594.7738
31
-2146.3296
0
LINE
8
0
10
-53.961864
20
594.7738
30
-2146.3296
11
-58.787582
21
570.9882
31
-2136.5376
0
LINE
8
0
10
-53.691246
20
596.7677
30
-2159.8745
11
-58.787582
21
570.9882
31
-2136.5376
0
LINE
8
0
10
-58.787582
20
570.9882
30
-2136.5376
11
-49.15982
21
609.7164
31
-2139.049
0
LINE
8
0
10
-49.15982
20
609.7164
30
-2139.049
11
-53.691246
21
596.7677
31
-2159.8745
0
LINE
8
0
10
-49.15982
20
609.7164
30
-2139.049
11
-53.134415
21
596.3265
31
-2135.6133
0
LINE
8
0
10
-53.134415
20
596.3265
30
-2135.6133
11
-53.691246
21
596.7677
31
-2159.8745
0
LINE
8
0
10
-53.691246
20
596.7677
30
-2159.8745
11
-49.15982
21
609.7164
31
-2139.049
0
LINE
8
0
10
-53.134415
20
596.3265
30
-2135.6133
11
-49.15982
21
609.7164
31
-2139.049
0
LINE
8
0
10
-49.15982
20
609.7164
30
-2139.049
11
-74.89191
21
590.72284
31
-2147.3606
0
LINE
8
0
10
-74.89191
20
590.72284
30
-2147.3606
11
-53.134415
21
596.3265
31
-2135.6133
0
LINE
8
0
10
-74.89191
20
590.72284
30
-2147.3606
11
-61.17606
21
610.0719
31
-2129.8398
0
LINE
8
0
10
-61.17606
20
610.0719
30
-2129.8398
11
-53.134415
21
596.3265
31
-2135.6133
0
LINE
8
0
10
-53.134415
20
596.3265
30
-2135.6133
11
-74.89191
21
590.72284
31
-2147.3606
0
LINE
8
0
10
303.0906
20
447.71677
30
-2739.5444
11
272.6446
21
403.31003
31
-2792.0918
0
LINE
8
0
10
272.6446
20
403.31003
30
-2792.0918
11
302.3006
21
406.3331
31
-2731.1292
0
LINE
8
0
10
302.3006
20
406.3331
30
-2731.1292
11
303.0906
21
447.71677
31
-2739.5444
0
LINE
8
0
10
272.6446
20
403.31003
30
-2792.0918
11
303.0906
21
447.71677
31
-2739.5444
0
LINE
8
0
10
303.0906
20
447.71677
30
-2739.5444
11
203.18903
21
400.2401
31
-2759.547
0
LINE
8
0
10
203.18903
20
400.2401
30
-2759.547
11
272.6446
21
403.31003
31
-2792.0918
0
LINE
8
0
10
203.18903
20
400.2401
30
-2759.547
11
297.52133
21
390.798
31
-2748.2646
0
LINE
8
0
10
297.52133
20
390.798
30
-2748.2646
11
272.6446
21
403.31003
31
-2792.0918
0
LINE
8
0
10
272.6446
20
403.31003
30
-2792.0918
11
203.18903
21
400.2401
31
-2759.547
0
LINE
8
0
10
297.52133
20
390.798
30
-2748.2646
11
203.18903
21
400.2401
31
-2759.547
0
LINE
8
0
10
203.18903
20
400.2401
30
-2759.547
11
221.45859
21
401.644
31
-2757.7344
0
LINE
8
0
10
221.45859
20
401.644
30
-2757.7344
11
297.52133
21
390.798
31
-2748.2646
0
LINE
8
0
10
221.45859
20
401.644
30
-2757.7344
11
259.6891
21
476.86
31
-2739.863
0
LINE
8
0
10
259.6891
20
476.86
30
-2739.863
11
297.52133
21
390.798
31
-2748.2646
0
LINE
8
0
10
297.52133
20
390.798
30
-2748.2646
11
221.45859
21
401.644
31
-2757.7344
0
LINE
8
0
10
516.2111
20
-141.20334
30
-2431.2698
11
543.13947
21
-122.63223
31
-2426.6338
0
LINE
8
0
10
543.13947
20
-122.63223
30
-2426.6338
11
535.2073
21
-137.98988
31
-2427.321
0
LINE
8
0
10
535.2073
20
-137.98988
30
-2427.321
11
516.2111
21
-141.20334
31
-2431.2698
0
LINE
8
0
10
543.13947
20
-122.63223
30
-2426.6338
11
516.2111
21
-141.20334
31
-2431.2698
0
LINE
8
0
10
516.2111
20
-141.20334
30
-2431.2698
11
522.71674
21
-136.34966
31
-2422.6536
0
LINE
8
0
10
522.71674
20
-136.34966
30
-2422.6536
11
543.13947
21
-122.63223
31
-2426.6338
0
LINE
8
0
10
522.71674
20
-136.34966
30
-2422.6536
11
531.7142
21
-149.95723
31
-2424.1702
0
LINE
8
0
10
531.7142
20
-149.95723
30
-2424.1702
11
543.13947
21
-122.63223
31
-2426.6338
0
LINE
8
0
10
543.13947
20
-122.63223
30
-2426.6338
11
522.71674
21
-136.34966
31
-2422.6536
0
LINE
8
0
10
531.7142
20
-149.95723
30
-2424.1702
11
522.71674
21
-136.34966
31
-2422.6536
0
LINE
8
0
10
522.71674
20
-136.34966
30
-2422.6536
11
539.0828
21
-120.106255
31
-2434.313
0
LINE
8
0
10
539.0828
20
-120.106255
30
-2434.313
11
531.7142
21
-149.95723
31
-2424.1702
0
LINE
8
0
10
539.0828
20
-120.106255
30
-2434.313
11
542.17786
21
-117.718506
31
-2424.5574
0
LINE
8
0
10
542.17786
20
-117.718506
30
-2424.5574
11
531.7142
21
-149.95723
31
-2424.1702
0
LINE
8
0
10
531.7142
20
-149.95723
30
-2424.1702
11
539.0828
21
-120.106255
31
-2434.313
0
LINE
8
0
10
318.4894
20
955.07166
30
-2451.0605
11
329.65817
21
959.74835
31
-2454.854
0
LINE
8
0
10
329.65817
20
959.74835
30
-2454.854
11
318.65518
21
956.107
31
-2445.6182
0
LINE
8
0
10
318.65518
20
956.107
30
-2445.6182
11
318.4894
21
955.07166
31
-2451.0605
0
LINE
8
0
10
329.65817
20
959.74835
30
-2454.854
11
318.4894
21
955.07166
31
-2451.0605
0
LINE
8
0
10
318.4894
20
955.07166
30
-2451.0605
11
334.5039
21
946.8648
31
-2457.2683
0
LINE
8
0
10
334.5039
20
946.8648
30
-2457.2683
11
329.65817
21
959.74835
31
-2454.854
0
LINE
8
0
10
334.5039
20
946.8648
30
-2457.2683
11
328.1675
21
945.75555
31
-2454.6736
0
LINE
8
0
10
328.1675
20
945.75555
30
-2454.6736
11
329.65817
21
959.74835
31
-2454.854
0
LINE
8
0
10
329.65817
20
959.74835
30
-2454.854
11
334.5039
21
946.8648
31
-2457.2683
0
LINE
8
0
10
328.1675
20
945.75555
30
-2454.6736
11
334.5039
21
946.8648
31
-2457.2683
0
LINE
8
0
10
334.5039
20
946.8648
30
-2457.2683
11
334.52823
21
955.5348
31
-2456.4963
0
LINE
8
0
10
334.52823
20
955.5348
30
-2456.4963
11
328.1675
21
945.75555
31
-2454.6736
0
LINE
8
0
10
334.52823
20
955.5348
30
-2456.4963
11
333.92877
21
949.40424
31
-2449.1553
0
LINE
8
0
10
333.92877
20
949.40424
30
-2449.1553
11
328.1675
21
945.75555
31
-2454.6736
0
LINE
8
0
10
328.1675
20
945.75555
30
-2454.6736
11
334.52823
21
955.5348
31
-2456.4963
0
LINE
8
0
10
313.76962
20
373.84198
30
-2275.6821
11
300.29276
21
493.03665
31
-2308.7656
0
LINE
8
0
10
313.53775
20
374.8389
30
-2234.9976
11
321.45972
21
383.89886
31
-2235.7249
0
LINE
8
0
10
321.45972
20
383.89886
30
-2235.7249
11
301.04257
21
374.5281
31
-2231.4539
0
LINE
8
0
10
301.04257
20
374.5281
30
-2231.4539
11
313.53775
21
374.8389
31
-2234.9976
0
LINE
8
0
10
321.45972
20
383.89886
30
-2235.7249
11
313.53775
21
374.8389
31
-2234.9976
0
LINE
8
0
10
313.53775
20
374.8389
30
-2234.9976
11
323.85858
21
372.23743
31
-2219.818
0
LINE
8
0
10
323.85858
20
372.23743
30
-2219.818
11
321.45972
21
383.89886
31
-2235.7249
0
LINE
8
0
10
323.85858
20
372.23743
30
-2219.818
11
309.96606
21
371.0573
31
-2202.1855
0
LINE
8
0
10
309.96606
20
371.0573
30
-2202.1855
11
321.45972
21
383.89886
31
-2235.7249
0
LINE
8
0
10
321.45972
20
383.89886
30
-2235.7249
11
323.85858
21
372.23743
31
-2219.818
0
LINE
8
0
10
309.96606
20
371.0573
30
-2202.1855
11
323.85858
21
372.23743
31
-2219.818
0
LINE
8
0
10
323.85858
20
372.23743
30
-2219.818
11
298.03345
21
365.7795
31
-2242.3423
0
LINE
8
0
10
298.03345
20
365.7795
30
-2242.3423
11
309.96606
21
371.0573
31
-2202.1855
0
LINE
8
0
10
298.03345
20
365.7795
30
-2242.3423
11
310.2733
21
376.82092
31
-2248.9553
0
LINE
8
0
10
310.2733
20
376.82092
30
-2248.9553
11
309.96606
21
371.0573
31
-2202.1855
0
LINE
8
0
10
309.96606
20
371.0573
30
-2202.1855
11
298.03345
21
365.7795
31
-2242.3423
0
LINE
8
0
10
155.91725
20
-510.52603
30
-2538.9895
11
125.170044
21
-495.0525
31
-2539.7034
0
LINE
8
0
10
125.170044
20
-495.0525
30
-2539.7034
11
160.41373
21
-515.4356
31
-2533.9792
0
LINE
8
0
10
160.41373
20
-515.4356
30
-2533.9792
11
155.91725
21
-510.52603
31
-2538.9895
0
LINE
8
0
10
125.170044
20
-495.0525
30
-2539.7034
11
155.91725
21
-510.52603
31
-2538.9895
0
LINE
8
0
10
155.91725
20
-510.52603
30
-2538.9895
11
176.71094
21
-468.39642
31
-2506.177
0
LINE
8
0
10
176.71094
20
-468.39642
30
-2506.177
11
125.170044
21
-495.0525
31
-2539.7034
0
LINE
8
0
10
176.71094
20
-468.39642
30
-2506.177
11
161.57164
21
-470.20767
31
-2562.648
0
LINE
8
0
10
161.57164
20
-470.20767
30
-2562.648
11
125.170044
21
-495.0525
31
-2539.7034
0
LINE
8
0
10
125.170044
20
-495.0525
30
-2539.7034
11
176.71094
21
-468.39642
31
-2506.177
0
LINE
8
0
10
161.57164
20
-470.20767
30
-2562.648
11
176.71094
21
-468.39642
31
-2506.177
0
LINE
8
0
10
176.71094
20
-468.39642
30
-2506.177
11
150.41861
21
-447.71667
31
-2494.5432
0
LINE
8
0
10
150.41861
20
-447.71667
30
-2494.5432
11
161.57164
21
-470.20767
31
-2562.648
0
LINE
8
0
10
150.41861
20
-447.71667
30
-2494.5432
11
144.45126
21
-493.9604
31
-2555.3503
0
LINE
8
0
10
144.45126
20
-493.9604
30
-2555.3503
11
161.57164
21
-470.20767
31
-2562.648
0
LINE
8
0
10
161.57164
20
-470.20767
30
-2562.648
11
150.41861
21
-447.71667
31
-2494.5432
0
LINE
8
0
10
-815.00586
20
-74.671425
30
-2078.8115
11
-709.6326
21
-76.29067
31
-2017.0315
0
LINE
8
0
10
-709.6326
20
-76.29067
30
-2017.0315
11
-753.2777
21
-47.152405
31
-1977.141
0
LINE
8
0
10
-753.2777
20
-47.152405
30
-1977.141
11
-815.00586
21
-74.671425
31
-2078.8115
0
LINE
8
0
10
-709.6326
20
-76.29067
30
-2017.0315
11
-815.00586
21
-74.671425
31
-2078.8115
0
LINE
8
0
10
-815.00586
20
-74.671425
30
-2078.8115
11
-699.56824
21
-47.043156
31
-2076.5654
0
LINE
8
0
10
-699.56824
20
-47.043156
30
-2076.5654
11
-709.6326
21
-76.29067
31
-2017.0315
0
LINE
8
0
10
-699.56824
20
-47.043156
30
-2076.5654
11
-779.9848
21
-34.999245
31
-2061.7559
0
LINE
8
0
10
-779.9848
20
-34.999245
30
-2061.7559
11
-709.6326
21
-76.29067
31
-2017.0315
0
LINE
8
0
10
-709.6326
20
-76.29067
30
-2017.0315
11
-699.56824
21
-47.043156
31
-2076.5654
0
LINE
8
0
10
-779.9848
20
-34.999245
30
-2061.7559
11
-699.56824
21
-47.043156
31
-2076.5654
0
LINE
8
0
10
-699.56824
20
-47.043156
30
-2076.5654
11
-802.9049
21
13.425331
31
-2004.2186
0
LINE
8
0
10
-802.9049
20
13.425331
30
-2004.2186
11
-779.9848
21
-34.999245
31
-2061.7559
0
LINE
8
0
10
-802.9049
20
13.425331
30
-2004.2186
11
-783.259
21
-36.57467
31
-2002.1407
0
LINE
8
0
10
-783.259
20
-36.57467
30
-2002.1407
11
-779.9848
21
-34.999245
31
-2061.7559
0
LINE
8
0
10
-779.9848
20
-34.999245
30
-2061.7559
11
-802.9049
21
13.425331
31
-2004.2186
0
LINE
8
0
10
-61.67604
20
458.9552
30
-2511.5037
11
-93.79992
21
394.6565
31
-2509.5908
0
LINE
8
0
10
-93.79992
20
394.6565
30
-2509.5908
11
-122.142525
21
401.22372
31
-2526.2761
0
LINE
8
0
10
-122.142525
20
401.22372
30
-2526.2761
11
-61.67604
21
458.9552
31
-2511.5037
0
LINE
8
0
10
-93.79992
20
394.6565
30
-2509.5908
11
-61.67604
21
458.9552
31
-2511.5037
0
LINE
8
0
10
-61.67604
20
458.9552
30
-2511.5037
11
-130.58604
21
432.89728
31
-2523.9648
0
LINE
8
0
10
-130.58604
20
432.89728
30
-2523.9648
11
-93.79992
21
394.6565
31
-2509.5908
0
LINE
8
0
10
-130.58604
20
432.89728
30
-2523.9648
11
-83.403465
21
466.2176
31
-2488.4329
0
LINE
8
0
10
-83.403465
20
466.2176
30
-2488.4329
11
-93.79992
21
394.6565
31
-2509.5908
0
LINE
8
0
10
-93.79992
20
394.6565
30
-2509.5908
11
-130.58604
21
432.89728
31
-2523.9648
0
LINE
8
0
10
-83.403465
20
466.2176
30
-2488.4329
11
-130.58604
21
432.89728
31
-2523.9648
0
LINE
8
0
10
-130.58604
20
432.89728
30
-2523.9648
11
-113.17773
21
388.7958
31
-2492.2803
0
LINE
8
0
10
-113.17773
20
388.7958
30
-2492.2803
11
-83.403465
21
466.2176
31
-2488.4329
0
LINE
8
0
10
-113.17773
20
388.7958
30
-2492.2803
11
-120.66622
21
405.93564
31
-2523.1904
0
LINE
8
0
10
-120.66622
20
405.93564
30
-2523.1904
11
-83.403465
21
466.2176
31
-2488.4329
0
LINE
8
0
10
-83.403465
20
466.2176
30
-2488.4329
11
-113.17773
21
388.7958
31
-2492.2803
0
LINE
8
0
10
-104.83497
20
322.29996
30
-2379.5547
11
-93.99553
21
318.8972
31
-2392.4834
0
LINE
8
0
10
-93.99553
20
318.8972
30
-2392.4834
11
-118.22562
21
325.96396
31
-2389.7805
0
LINE
8
0
10
-118.22562
20
325.96396
30
-2389.7805
11
-104.83497
21
322.29996
31
-2379.5547
0
LINE
8
0
10
-93.99553
20
318.8972
30
-2392.4834
11
-104.83497
21
322.29996
31
-2379.5547
0
LINE
8
0
10
-104.83497
20
322.29996
30
-2379.5547
11
-114.2754
21
335.784
31
-2381.8486
0
LINE
8
0
10
-114.2754
20
335.784
30
-2381.8486
11
-93.99553
21
318.8972
31
-2392.4834
0
LINE
8
0
10
-114.2754
20
335.784
30
-2381.8486
11
-106.808304
21
338.02597
31
-2387.0496
0
LINE
8
0
10
-106.808304
20
338.02597
30
-2387.0496
11
-93.99553
21
318.8972
31
-2392.4834
0
LINE
8
0
10
-93.99553
20
318.8972
30
-2392.4834
11
-114.2754
21
335.784
31
-2381.8486
0
LINE
8
0
10
-106.808304
20
338.02597
30
-2387.0496
11
-114.2754
21
335.784
31
-2381.8486
0
LINE
8
0
10
-114.2754
20
335.784
30
-2381.8486
11
-103.97378
21
333.18222
31
-2396.4683
0
LINE
8
0
10
-103.97378
20
333.18222
30
-2396.4683
11
-106.808304
21
338.02597
31
-2387.0496
0
LINE
8
0
10
-103.97378
20
333.18222
30
-2396.4683
11
-106.97483
21
327.45123
31
-2385.6755
0
LINE
8
0
10
-106.97483
20
327.45123
30
-2385.6755
11
-106.808304
21
338.02597
31
-2387.0496
0
LINE
8
0
10
-106.808304
20
338.02597
30
-2387.0496
11
-103.97378
21
333.18222
31
-2396.4683
0
LINE
8
0
10
-135.26193
20
-152.15475
30
-2575.184
11
-131.70033
21
-154.98947
31
-2582.8757
0
LINE
8
0
10
-131.70033
20
-154.98947
30
-2582.8757
11
-97.81026
21
-161.99744
31
-2559.6626
0
LINE
8
0
10
-97.81026
20
-161.99744
30
-2559.6626
11
-135.26193
21
-152.15475
31
-2575.184
0
LINE
8
0
10
-131.70033
20
-154.98947
30
-2582.8757
11
-135.26193
21
-152.15475
31
-2575.184
0
LINE
8
0
10
-135.26193
20
-152.15475
30
-2575.184
11
-113.118515
21
-145.38472
31
-2536.248
0
LINE
8
0
10
-113.118515
20
-145.38472
30
-2536.248
11
-131.70033
21
-154.98947
31
-2582.8757
0
LINE
8
0
10
-113.118515
20
-145.38472
30
-2536.248
11
-77.75044
21
-143.77243
31
-2549.8528
0
LINE
8
0
10
-77.75044
20
-143.77243
30
-2549.8528
11
-131.70033
21
-154.98947
31
-2582.8757
0
LINE
8
0
10
-131.70033
20
-154.98947
30
-2582.8757
11
-113.118515
21
-145.38472
31
-2536.248
0
LINE
8
0
10
-77.75044
20
-143.77243
30
-2549.8528
11
-113.118515
21
-145.38472
31
-2536.248
0
LINE
8
0
10
-113.118515
20
-145.38472
30
-2536.248
11
-131.38594
21
-149.45975
31
-2577.2832
0
LINE
8
0
10
-131.38594
20
-149.45975
30
-2577.2832
11
-77.75044
21
-143.77243
31
-2549.8528
0
LINE
8
0
10
-131.38594
20
-149.45975
30
-2577.2832
11
-96.53554
21
-104.24401
31
-2579.0676
0
LINE
8
0
10
-96.53554
20
-104.24401
30
-2579.0676
11
-77.75044
21
-143.77243
31
-2549.8528
0
LINE
8
0
10
-77.75044
20
-143.77243
30
-2549.8528
11
-131.38594
21
-149.45975
31
-2577.2832
0
LINE
8
0
10
-371.19745
20
518.6751
30
-2273.1636
11
-310.7798
21
456.58582
31
-2228.8354
0
LINE
8
0
10
-360.6463
20
522.3206
30
-2208.2087
11
-359.17264
21
519.03467
31
-2209.5442
0
LINE
8
0
10
-359.17264
20
519.03467
30
-2209.5442
11
-360.04
21
517.02783
31
-2211.2407
0
LINE
8
0
10
-360.04
20
517.02783
30
-2211.2407
11
-360.6463
21
522.3206
31
-2208.2087
0
LINE
8
0
10
-359.17264
20
519.03467
30
-2209.5442
11
-360.6463
21
522.3206
31
-2208.2087
0
LINE
8
0
10
-360.6463
20
522.3206
30
-2208.2087
11
-362.33887
21
514.4491
31
-2214.9612
0
LINE
8
0
10
-362.33887
20
514.4491
30
-2214.9612
11
-359.17264
21
519.03467
31
-2209.5442
0
LINE
8
0
10
-362.33887
20
514.4491
30
-2214.9612
11
-373.90073
21
505.2437
31
-2206.29
0
LINE
8
0
10
-373.90073
20
505.2437
30
-2206.29
11
-359.17264
21
519.03467
31
-2209.5442
0
LINE
8
0
10
-359.17264
20
519.03467
30
-2209.5442
11
-362.33887
21
514.4491
31
-2214.9612
0
LINE
8
0
10
-373.90073
20
505.2437
30
-2206.29
11
-362.33887
21
514.4491
31
-2214.9612
0
LINE
8
0
10
-362.33887
20
514.4491
30
-2214.9612
11
-366.21844
21
517.725
31
-2196.3867
0
LINE
8
0
10
-366.21844
20
517.725
30
-2196.3867
11
-373.90073
21
505.2437
31
-2206.29
0
LINE
8
0
10
-366.21844
20
517.725
30
-2196.3867
11
-359.24655
21
514.38556
31
-2198.6226
0
LINE
8
0
10
-359.24655
20
514.38556
30
-2198.6226
11
-373.90073
21
505.2437
31
-2206.29
0
LINE
8
0
10
-373.90073
20
505.2437
30
-2206.29
11
-366.21844
21
517.725
31
-2196.3867
0
LINE
8
0
10
93.87256
20
397.48715
30
-1902.0303
11
-3.3391113
21
528.39044
31
-1849.7749
0
LINE
8
0
10
93.87256
20
397.48715
30
-1902.0303
11
4.438965
21
567.7705
31
-1800.8696
0
LINE
8
0
10
93.87256
20
397.48715
30
-1902.0303
11
209.79993
21
401.43964
31
-1889.2491
0
LINE
8
0
10
69.27788
20
400.45557
30
-1845.4075
11
105.52282
21
425.02963
31
-1903.2788
0
LINE
8
0
10
105.52282
20
425.02963
30
-1903.2788
11
109.558754
21
424.8623
31
-1888.8688
0
LINE
8
0
10
109.558754
20
424.8623
30
-1888.8688
11
69.27788
21
400.45557
31
-1845.4075
0
LINE
8
0
10
105.52282
20
425.02963
30
-1903.2788
11
69.27788
21
400.45557
31
-1845.4075
0
LINE
8
0
10
69.27788
20
400.45557
30
-1845.4075
11
127.85292
21
363.92596
31
-1890.7446
0
LINE
8
0
10
127.85292
20
363.92596
30
-1890.7446
11
105.52282
21
425.02963
31
-1903.2788
0
LINE
8
0
10
127.85292
20
363.92596
30
-1890.7446
11
117.56926
21
363.1227
31
-1890.8418
0
LINE
8
0
10
117.56926
20
363.1227
30
-1890.8418
11
105.52282
21
425.02963
31
-1903.2788
0
LINE
8
0
10
105.52282
20
425.02963
30
-1903.2788
11
127.85292
21
363.92596
31
-1890.7446
0
LINE
8
0
10
117.56926
20
363.1227
30
-1890.8418
11
127.85292
21
363.92596
31
-1890.7446
0
LINE
8
0
10
127.85292
20
363.92596
30
-1890.7446
11
142.23605
21
399.7297
31
-1865.7477
0
LINE
8
0
10
142.23605
20
399.7297
30
-1865.7477
11
117.56926
21
363.1227
31
-1890.8418
0
LINE
8
0
10
142.23605
20
399.7297
30
-1865.7477
11
63.688576
21
437.8085
31
-1871.0846
0
LINE
8
0
10
63.688576
20
437.8085
30
-1871.0846
11
117.56926
21
363.1227
31
-1890.8418
0
LINE
8
0
10
117.56926
20
363.1227
30
-1890.8418
11
142.23605
21
399.7297
31
-1865.7477
0
LINE
8
0
10
-20.141857
20
512.4579
30
-1794.3695
11
14.416626
21
594.7762
31
-1791.1824
0
LINE
8
0
10
14.416626
20
594.7762
30
-1791.1824
11
62.964737
21
575.31964
31
-1803.9513
0
LINE
8
0
10
62.964737
20
575.31964
30
-1803.9513
11
-20.141857
21
512.4579
31
-1794.3695
0
LINE
8
0
10
14.416626
20
594.7762
30
-1791.1824
11
-20.141857
21
512.4579
31
-1794.3695
0
LINE
8
0
10
-20.141857
20
512.4579
30
-1794.3695
11
2.0718155
21
612.30566
31
-1823.3173
0
LINE
8
0
10
2.0718155
20
612.30566
30
-1823.3173
11
14.416626
21
594.7762
31
-1791.1824
0
LINE
8
0
10
2.0718155
20
612.30566
30
-1823.3173
11
2.4872026
21
556.9855
31
-1775.5201
0
LINE
8
0
10
2.4872026
20
556.9855
30
-1775.5201
11
14.416626
21
594.7762
31
-1791.1824
0
LINE
8
0
10
14.416626
20
594.7762
30
-1791.1824
11
2.0718155
21
612.30566
31
-1823.3173
0
LINE
8
0
10
2.4872026
20
556.9855
30
-1775.5201
11
2.0718155
21
612.30566
31
-1823.3173
0
LINE
8
0
10
2.0718155
20
612.30566
30
-1823.3173
11
-5.633543
21
586.8003
31
-1792.9327
0
LINE
8
0
10
-5.633543
20
586.8003
30
-1792.9327
11
2.4872026
21
556.9855
31
-1775.5201
0
LINE
8
0
10
-5.633543
20
586.8003
30
-1792.9327
11
39.984165
21
579.2511
31
-1832.0952
0
LINE
8
0
10
39.984165
20
579.2511
30
-1832.0952
11
2.4872026
21
556.9855
31
-1775.5201
0
LINE
8
0
10
2.4872026
20
556.9855
30
-1775.5201
11
-5.633543
21
586.8003
31
-1792.9327
0
LINE
8
0
10
115.97409
20
236.05566
30
-2737.2925
11
133.01108
21
77.13147
31
-2842.4639
0
LINE
8
0
10
132.20087
20
267.4206
30
-2736.2544
11
105.71883
21
215.67906
31
-2688.9976
0
LINE
8
0
10
105.71883
20
215.67906
30
-2688.9976
11
90.1907
21
285.35477
31
-2735.1553
0
LINE
8
0
10
90.1907
20
285.35477
30
-2735.1553
11
132.20087
21
267.4206
31
-2736.2544
0
LINE
8
0
10
105.71883
20
215.67906
30
-2688.9976
11
132.20087
21
267.4206
31
-2736.2544
0
LINE
8
0
10
132.20087
20
267.4206
30
-2736.2544
11
100.29793
21
253.04091
31
-2772.462
0
LINE
8
0
10
100.29793
20
253.04091
30
-2772.462
11
105.71883
21
215.67906
31
-2688.9976
0
LINE
8
0
10
100.29793
20
253.04091
30
-2772.462
11
95.62823
21
254.77058
31
-2766.5916
0
LINE
8
0
10
95.62823
20
254.77058
30
-2766.5916
11
105.71883
21
215.67906
31
-2688.9976
0
LINE
8
0
10
105.71883
20
215.67906
30
-2688.9976
11
100.29793
21
253.04091
31
-2772.462
0
LINE
8
0
10
95.62823
20
254.77058
30
-2766.5916
11
100.29793
21
253.04091
31
-2772.462
0
LINE
8
0
10
100.29793
20
253.04091
30
-2772.462
11
51.022434
21
254.05202
31
-2721.8916
0
LINE
8
0
10
51.022434
20
254.05202
30
-2721.8916
11
95.62823
21
254.77058
31
-2766.5916
0
LINE
8
0
10
51.022434
20
254.05202
30
-2721.8916
11
94.9468
21
187.15033
31
-2734.5928
0
LINE
8
0
10
94.9468
20
187.15033
30
-2734.5928
11
95.62823
21
254.77058
31
-2766.5916
0
LINE
8
0
10
95.62823
20
254.77058
30
-2766.5916
11
51.022434
21
254.05202
31
-2721.8916
0
LINE
8
0
10
-310.7613
20
459.76547
30
-2226.9927
11
-371.19745
21
518.6751
31
-2273.1636
0
LINE
8
0
10
-309.70187
20
407.83972
30
-2219.5266
11
-261.63348
21
448.71375
31
-2201.0806
0
LINE
8
0
10
-261.63348
20
448.71375
30
-2201.0806
11
-261.48938
21
463.5333
31
-2177.2185
0
LINE
8
0
10
-261.48938
20
463.5333
30
-2177.2185
11
-309.70187
21
407.83972
31
-2219.5266
0
LINE
8
0
10
-261.63348
20
448.71375
30
-2201.0806
11
-309.70187
21
407.83972
31
-2219.5266
0
LINE
8
0
10
-309.70187
20
407.83972
30
-2219.5266
11
-259.02875
21
440.03595
31
-2219.8997
0
LINE
8
0
10
-259.02875
20
440.03595
30
-2219.8997
11
-261.63348
21
448.71375
31
-2201.0806
0
LINE
8
0
10
-259.02875
20
440.03595
30
-2219.8997
11
-301.771
21
421.71283
31
-2240.3718
0
LINE
8
0
10
-301.771
20
421.71283
30
-2240.3718
11
-261.63348
21
448.71375
31
-2201.0806
0
LINE
8
0
10
-261.63348
20
448.71375
30
-2201.0806
11
-259.02875
21
440.03595
31
-2219.8997
0
LINE
8
0
10
-301.771
20
421.71283
30
-2240.3718
11
-259.02875
21
440.03595
31
-2219.8997
0
LINE
8
0
10
-259.02875
20
440.03595
30
-2219.8997
11
-290.27655
21
417.38644
31
-2211.5476
0
LINE
8
0
10
-290.27655
20
417.38644
30
-2211.5476
11
-301.771
21
421.71283
31
-2240.3718
0
LINE
8
0
10
-290.27655
20
417.38644
30
-2211.5476
11
-322.2302
21
417.79184
31
-2185.0571
0
LINE
8
0
10
-322.2302
20
417.79184
30
-2185.0571
11
-301.771
21
421.71283
31
-2240.3718
0
LINE
8
0
10
-301.771
20
421.71283
30
-2240.3718
11
-290.27655
21
417.38644
31
-2211.5476
0
LINE
8
0
10
-394.2663
20
301.8035
30
-2641.5066
11
-428.57635
21
282.72888
31
-2612.15
0
LINE
8
0
10
-428.57635
20
282.72888
30
-2612.15
11
-425.39667
21
327.20712
31
-2616.6453
0
LINE
8
0
10
-425.39667
20
327.20712
30
-2616.6453
11
-394.2663
21
301.8035
31
-2641.5066
0
LINE
8
0
10
-428.57635
20
282.72888
30
-2612.15
11
-394.2663
21
301.8035
31
-2641.5066
0
LINE
8
0
10
-394.2663
20
301.8035
30
-2641.5066
11
-399.47668
21
362.8401
31
-2598.627
0
LINE
8
0
10
-399.47668
20
362.8401
30
-2598.627
11
-428.57635
21
282.72888
31
-2612.15
0
LINE
8
0
10
-399.47668
20
362.8401
30
-2598.627
11
-444.8176
21
324.81308
31
-2624.458
0
LINE
8
0
10
-444.8176
20
324.81308
30
-2624.458
11
-428.57635
21
282.72888
31
-2612.15
0
LINE
8
0
10
-428.57635
20
282.72888
30
-2612.15
11
-399.47668
21
362.8401
31
-2598.627
0
LINE
8
0
10
-444.8176
20
324.81308
30
-2624.458
11
-399.47668
21
362.8401
31
-2598.627
0
LINE
8
0
10
-399.47668
20
362.8401
30
-2598.627
11
-423.40744
21
346.27798
31
-2647.8013
0
LINE
8
0
10
-423.40744
20
346.27798
30
-2647.8013
11
-444.8176
21
324.81308
31
-2624.458
0
LINE
8
0
10
-423.40744
20
346.27798
30
-2647.8013
11
-421.32474
21
325.50714
31
-2611.347
0
LINE
8
0
10
-421.32474
20
325.50714
30
-2611.347
11
-444.8176
21
324.81308
31
-2624.458
0
LINE
8
0
10
-444.8176
20
324.81308
30
-2624.458
11
-423.40744
21
346.27798
31
-2647.8013
0
LINE
8
0
10
245.35727
20
855.0242
30
-2561.7717
11
258.44507
21
830.9503
31
-2587.0117
0
LINE
8
0
10
258.44507
20
830.9503
30
-2587.0117
11
242.11183
21
886.557
31
-2542.2776
0
LINE
8
0
10
242.11183
20
886.557
30
-2542.2776
11
245.35727
21
855.0242
31
-2561.7717
0
LINE
8
0
10
258.44507
20
830.9503
30
-2587.0117
11
245.35727
21
855.0242
31
-2561.7717
0
LINE
8
0
10
245.35727
20
855.0242
30
-2561.7717
11
281.0916
21
926.72314
31
-2599.4966
0
LINE
8
0
10
281.0916
20
926.72314
30
-2599.4966
11
258.44507
21
830.9503
31
-2587.0117
0
LINE
8
0
10
281.0916
20
926.72314
30
-2599.4966
11
229.68149
21
881.9208
31
-2645.5688
0
LINE
8
0
10
229.68149
20
881.9208
30
-2645.5688
11
258.44507
21
830.9503
31
-2587.0117
0
LINE
8
0
10
258.44507
20
830.9503
30
-2587.0117
11
281.0916
21
926.72314
31
-2599.4966
0
LINE
8
0
10
229.68149
20
881.9208
30
-2645.5688
11
281.0916
21
926.72314
31
-2599.4966
0
LINE
8
0
10
281.0916
20
926.72314
30
-2599.4966
11
261.18878
21
879.32446
31
-2564.2876
0
LINE
8
0
10
261.18878
20
879.32446
30
-2564.2876
11
229.68149
21
881.9208
31
-2645.5688
0
LINE
8
0
10
261.18878
20
879.32446
30
-2564.2876
11
281.8777
21
895.72375
31
-2595.6067
0
LINE
8
0
10
281.8777
20
895.72375
30
-2595.6067
11
229.68149
21
881.9208
31
-2645.5688
0
LINE
8
0
10
229.68149
20
881.9208
30
-2645.5688
11
261.18878
21
879.32446
31
-2564.2876
0
LINE
8
0
10
117.08528
20
-225.69312
30
-2953.8367
11
115.57684
21
-244.90884
31
-2982.7942
0
LINE
8
0
10
115.57684
20
-244.90884
30
-2982.7942
11
162.35739
21
-269.28976
31
-2971.8325
0
LINE
8
0
10
162.35739
20
-269.28976
30
-2971.8325
11
117.08528
21
-225.69312
31
-2953.8367
0
LINE
8
0
10
115.57684
20
-244.90884
30
-2982.7942
11
117.08528
21
-225.69312
31
-2953.8367
0
LINE
8
0
10
117.08528
20
-225.69312
30
-2953.8367
11
138.40143
21
-256.92972
31
-2957.7437
0
LINE
8
0
10
138.40143
20
-256.92972
30
-2957.7437
11
115.57684
21
-244.90884
31
-2982.7942
0
LINE
8
0
10
138.40143
20
-256.92972
30
-2957.7437
11
139.91876
21
-240.45746
31
-2979.927
0
LINE
8
0
10
139.91876
20
-240.45746
30
-2979.927
11
115.57684
21
-244.90884
31
-2982.7942
0
LINE
8
0
10
115.57684
20
-244.90884
30
-2982.7942
11
138.40143
21
-256.92972
31
-2957.7437
0
LINE
8
0
10
139.91876
20
-240.45746
30
-2979.927
11
138.40143
21
-256.92972
31
-2957.7437
0
LINE
8
0
10
138.40143
20
-256.92972
30
-2957.7437
11
170.19113
21
-204.31218
31
-2939.1526
0
LINE
8
0
10
170.19113
20
-204.31218
30
-2939.1526
11
139.91876
21
-240.45746
31
-2979.927
0
LINE
8
0
10
170.19113
20
-204.31218
30
-2939.1526
11
125.02726
21
-242.88776
31
-2916.6174
0
LINE
8
0
10
125.02726
20
-242.88776
30
-2916.6174
11
139.91876
21
-240.45746
31
-2979.927
0
LINE
8
0
10
139.91876
20
-240.45746
30
-2979.927
11
170.19113
21
-204.31218
31
-2939.1526
0
LINE
8
0
10
-776.85297
20
-348.60324
30
-2363.688
11
-780.9426
21
-354.45
31
-2347.133
0
LINE
8
0
10
-780.9426
20
-354.45
30
-2347.133
11
-799.01044
21
-361.26508
31
-2370.296
0
LINE
8
0
10
-799.01044
20
-361.26508
30
-2370.296
11
-776.85297
21
-348.60324
31
-2363.688
0
LINE
8
0
10
-780.9426
20
-354.45
30
-2347.133
11
-776.85297
21
-348.60324
31
-2363.688
0
LINE
8
0
10
-776.85297
20
-348.60324
30
-2363.688
11
-801.93207
21
-346.061
31
-2347.714
0
LINE
8
0
10
-801.93207
20
-346.061
30
-2347.714
11
-780.9426
21
-354.45
31
-2347.133
0
LINE
8
0
10
-801.93207
20
-346.061
30
-2347.714
11
-806.6791
21
-380.03168
31
-2352.997
0
LINE
8
0
10
-806.6791
20
-380.03168
30
-2352.997
11
-780.9426
21
-354.45
31
-2347.133
0
LINE
8
0
10
-780.9426
20
-354.45
30
-2347.133
11
-801.93207
21
-346.061
31
-2347.714
0
LINE
8
0
10
-806.6791
20
-380.03168
30
-2352.997
11
-801.93207
21
-346.061
31
-2347.714
0
LINE
8
0
10
-801.93207
20
-346.061
30
-2347.714
11
-807.40967
21
-357.21994
31
-2349.6882
0
LINE
8
0
10
-807.40967
20
-357.21994
30
-2349.6882
11
-806.6791
21
-380.03168
31
-2352.997
0
LINE
8
0
10
-807.40967
20
-357.21994
30
-2349.6882
11
-784.9442
21
-354.43155
31
-2352.3545
0
LINE
8
0
10
-784.9442
20
-354.43155
30
-2352.3545
11
-806.6791
21
-380.03168
31
-2352.997
0
LINE
8
0
10
-806.6791
20
-380.03168
30
-2352.997
11
-807.40967
21
-357.21994
31
-2349.6882
0
LINE
8
0
10
-289.7664
20
160.75552
30
-2437.8203
11
-315.15457
21
109.938866
31
-2436.3083
0
LINE
8
0
10
-315.15457
20
109.938866
30
-2436.3083
11
-337.55435
21
115.12909
31
-2449.495
0
LINE
8
0
10
-337.55435
20
115.12909
30
-2449.495
11
-289.7664
21
160.75552
31
-2437.8203
0
LINE
8
0
10
-315.15457
20
109.938866
30
-2436.3083
11
-289.7664
21
160.75552
31
-2437.8203
0
LINE
8
0
10
-289.7664
20
160.75552
30
-2437.8203
11
-344.22745
21
140.16138
31
-2447.6685
0
LINE
8
0
10
-344.22745
20
140.16138
30
-2447.6685
11
-315.15457
21
109.938866
31
-2436.3083
0
LINE
8
0
10
-344.22745
20
140.16138
30
-2447.6685
11
-306.93802
21
166.49515
31
-2419.587
0
LINE
8
0
10
-306.93802
20
166.49515
30
-2419.587
11
-315.15457
21
109.938866
31
-2436.3083
0
LINE
8
0
10
-315.15457
20
109.938866
30
-2436.3083
11
-344.22745
21
140.16138
31
-2447.6685
0
LINE
8
0
10
-306.93802
20
166.49515
30
-2419.587
11
-344.22745
21
140.16138
31
-2447.6685
0
LINE
8
0
10
-344.22745
20
140.16138
30
-2447.6685
11
-330.46927
21
105.30702
31
-2422.6277
0
LINE
8
0
10
-330.46927
20
105.30702
30
-2422.6277
11
-306.93802
21
166.49515
31
-2419.587
0
LINE
8
0
10
-330.46927
20
105.30702
30
-2422.6277
11
-336.3876
21
118.85301
31
-2447.0564
0
LINE
8
0
10
-336.3876
20
118.85301
30
-2447.0564
11
-306.93802
21
166.49515
31
-2419.587
0
LINE
8
0
10
-306.93802
20
166.49515
30
-2419.587
11
-330.46927
21
105.30702
31
-2422.6277
0
LINE
8
0
10
298.3533
20
491.8479
30
-2309.3755
11
313.76962
21
373.84198
31
-2275.6821
0
LINE
8
0
10
298.3533
20
491.8479
30
-2309.3755
11
367.66812
21
525.7179
31
-2163.3838
0
LINE
8
0
10
298.3533
20
491.8479
30
-2309.3755
11
228.87033
21
598.09326
31
-2313.5488
0
LINE
8
0
10
329.20755
20
525.5723
30
-2314.0674
11
302.72552
21
473.83078
31
-2266.8105
0
LINE
8
0
10
302.72552
20
473.83078
30
-2266.8105
11
287.1974
21
543.5065
31
-2312.9683
0
LINE
8
0
10
287.1974
20
543.5065
30
-2312.9683
11
329.20755
21
525.5723
31
-2314.0674
0
LINE
8
0
10
302.72552
20
473.83078
30
-2266.8105
11
329.20755
21
525.5723
31
-2314.0674
0
LINE
8
0
10
329.20755
20
525.5723
30
-2314.0674
11
297.30463
21
511.19263
31
-2350.275
0
LINE
8
0
10
297.30463
20
511.19263
30
-2350.275
11
302.72552
21
473.83078
31
-2266.8105
0
LINE
8
0
10
297.30463
20
511.19263
30
-2350.275
11
292.63492
21
512.9223
31
-2344.4045
0
LINE
8
0
10
292.63492
20
512.9223
30
-2344.4045
11
302.72552
21
473.83078
31
-2266.8105
0
LINE
8
0
10
302.72552
20
473.83078
30
-2266.8105
11
297.30463
21
511.19263
31
-2350.275
0
LINE
8
0
10
292.63492
20
512.9223
30
-2344.4045
11
297.30463
21
511.19263
31
-2350.275
0
LINE
8
0
10
297.30463
20
511.19263
30
-2350.275
11
248.02911
21
512.20374
31
-2299.7046
0
LINE
8
0
10
248.02911
20
512.20374
30
-2299.7046
11
292.63492
21
512.9223
31
-2344.4045
0
LINE
8
0
10
248.02911
20
512.20374
30
-2299.7046
11
291.9535
21
445.30203
31
-2312.4058
0
LINE
8
0
10
291.9535
20
445.30203
30
-2312.4058
11
292.63492
21
512.9223
31
-2344.4045
0
LINE
8
0
10
292.63492
20
512.9223
30
-2344.4045
11
248.02911
21
512.20374
31
-2299.7046
0
LINE
8
0
10
237.03017
20
-22.05272
30
-2418.7222
11
192.18204
21
-51.254257
31
-2360.1306
0
LINE
8
0
10
192.18204
20
-51.254257
30
-2360.1306
11
252.71814
21
-67.40634
31
-2413.133
0
LINE
8
0
10
252.71814
20
-67.40634
30
-2413.133
11
237.03017
21
-22.05272
31
-2418.7222
0
LINE
8
0
10
192.18204
20
-51.254257
30
-2360.1306
11
237.03017
21
-22.05272
31
-2418.7222
0
LINE
8
0
10
237.03017
20
-22.05272
30
-2418.7222
11
234.46211
21
2.7170105
31
-2344.3293
0
LINE
8
0
10
234.46211
20
2.7170105
30
-2344.3293
11
192.18204
21
-51.254257
31
-2360.1306
0
LINE
8
0
10
234.46211
20
2.7170105
30
-2344.3293
11
238.10103
21
1.7899837
31
-2371.9255
0
LINE
8
0
10
238.10103
20
1.7899837
30
-2371.9255
11
192.18204
21
-51.254257
31
-2360.1306
0
LINE
8
0
10
192.18204
20
-51.254257
30
-2360.1306
11
234.46211
21
2.7170105
31
-2344.3293
0
LINE
8
0
10
238.10103
20
1.7899837
30
-2371.9255
11
234.46211
21
2.7170105
31
-2344.3293
0
LINE
8
0
10
234.46211
20
2.7170105
30
-2344.3293
11
261.73013
21
43.38865
31
-2395.1948
0
LINE
8
0
10
261.73013
20
43.38865
30
-2395.1948
11
238.10103
21
1.7899837
31
-2371.9255
0
LINE
8
0
10
261.73013
20
43.38865
30
-2395.1948
11
216.86667
21
-42.96415
31
-2447.33
0
LINE
8
0
10
216.86667
20
-42.96415
30
-2447.33
11
238.10103
21
1.7899837
31
-2371.9255
0
LINE
8
0
10
238.10103
20
1.7899837
30
-2371.9255
11
261.73013
21
43.38865
31
-2395.1948
0
LINE
8
0
10
60.36596
20
-193.55695
30
-2586.8218
11
63.927567
21
-196.39166
31
-2594.5134
0
LINE
8
0
10
63.927567
20
-196.39166
30
-2594.5134
11
97.81764
21
-203.39963
31
-2571.3003
0
LINE
8
0
10
97.81764
20
-203.39963
30
-2571.3003
11
60.36596
21
-193.55695
31
-2586.8218
0
LINE
8
0
10
63.927567
20
-196.39166
30
-2594.5134
11
60.36596
21
-193.55695
31
-2586.8218
0
LINE
8
0
10
60.36596
20
-193.55695
30
-2586.8218
11
82.509384
21
-186.78691
31
-2547.8857
0
LINE
8
0
10
82.509384
20
-186.78691
30
-2547.8857
11
63.927567
21
-196.39166
31
-2594.5134
0
LINE
8
0
10
82.509384
20
-186.78691
30
-2547.8857
11
117.87746
21
-185.17462
31
-2561.4905
0
LINE
8
0
10
117.87746
20
-185.17462
30
-2561.4905
11
63.927567
21
-196.39166
31
-2594.5134
0
LINE
8
0
10
63.927567
20
-196.39166
30
-2594.5134
11
82.509384
21
-186.78691
31
-2547.8857
0
LINE
8
0
10
117.87746
20
-185.17462
30
-2561.4905
11
82.509384
21
-186.78691
31
-2547.8857
0
LINE
8
0
10
82.509384
20
-186.78691
30
-2547.8857
11
64.24196
21
-190.86194
31
-2588.921
0
LINE
8
0
10
64.24196
20
-190.86194
30
-2588.921
11
117.87746
21
-185.17462
31
-2561.4905
0
LINE
8
0
10
64.24196
20
-190.86194
30
-2588.921
11
99.09236
21
-145.64621
31
-2590.7053
0
LINE
8
0
10
99.09236
20
-145.64621
30
-2590.7053
11
117.87746
21
-185.17462
31
-2561.4905
0
LINE
8
0
10
117.87746
20
-185.17462
30
-2561.4905
11
64.24196
21
-190.86194
31
-2588.921
0
LINE
8
0
10
-4.233673
20
527.72577
30
-1850.2557
11
4.480316
21
567.35114
31
-1802.0079
0
LINE
8
0
10
-4.233673
20
527.72577
30
-1850.2557
11
93.87256
21
397.48715
31
-1902.0303
0
LINE
8
0
10
-24.697521
20
477.13214
30
-1832.1354
11
9.860962
21
559.45044
31
-1828.9482
0
LINE
8
0
10
9.860962
20
559.45044
30
-1828.9482
11
58.409073
21
539.9939
31
-1841.7172
0
LINE
8
0
10
58.409073
20
539.9939
30
-1841.7172
11
-24.697521
21
477.13214
31
-1832.1354
0
LINE
8
0
10
9.860962
20
559.45044
30
-1828.9482
11
-24.697521
21
477.13214
31
-1832.1354
0
LINE
8
0
10
-24.697521
20
477.13214
30
-1832.1354
11
-2.4838486
21
576.9799
31
-1861.0831
0
LINE
8
0
10
-2.4838486
20
576.9799
30
-1861.0831
11
9.860962
21
559.45044
31
-1828.9482
0
LINE
8
0
10
-2.4838486
20
576.9799
30
-1861.0831
11
-2.0684614
21
521.6597
31
-1813.286
0
LINE
8
0
10
-2.0684614
20
521.6597
30
-1813.286
11
9.860962
21
559.45044
31
-1828.9482
0
LINE
8
0
10
9.860962
20
559.45044
30
-1828.9482
11
-2.4838486
21
576.9799
31
-1861.0831
0
LINE
8
0
10
-2.0684614
20
521.6597
30
-1813.286
11
-2.4838486
21
576.9799
31
-1861.0831
0
LINE
8
0
10
-2.4838486
20
576.9799
30
-1861.0831
11
-10.189207
21
551.47455
31
-1830.6986
0
LINE
8
0
10
-10.189207
20
551.47455
30
-1830.6986
11
-2.0684614
21
521.6597
31
-1813.286
0
LINE
8
0
10
-10.189207
20
551.47455
30
-1830.6986
11
35.4285
21
543.92535
31
-1869.8611
0
LINE
8
0
10
35.4285
20
543.92535
30
-1869.8611
11
-2.0684614
21
521.6597
31
-1813.286
0
LINE
8
0
10
-2.0684614
20
521.6597
30
-1813.286
11
-10.189207
21
551.47455
31
-1830.6986
0
LINE
8
0
10
131.28928
20
75.381226
30
-2844.3047
11
115.97409
21
236.05566
31
-2737.2925
0
LINE
8
0
10
175.21902
20
96.389946
30
-2836.7646
11
144.773
21
51.983215
31
-2889.312
0
LINE
8
0
10
144.773
20
51.983215
30
-2889.312
11
174.42902
21
55.00629
31
-2828.3494
0
LINE
8
0
10
174.42902
20
55.00629
30
-2828.3494
11
175.21902
21
96.389946
31
-2836.7646
0
LINE
8
0
10
144.773
20
51.983215
30
-2889.312
11
175.21902
21
96.389946
31
-2836.7646
0
LINE
8
0
10
175.21902
20
96.389946
30
-2836.7646
11
75.317444
21
48.913307
31
-2856.7673
0
LINE
8
0
10
75.317444
20
48.913307
30
-2856.7673
11
144.773
21
51.983215
31
-2889.312
0
LINE
8
0
10
75.317444
20
48.913307
30
-2856.7673
11
169.64975
21
39.471207
31
-2845.4849
0
LINE
8
0
10
169.64975
20
39.471207
30
-2845.4849
11
144.773
21
51.983215
31
-2889.312
0
LINE
8
0
10
144.773
20
51.983215
30
-2889.312
11
75.317444
21
48.913307
31
-2856.7673
0
LINE
8
0
10
169.64975
20
39.471207
30
-2845.4849
11
75.317444
21
48.913307
31
-2856.7673
0
LINE
8
0
10
75.317444
20
48.913307
30
-2856.7673
11
93.587006
21
50.3172
31
-2854.9546
0
LINE
8
0
10
93.587006
20
50.3172
30
-2854.9546
11
169.64975
21
39.471207
31
-2845.4849
0
LINE
8
0
10
93.587006
20
50.3172
30
-2854.9546
11
131.8175
21
125.53317
31
-2837.0833
0
LINE
8
0
10
131.8175
20
125.53317
30
-2837.0833
11
169.64975
21
39.471207
31
-2845.4849
0
LINE
8
0
10
169.64975
20
39.471207
30
-2845.4849
11
93.587006
21
50.3172
31
-2854.9546
0
LINE
8
0
10
-307.47528
20
-433.6767
30
-2466.124
11
-271.23032
21
-409.10263
31
-2523.9954
0
LINE
8
0
10
-271.23032
20
-409.10263
30
-2523.9954
11
-267.1944
21
-409.26996
31
-2509.5852
0
LINE
8
0
10
-267.1944
20
-409.26996
30
-2509.5852
11
-307.47528
21
-433.6767
31
-2466.124
0
LINE
8
0
10
-271.23032
20
-409.10263
30
-2523.9954
11
-307.47528
21
-433.6767
31
-2466.124
0
LINE
8
0
10
-307.47528
20
-433.6767
30
-2466.124
11
-248.90022
21
-470.2063
31
-2511.461
0
LINE
8
0
10
-248.90022
20
-470.2063
30
-2511.461
11
-271.23032
21
-409.10263
31
-2523.9954
0
LINE
8
0
10
-248.90022
20
-470.2063
30
-2511.461
11
-259.18387
21
-471.00955
31
-2511.5583
0
LINE
8
0
10
-259.18387
20
-471.00955
30
-2511.5583
11
-271.23032
21
-409.10263
31
-2523.9954
0
LINE
8
0
10
-271.23032
20
-409.10263
30
-2523.9954
11
-248.90022
21
-470.2063
31
-2511.461
0
LINE
8
0
10
-259.18387
20
-471.00955
30
-2511.5583
11
-248.90022
21
-470.2063
31
-2511.461
0
LINE
8
0
10
-248.90022
20
-470.2063
30
-2511.461
11
-234.51709
21
-434.40256
31
-2486.464
0
LINE
8
0
10
-234.51709
20
-434.40256
30
-2486.464
11
-259.18387
21
-471.00955
31
-2511.5583
0
LINE
8
0
10
-234.51709
20
-434.40256
30
-2486.464
11
-313.06458
21
-396.32376
31
-2491.801
0
LINE
8
0
10
-313.06458
20
-396.32376
30
-2491.801
11
-259.18387
21
-471.00955
31
-2511.5583
0
LINE
8
0
10
-259.18387
20
-471.00955
30
-2511.5583
11
-234.51709
21
-434.40256
31
-2486.464
0
ENDSEC
0
EOF
